G75*
%MOIN*%
%OFA0B0*%
%FSLAX24Y24*%
%IPPOS*%
%LPD*%
%AMOC8*
5,1,8,0,0,1.08239X$1,22.5*
%
%ADD10C,0.0560*%
%ADD11C,0.0560*%
%ADD12OC8,0.0560*%
%ADD13OC8,0.0630*%
%ADD14C,0.0630*%
%ADD15C,0.0634*%
%ADD16C,0.0640*%
%ADD17C,0.0866*%
%ADD18OC8,0.0640*%
%ADD19C,0.0673*%
%ADD20C,0.0700*%
%ADD21C,0.0700*%
%ADD22C,0.0787*%
%ADD23C,0.0680*%
%ADD24C,0.0555*%
%ADD25C,0.1000*%
%ADD26OC8,0.1000*%
%ADD27OC8,0.1240*%
%ADD28C,0.1240*%
%ADD29C,0.0400*%
%ADD30C,0.0400*%
%ADD31C,0.0120*%
D10*
X005100Y002820D02*
X005100Y003380D01*
X006100Y003380D02*
X006100Y002820D01*
X007100Y002820D02*
X007100Y003380D01*
X008100Y003380D02*
X008100Y002820D01*
X009100Y002820D02*
X009100Y003380D01*
X010100Y003380D02*
X010100Y002820D01*
X011100Y002820D02*
X011100Y003380D01*
X011100Y005820D02*
X011100Y006380D01*
X010100Y006380D02*
X010100Y005820D01*
X009100Y005820D02*
X009100Y006380D01*
X009100Y007320D02*
X009100Y007880D01*
X008100Y007880D02*
X008100Y007320D01*
X007100Y007320D02*
X007100Y007880D01*
X006100Y007880D02*
X006100Y007320D01*
X005100Y007320D02*
X005100Y007880D01*
X004100Y007880D02*
X004100Y007320D01*
X003100Y007320D02*
X003100Y007880D01*
X002100Y007880D02*
X002100Y007320D01*
X005100Y006380D02*
X005100Y005820D01*
X006100Y005820D02*
X006100Y006380D01*
X007100Y006380D02*
X007100Y005820D01*
X008100Y005820D02*
X008100Y006380D01*
X008320Y010600D02*
X008880Y010600D01*
X008880Y011600D02*
X008320Y011600D01*
X008320Y012600D02*
X008880Y012600D01*
X008880Y013600D02*
X008320Y013600D01*
X008320Y014600D02*
X008880Y014600D01*
X008880Y015600D02*
X008320Y015600D01*
X008320Y016600D02*
X008880Y016600D01*
X008880Y017600D02*
X008320Y017600D01*
X008320Y018600D02*
X008880Y018600D01*
X008880Y019600D02*
X008320Y019600D01*
X008320Y020600D02*
X008880Y020600D01*
X008880Y021600D02*
X008320Y021600D01*
X008320Y024600D02*
X008880Y024600D01*
X008880Y025600D02*
X008320Y025600D01*
X008320Y026600D02*
X008880Y026600D01*
X008880Y027600D02*
X008320Y027600D01*
X008320Y028600D02*
X008880Y028600D01*
X008880Y029600D02*
X008320Y029600D01*
X008320Y030600D02*
X008880Y030600D01*
X008880Y031600D02*
X008320Y031600D01*
X008320Y032600D02*
X008880Y032600D01*
X008880Y033600D02*
X008320Y033600D01*
X008320Y034600D02*
X008880Y034600D01*
X008880Y035600D02*
X008320Y035600D01*
X008600Y039820D02*
X008600Y040380D01*
X007600Y040380D02*
X007600Y039820D01*
X006600Y039820D02*
X006600Y040380D01*
X005600Y040380D02*
X005600Y039820D01*
X004600Y039820D02*
X004600Y040380D01*
X003600Y040380D02*
X003600Y039820D01*
X003600Y042820D02*
X003600Y043380D01*
X004600Y043380D02*
X004600Y042820D01*
X005600Y042820D02*
X005600Y043380D01*
X006600Y043380D02*
X006600Y042820D01*
X007600Y042820D02*
X007600Y043380D01*
X008600Y043380D02*
X008600Y042820D01*
X009600Y042820D02*
X009600Y043380D01*
X009600Y040380D02*
X009600Y039820D01*
X014320Y039600D02*
X014880Y039600D01*
X014880Y040600D02*
X014320Y040600D01*
X014320Y041600D02*
X014880Y041600D01*
X014880Y042600D02*
X014320Y042600D01*
X014320Y043600D02*
X014880Y043600D01*
X014880Y044600D02*
X014320Y044600D01*
X014320Y045600D02*
X014880Y045600D01*
X014880Y046600D02*
X014320Y046600D01*
X014320Y047600D02*
X014880Y047600D01*
X014880Y048600D02*
X014320Y048600D01*
X014320Y049600D02*
X014880Y049600D01*
X014880Y050600D02*
X014320Y050600D01*
X014600Y053820D02*
X014600Y054380D01*
X015600Y054380D02*
X015600Y053820D01*
X016600Y053820D02*
X016600Y054380D01*
X017600Y054380D02*
X017600Y053820D01*
X018600Y053820D02*
X018600Y054380D01*
X019600Y054380D02*
X019600Y053820D01*
X020600Y053820D02*
X020600Y054380D01*
X021600Y054380D02*
X021600Y053820D01*
X022600Y053820D02*
X022600Y054380D01*
X023600Y054380D02*
X023600Y053820D01*
X024600Y053820D02*
X024600Y054380D01*
X025600Y054380D02*
X025600Y053820D01*
X025820Y051600D02*
X026380Y051600D01*
X026380Y050600D02*
X025820Y050600D01*
X025820Y049600D02*
X026380Y049600D01*
X026380Y048600D02*
X025820Y048600D01*
X025820Y047600D02*
X026380Y047600D01*
X026380Y046600D02*
X025820Y046600D01*
X025820Y045600D02*
X026380Y045600D01*
X026380Y044600D02*
X025820Y044600D01*
X025820Y043600D02*
X026380Y043600D01*
X026380Y042600D02*
X025820Y042600D01*
X025820Y041600D02*
X026380Y041600D01*
X026380Y040600D02*
X025820Y040600D01*
X025820Y038100D02*
X026380Y038100D01*
X026380Y037100D02*
X025820Y037100D01*
X025820Y036100D02*
X026380Y036100D01*
X026380Y035100D02*
X025820Y035100D01*
X025820Y034100D02*
X026380Y034100D01*
X026380Y033100D02*
X025820Y033100D01*
X025820Y032100D02*
X026380Y032100D01*
X026380Y031100D02*
X025820Y031100D01*
X025820Y030100D02*
X026380Y030100D01*
X026380Y029100D02*
X025820Y029100D01*
X025820Y028100D02*
X026380Y028100D01*
X026380Y027100D02*
X025820Y027100D01*
X025820Y026100D02*
X026380Y026100D01*
X026380Y025100D02*
X025820Y025100D01*
X025820Y022600D02*
X026380Y022600D01*
X026380Y021600D02*
X025820Y021600D01*
X025820Y020600D02*
X026380Y020600D01*
X026380Y019600D02*
X025820Y019600D01*
X025820Y018600D02*
X026380Y018600D01*
X026380Y017600D02*
X025820Y017600D01*
X025820Y016600D02*
X026380Y016600D01*
X026380Y015600D02*
X025820Y015600D01*
X025820Y014600D02*
X026380Y014600D01*
X026380Y013600D02*
X025820Y013600D01*
X025820Y012600D02*
X026380Y012600D01*
X026380Y011600D02*
X025820Y011600D01*
X025820Y010600D02*
X026380Y010600D01*
X026380Y009600D02*
X025820Y009600D01*
X026100Y006380D02*
X026100Y005820D01*
X027100Y005820D02*
X027100Y006380D01*
X028100Y006380D02*
X028100Y005820D01*
X029100Y005820D02*
X029100Y006380D01*
X030100Y006380D02*
X030100Y005820D01*
X031100Y005820D02*
X031100Y006380D01*
X031100Y003380D02*
X031100Y002820D01*
X030100Y002820D02*
X030100Y003380D01*
X029100Y003380D02*
X029100Y002820D01*
X028100Y002820D02*
X028100Y003380D01*
X027100Y003380D02*
X027100Y002820D01*
X026100Y002820D02*
X026100Y003380D01*
X025100Y003380D02*
X025100Y002820D01*
X025100Y005820D02*
X025100Y006380D01*
X021100Y006380D02*
X021100Y005820D01*
X020100Y005820D02*
X020100Y006380D01*
X019100Y006380D02*
X019100Y005820D01*
X018100Y005820D02*
X018100Y006380D01*
X017100Y006380D02*
X017100Y005820D01*
X016100Y005820D02*
X016100Y006380D01*
X015100Y006380D02*
X015100Y005820D01*
X015100Y003380D02*
X015100Y002820D01*
X016100Y002820D02*
X016100Y003380D01*
X017100Y003380D02*
X017100Y002820D01*
X018100Y002820D02*
X018100Y003380D01*
X019100Y003380D02*
X019100Y002820D01*
X020100Y002820D02*
X020100Y003380D01*
X021100Y003380D02*
X021100Y002820D01*
X020880Y009600D02*
X020320Y009600D01*
X020320Y010600D02*
X020880Y010600D01*
X020880Y011600D02*
X020320Y011600D01*
X020320Y012600D02*
X020880Y012600D01*
X020880Y013600D02*
X020320Y013600D01*
X020320Y014600D02*
X020880Y014600D01*
X020880Y015600D02*
X020320Y015600D01*
X020320Y016600D02*
X020880Y016600D01*
X020880Y017600D02*
X020320Y017600D01*
X020320Y018600D02*
X020880Y018600D01*
X020880Y019600D02*
X020320Y019600D01*
X020320Y020600D02*
X020880Y020600D01*
X020880Y021600D02*
X020320Y021600D01*
X020320Y022600D02*
X020880Y022600D01*
X020880Y023600D02*
X020320Y023600D01*
X020320Y024600D02*
X020880Y024600D01*
X020880Y025600D02*
X020320Y025600D01*
X020320Y026600D02*
X020880Y026600D01*
X020880Y027600D02*
X020320Y027600D01*
X020320Y028600D02*
X020880Y028600D01*
X020880Y031600D02*
X020320Y031600D01*
X020320Y032600D02*
X020880Y032600D01*
X020880Y033600D02*
X020320Y033600D01*
X020320Y034600D02*
X020880Y034600D01*
X020880Y035600D02*
X020320Y035600D01*
X020320Y036600D02*
X020880Y036600D01*
X020880Y037600D02*
X020320Y037600D01*
X020320Y038600D02*
X020880Y038600D01*
X020880Y039600D02*
X020320Y039600D01*
X020320Y040600D02*
X020880Y040600D01*
X020880Y041600D02*
X020320Y041600D01*
X020320Y042600D02*
X020880Y042600D01*
X020880Y043600D02*
X020320Y043600D01*
X020320Y044600D02*
X020880Y044600D01*
X020880Y045600D02*
X020320Y045600D01*
X020320Y046600D02*
X020880Y046600D01*
X020880Y047600D02*
X020320Y047600D01*
X020320Y048600D02*
X020880Y048600D01*
X020880Y049600D02*
X020320Y049600D01*
X020320Y050600D02*
X020880Y050600D01*
X013600Y053820D02*
X013600Y054380D01*
X012600Y054380D02*
X012600Y053820D01*
X012600Y059820D02*
X012600Y060380D01*
X013600Y060380D02*
X013600Y059820D01*
X014600Y059820D02*
X014600Y060380D01*
X015600Y060380D02*
X015600Y059820D01*
X016600Y059820D02*
X016600Y060380D01*
X017600Y060380D02*
X017600Y059820D01*
X018600Y059820D02*
X018600Y060380D01*
X019600Y060380D02*
X019600Y059820D01*
X020600Y059820D02*
X020600Y060380D01*
X021600Y060380D02*
X021600Y059820D01*
X022600Y059820D02*
X022600Y060380D01*
X023600Y060380D02*
X023600Y059820D01*
X024600Y059820D02*
X024600Y060380D01*
X025600Y060380D02*
X025600Y059820D01*
X031820Y051600D02*
X032380Y051600D01*
X032380Y050600D02*
X031820Y050600D01*
X031820Y049600D02*
X032380Y049600D01*
X032380Y048600D02*
X031820Y048600D01*
X031820Y047600D02*
X032380Y047600D01*
X032380Y046600D02*
X031820Y046600D01*
X031820Y045600D02*
X032380Y045600D01*
X032380Y044600D02*
X031820Y044600D01*
X031820Y043600D02*
X032380Y043600D01*
X032380Y042600D02*
X031820Y042600D01*
X031820Y041600D02*
X032380Y041600D01*
X032380Y040600D02*
X031820Y040600D01*
X031820Y038100D02*
X032380Y038100D01*
X032380Y037100D02*
X031820Y037100D01*
X031820Y036100D02*
X032380Y036100D01*
X032380Y035100D02*
X031820Y035100D01*
X031820Y034100D02*
X032380Y034100D01*
X032380Y033100D02*
X031820Y033100D01*
X031820Y032100D02*
X032380Y032100D01*
X032380Y031100D02*
X031820Y031100D01*
X031820Y030100D02*
X032380Y030100D01*
X032380Y029100D02*
X031820Y029100D01*
X031820Y028100D02*
X032380Y028100D01*
X032380Y027100D02*
X031820Y027100D01*
X031820Y026100D02*
X032380Y026100D01*
X032380Y025100D02*
X031820Y025100D01*
X031820Y022600D02*
X032380Y022600D01*
X032380Y021600D02*
X031820Y021600D01*
X031820Y020600D02*
X032380Y020600D01*
X032380Y019600D02*
X031820Y019600D01*
X031820Y018600D02*
X032380Y018600D01*
X032380Y017600D02*
X031820Y017600D01*
X031820Y016600D02*
X032380Y016600D01*
X032380Y015600D02*
X031820Y015600D01*
X031820Y014600D02*
X032380Y014600D01*
X032380Y013600D02*
X031820Y013600D01*
X031820Y012600D02*
X032380Y012600D01*
X032380Y011600D02*
X031820Y011600D01*
X031820Y010600D02*
X032380Y010600D01*
X032380Y009600D02*
X031820Y009600D01*
X035100Y007880D02*
X035100Y007320D01*
X036100Y007320D02*
X036100Y007880D01*
X037100Y007880D02*
X037100Y007320D01*
X038100Y007320D02*
X038100Y007880D01*
X039100Y007880D02*
X039100Y007320D01*
X040100Y007320D02*
X040100Y007880D01*
X040100Y006380D02*
X040100Y005820D01*
X039100Y005820D02*
X039100Y006380D01*
X038100Y006380D02*
X038100Y005820D01*
X037100Y005820D02*
X037100Y006380D01*
X036100Y006380D02*
X036100Y005820D01*
X035100Y005820D02*
X035100Y006380D01*
X035100Y003380D02*
X035100Y002820D01*
X036100Y002820D02*
X036100Y003380D01*
X037100Y003380D02*
X037100Y002820D01*
X038100Y002820D02*
X038100Y003380D01*
X039100Y003380D02*
X039100Y002820D01*
X040100Y002820D02*
X040100Y003380D01*
X041100Y003380D02*
X041100Y002820D01*
X041100Y005820D02*
X041100Y006380D01*
X043320Y009600D02*
X043880Y009600D01*
X043880Y010600D02*
X043320Y010600D01*
X043320Y011600D02*
X043880Y011600D01*
X043880Y012600D02*
X043320Y012600D01*
X043320Y013600D02*
X043880Y013600D01*
X043880Y014600D02*
X043320Y014600D01*
X043320Y015600D02*
X043880Y015600D01*
X043880Y016600D02*
X043320Y016600D01*
X043320Y017600D02*
X043880Y017600D01*
X043880Y018600D02*
X043320Y018600D01*
X043320Y019600D02*
X043880Y019600D01*
X043880Y020600D02*
X043320Y020600D01*
X043320Y021600D02*
X043880Y021600D01*
X043880Y022600D02*
X043320Y022600D01*
X043320Y023600D02*
X043880Y023600D01*
X043880Y024600D02*
X043320Y024600D01*
X043320Y025600D02*
X043880Y025600D01*
X043880Y026600D02*
X043320Y026600D01*
X043320Y027600D02*
X043880Y027600D01*
X043880Y028600D02*
X043320Y028600D01*
X043320Y031600D02*
X043880Y031600D01*
X043880Y032600D02*
X043320Y032600D01*
X043320Y033600D02*
X043880Y033600D01*
X043880Y034600D02*
X043320Y034600D01*
X043320Y035600D02*
X043880Y035600D01*
X043880Y036600D02*
X043320Y036600D01*
X043320Y037600D02*
X043880Y037600D01*
X043880Y038600D02*
X043320Y038600D01*
X043320Y039600D02*
X043880Y039600D01*
X043880Y040600D02*
X043320Y040600D01*
X043320Y041600D02*
X043880Y041600D01*
X043880Y042600D02*
X043320Y042600D01*
X043320Y043600D02*
X043880Y043600D01*
X043880Y044600D02*
X043320Y044600D01*
X043320Y045600D02*
X043880Y045600D01*
X043880Y046600D02*
X043320Y046600D01*
X043320Y047600D02*
X043880Y047600D01*
X043880Y048600D02*
X043320Y048600D01*
X043320Y049600D02*
X043880Y049600D01*
X043880Y050600D02*
X043320Y050600D01*
X046600Y054820D02*
X046600Y055380D01*
X047600Y055380D02*
X047600Y054820D01*
X048600Y054820D02*
X048600Y055380D01*
X049600Y055380D02*
X049600Y054820D01*
X050600Y054820D02*
X050600Y055380D01*
X051600Y055380D02*
X051600Y054820D01*
X052600Y054820D02*
X052600Y055380D01*
X053600Y055380D02*
X053600Y054820D01*
X054600Y054820D02*
X054600Y055380D01*
X055600Y055380D02*
X055600Y054820D01*
X056600Y054820D02*
X056600Y055380D01*
X057600Y055380D02*
X057600Y054820D01*
X058600Y054820D02*
X058600Y055380D01*
X059600Y055380D02*
X059600Y054820D01*
X059600Y057820D02*
X059600Y058380D01*
X058600Y058380D02*
X058600Y057820D01*
X057600Y057820D02*
X057600Y058380D01*
X056600Y058380D02*
X056600Y057820D01*
X055600Y057820D02*
X055600Y058380D01*
X054600Y058380D02*
X054600Y057820D01*
X053600Y057820D02*
X053600Y058380D01*
X052600Y058380D02*
X052600Y057820D01*
X051600Y057820D02*
X051600Y058380D01*
X050600Y058380D02*
X050600Y057820D01*
X049600Y057820D02*
X049600Y058380D01*
X048600Y058380D02*
X048600Y057820D01*
X047600Y057820D02*
X047600Y058380D01*
X046600Y058380D02*
X046600Y057820D01*
X046100Y059320D02*
X046100Y059880D01*
X047100Y059880D02*
X047100Y059320D01*
X048100Y059320D02*
X048100Y059880D01*
X049100Y059880D02*
X049100Y059320D01*
X050100Y059320D02*
X050100Y059880D01*
X051100Y059880D02*
X051100Y059320D01*
X043380Y058600D02*
X042820Y058600D01*
X042820Y057100D02*
X043380Y057100D01*
X039380Y057100D02*
X038820Y057100D01*
X038820Y058600D02*
X039380Y058600D01*
X037880Y050600D02*
X037320Y050600D01*
X037320Y049600D02*
X037880Y049600D01*
X037880Y048600D02*
X037320Y048600D01*
X037320Y047600D02*
X037880Y047600D01*
X037880Y046600D02*
X037320Y046600D01*
X037320Y045600D02*
X037880Y045600D01*
X037880Y044600D02*
X037320Y044600D01*
X037320Y043600D02*
X037880Y043600D01*
X037880Y042600D02*
X037320Y042600D01*
X037320Y041600D02*
X037880Y041600D01*
X037880Y040600D02*
X037320Y040600D01*
X037320Y039600D02*
X037880Y039600D01*
X037880Y038600D02*
X037320Y038600D01*
X037320Y037600D02*
X037880Y037600D01*
X037880Y036600D02*
X037320Y036600D01*
X037320Y035600D02*
X037880Y035600D01*
X037880Y034600D02*
X037320Y034600D01*
X037320Y033600D02*
X037880Y033600D01*
X037880Y032600D02*
X037320Y032600D01*
X037320Y031600D02*
X037880Y031600D01*
X037880Y028600D02*
X037320Y028600D01*
X037320Y027600D02*
X037880Y027600D01*
X037880Y026600D02*
X037320Y026600D01*
X037320Y025600D02*
X037880Y025600D01*
X037880Y024600D02*
X037320Y024600D01*
X037320Y023600D02*
X037880Y023600D01*
X037880Y022600D02*
X037320Y022600D01*
X037320Y021600D02*
X037880Y021600D01*
X037880Y020600D02*
X037320Y020600D01*
X037320Y019600D02*
X037880Y019600D01*
X037880Y018600D02*
X037320Y018600D01*
X037320Y017600D02*
X037880Y017600D01*
X037880Y016600D02*
X037320Y016600D01*
X037320Y015600D02*
X037880Y015600D01*
X037880Y014600D02*
X037320Y014600D01*
X037320Y013600D02*
X037880Y013600D01*
X037880Y012600D02*
X037320Y012600D01*
X037320Y011600D02*
X037880Y011600D01*
X037880Y010600D02*
X037320Y010600D01*
X037320Y009600D02*
X037880Y009600D01*
X045100Y006380D02*
X045100Y005820D01*
X046100Y005820D02*
X046100Y006380D01*
X047100Y006380D02*
X047100Y005820D01*
X048100Y005820D02*
X048100Y006380D01*
X049100Y006380D02*
X049100Y005820D01*
X050100Y005820D02*
X050100Y006380D01*
X051100Y006380D02*
X051100Y005820D01*
X052100Y005820D02*
X052100Y006380D01*
X052100Y003380D02*
X052100Y002820D01*
X051100Y002820D02*
X051100Y003380D01*
X050100Y003380D02*
X050100Y002820D01*
X049100Y002820D02*
X049100Y003380D01*
X048100Y003380D02*
X048100Y002820D01*
X047100Y002820D02*
X047100Y003380D01*
X046100Y003380D02*
X046100Y002820D01*
X045100Y002820D02*
X045100Y003380D01*
X056100Y003380D02*
X056100Y002820D01*
X057100Y002820D02*
X057100Y003380D01*
X058100Y003380D02*
X058100Y002820D01*
X059100Y002820D02*
X059100Y003380D01*
X060100Y003380D02*
X060100Y002820D01*
X061100Y002820D02*
X061100Y003380D01*
X062100Y003380D02*
X062100Y002820D01*
X062100Y005820D02*
X062100Y006380D01*
X061100Y006380D02*
X061100Y005820D01*
X060100Y005820D02*
X060100Y006380D01*
X060100Y007320D02*
X060100Y007880D01*
X061100Y007880D02*
X061100Y007320D01*
X059100Y007320D02*
X059100Y007880D01*
X058100Y007880D02*
X058100Y007320D01*
X058100Y006380D02*
X058100Y005820D01*
X059100Y005820D02*
X059100Y006380D01*
X057100Y006380D02*
X057100Y005820D01*
X056100Y005820D02*
X056100Y006380D01*
X056100Y007320D02*
X056100Y007880D01*
X057100Y007880D02*
X057100Y007320D01*
X052380Y018600D02*
X051820Y018600D01*
X051820Y020100D02*
X052380Y020100D01*
X052380Y021100D02*
X051820Y021100D01*
X051820Y022100D02*
X052380Y022100D01*
X052380Y023100D02*
X051820Y023100D01*
X051820Y024100D02*
X052380Y024100D01*
X052380Y025100D02*
X051820Y025100D01*
X051820Y026100D02*
X052380Y026100D01*
X052380Y027100D02*
X051820Y027100D01*
X049380Y027100D02*
X048820Y027100D01*
X048820Y026100D02*
X049380Y026100D01*
X049380Y025100D02*
X048820Y025100D01*
X048820Y024100D02*
X049380Y024100D01*
X049380Y023100D02*
X048820Y023100D01*
X048820Y022100D02*
X049380Y022100D01*
X049380Y021100D02*
X048820Y021100D01*
X048820Y020100D02*
X049380Y020100D01*
X048380Y018600D02*
X047820Y018600D01*
X048820Y031600D02*
X049380Y031600D01*
X049380Y032600D02*
X048820Y032600D01*
X048820Y033600D02*
X049380Y033600D01*
X049380Y034600D02*
X048820Y034600D01*
X048820Y035600D02*
X049380Y035600D01*
X049380Y036600D02*
X048820Y036600D01*
X048820Y037600D02*
X049380Y037600D01*
X049380Y038600D02*
X048820Y038600D01*
X048820Y039600D02*
X049380Y039600D01*
X049380Y040600D02*
X048820Y040600D01*
X048820Y041600D02*
X049380Y041600D01*
X049380Y042600D02*
X048820Y042600D01*
X048820Y043600D02*
X049380Y043600D01*
X049380Y044600D02*
X048820Y044600D01*
X048820Y045600D02*
X049380Y045600D01*
X049380Y046600D02*
X048820Y046600D01*
X048820Y047600D02*
X049380Y047600D01*
X049380Y048600D02*
X048820Y048600D01*
X048820Y049600D02*
X049380Y049600D01*
X049380Y050600D02*
X048820Y050600D01*
X054820Y050600D02*
X055380Y050600D01*
X055380Y049600D02*
X054820Y049600D01*
X054820Y048600D02*
X055380Y048600D01*
X055380Y047600D02*
X054820Y047600D01*
X054820Y046600D02*
X055380Y046600D01*
X055380Y045600D02*
X054820Y045600D01*
X054820Y044600D02*
X055380Y044600D01*
X055380Y043600D02*
X054820Y043600D01*
X054820Y042600D02*
X055380Y042600D01*
X055380Y041600D02*
X054820Y041600D01*
X054820Y040600D02*
X055380Y040600D01*
X055380Y039600D02*
X054820Y039600D01*
X054820Y038600D02*
X055380Y038600D01*
X055380Y037600D02*
X054820Y037600D01*
X054820Y036600D02*
X055380Y036600D01*
X055380Y035600D02*
X054820Y035600D01*
X054820Y034600D02*
X055380Y034600D01*
X055380Y033600D02*
X054820Y033600D01*
X054820Y032600D02*
X055380Y032600D01*
X055380Y031600D02*
X054820Y031600D01*
X014880Y031600D02*
X014320Y031600D01*
X014320Y032600D02*
X014880Y032600D01*
X014880Y033600D02*
X014320Y033600D01*
X014320Y034600D02*
X014880Y034600D01*
X014880Y035600D02*
X014320Y035600D01*
X014320Y036600D02*
X014880Y036600D01*
X014880Y037600D02*
X014320Y037600D01*
X014320Y038600D02*
X014880Y038600D01*
X014880Y028600D02*
X014320Y028600D01*
X014320Y027600D02*
X014880Y027600D01*
X014880Y026600D02*
X014320Y026600D01*
X014320Y025600D02*
X014880Y025600D01*
X014880Y024600D02*
X014320Y024600D01*
X014320Y023600D02*
X014880Y023600D01*
X014880Y022600D02*
X014320Y022600D01*
X014320Y021600D02*
X014880Y021600D01*
X014880Y020600D02*
X014320Y020600D01*
X014320Y019600D02*
X014880Y019600D01*
X014880Y018600D02*
X014320Y018600D01*
X014320Y017600D02*
X014880Y017600D01*
X014880Y016600D02*
X014320Y016600D01*
X014320Y015600D02*
X014880Y015600D01*
X014880Y014600D02*
X014320Y014600D01*
X014320Y013600D02*
X014880Y013600D01*
X014880Y012600D02*
X014320Y012600D01*
X014320Y011600D02*
X014880Y011600D01*
X014880Y010600D02*
X014320Y010600D01*
X014320Y009600D02*
X014880Y009600D01*
X002880Y010600D02*
X002320Y010600D01*
X002320Y011600D02*
X002880Y011600D01*
X002880Y012600D02*
X002320Y012600D01*
X002320Y013600D02*
X002880Y013600D01*
X002880Y014600D02*
X002320Y014600D01*
X002320Y015600D02*
X002880Y015600D01*
X002880Y016600D02*
X002320Y016600D01*
X002320Y017600D02*
X002880Y017600D01*
X002880Y018600D02*
X002320Y018600D01*
X002320Y019600D02*
X002880Y019600D01*
X002880Y020600D02*
X002320Y020600D01*
X002320Y021600D02*
X002880Y021600D01*
X002880Y024600D02*
X002320Y024600D01*
X002320Y025600D02*
X002880Y025600D01*
X002880Y026600D02*
X002320Y026600D01*
X002320Y027600D02*
X002880Y027600D01*
X002880Y028600D02*
X002320Y028600D01*
X002320Y029600D02*
X002880Y029600D01*
X002880Y030600D02*
X002320Y030600D01*
X002320Y031600D02*
X002880Y031600D01*
X002880Y032600D02*
X002320Y032600D01*
X002320Y033600D02*
X002880Y033600D01*
X002880Y034600D02*
X002320Y034600D01*
X002320Y035600D02*
X002880Y035600D01*
D11*
X005100Y047100D03*
X005100Y050100D03*
X008100Y050100D03*
X008100Y047100D03*
X031100Y054100D03*
X032100Y054100D03*
X033100Y054100D03*
X034100Y054100D03*
X034100Y057100D03*
X033100Y057100D03*
X032100Y057100D03*
X031100Y057100D03*
X049650Y029100D03*
X051550Y029100D03*
X058600Y037100D03*
X058600Y038100D03*
X058600Y039100D03*
X058600Y040100D03*
X061600Y040100D03*
X061600Y039100D03*
X061600Y038100D03*
X061600Y037100D03*
D12*
X063100Y036600D03*
X064600Y036600D03*
X064600Y040600D03*
X063100Y040600D03*
X056600Y038600D03*
X056600Y036600D03*
X057100Y030100D03*
X055600Y030100D03*
X053600Y027100D03*
X053600Y025100D03*
X055600Y026100D03*
X057100Y026100D03*
X056600Y023100D03*
X055600Y023100D03*
X053600Y022100D03*
X053600Y020100D03*
X055600Y020600D03*
X056600Y020600D03*
X056600Y018100D03*
X055600Y018100D03*
X054100Y015600D03*
X052100Y015600D03*
X052100Y017100D03*
X048100Y017100D03*
X048100Y015600D03*
X045100Y016600D03*
X045100Y018600D03*
X047600Y024100D03*
X047600Y026100D03*
X058100Y015600D03*
X054600Y006100D03*
X054600Y004100D03*
X052600Y001600D03*
X056600Y001600D03*
X043600Y004100D03*
X043600Y006100D03*
X036100Y009600D03*
X036100Y011600D03*
X036100Y016600D03*
X036100Y018600D03*
X033600Y020600D03*
X033600Y022600D03*
X022100Y026600D03*
X022100Y028600D03*
X022100Y036600D03*
X022100Y038600D03*
X033600Y038100D03*
X033600Y036100D03*
X045100Y041600D03*
X045100Y043600D03*
X052100Y053600D03*
X054100Y053600D03*
X054600Y059600D03*
X052600Y059600D03*
X043100Y060100D03*
X039100Y060100D03*
X037600Y060100D03*
X037100Y058600D03*
X035600Y060100D03*
X034600Y060100D03*
X033100Y058600D03*
X031600Y058600D03*
X031600Y060100D03*
X032600Y060100D03*
X032100Y061600D03*
X033100Y061600D03*
X030100Y061600D03*
X029100Y061600D03*
X027600Y060100D03*
X027600Y058600D03*
X029600Y056600D03*
X029600Y054600D03*
X033600Y051600D03*
X033600Y049600D03*
X035600Y054600D03*
X035600Y056600D03*
X037100Y061600D03*
X027100Y061600D03*
X011100Y060100D03*
X009600Y059600D03*
X009600Y058100D03*
X011100Y058100D03*
X009600Y055100D03*
X009600Y053600D03*
X005600Y053600D03*
X005600Y055100D03*
X003600Y053600D03*
X003600Y057600D03*
X003600Y058850D03*
X003100Y059600D03*
X004100Y059600D03*
X005600Y059600D03*
X005600Y058100D03*
X005100Y061100D03*
X007100Y061100D03*
X007600Y045100D03*
X005600Y045100D03*
X007600Y038600D03*
X009600Y038600D03*
X010100Y035600D03*
X010100Y033600D03*
X010600Y021600D03*
X010600Y019600D03*
X013600Y006100D03*
X013600Y004100D03*
X003600Y006100D03*
X001600Y006100D03*
X023600Y006100D03*
X023600Y004100D03*
X026600Y001600D03*
X030600Y001600D03*
X033100Y001600D03*
X033100Y002600D03*
X033600Y004100D03*
X033600Y006100D03*
D13*
X008100Y061100D03*
D14*
X009100Y061100D03*
D15*
X012600Y063100D03*
X012600Y064100D03*
X013600Y064100D03*
X013600Y063100D03*
X014600Y063100D03*
X014600Y064100D03*
X015600Y064100D03*
X015600Y063100D03*
X016600Y063100D03*
X016600Y064100D03*
X017600Y064100D03*
X017600Y063100D03*
X018600Y063100D03*
X018600Y064100D03*
X019600Y064100D03*
X019600Y063100D03*
X020600Y063100D03*
X020600Y064100D03*
X021600Y064100D03*
X021600Y063100D03*
X022600Y063100D03*
X022600Y064100D03*
X023600Y064100D03*
X023600Y063100D03*
X024600Y063100D03*
X024600Y064100D03*
X047600Y064100D03*
X047600Y063100D03*
X048600Y063100D03*
X048600Y064100D03*
X049600Y064100D03*
X049600Y063100D03*
X050600Y063100D03*
X050600Y064100D03*
X051600Y064100D03*
X051600Y063100D03*
X052600Y063100D03*
X052600Y064100D03*
X053600Y064100D03*
X053600Y063100D03*
X054600Y063100D03*
X054600Y064100D03*
X055600Y064100D03*
X055600Y063100D03*
X056600Y063100D03*
X056600Y064100D03*
X057600Y064100D03*
X057600Y063100D03*
X058600Y063100D03*
X058600Y064100D03*
X059600Y064100D03*
X059600Y063100D03*
D16*
X063100Y060420D02*
X063100Y059780D01*
X065100Y059780D02*
X065100Y060420D01*
X048990Y013700D02*
X048990Y013060D01*
X047210Y013060D02*
X047210Y013700D01*
X047210Y011140D02*
X047210Y010500D01*
X047600Y008920D02*
X047600Y008280D01*
X048600Y008280D02*
X048600Y008920D01*
X048990Y010500D02*
X048990Y011140D01*
D17*
X037187Y062893D02*
X037187Y063759D01*
X035533Y066475D02*
X034667Y066475D01*
X031687Y063759D02*
X031687Y062893D01*
X030033Y066475D02*
X029167Y066475D01*
X009687Y063759D02*
X009687Y062893D01*
X008033Y066475D02*
X007167Y066475D01*
D18*
X057600Y060600D03*
X057600Y059600D03*
X058600Y059600D03*
X058600Y060600D03*
X059600Y060600D03*
X059600Y059600D03*
D19*
X056069Y011600D03*
X052131Y011600D03*
D20*
X044757Y065535D02*
X044757Y066235D01*
X042450Y066200D02*
X041750Y066200D01*
X039443Y066235D02*
X039443Y065535D01*
D21*
X040761Y064704D03*
X041588Y064704D03*
X042612Y064704D03*
X043439Y064704D03*
X043439Y063719D03*
X040761Y063719D03*
D22*
X062460Y063456D02*
X062460Y064244D01*
X063956Y065031D02*
X064744Y065031D01*
X064744Y062630D02*
X063956Y062630D01*
D23*
X062100Y057600D03*
X066100Y057600D03*
D24*
X065600Y043377D02*
X065600Y042823D01*
X064600Y042823D02*
X064600Y043377D01*
X063600Y043377D02*
X063600Y042823D01*
X062600Y042823D02*
X062600Y043377D01*
X060600Y043377D02*
X060600Y042823D01*
X059600Y042823D02*
X059600Y043377D01*
X058600Y043377D02*
X058600Y042823D01*
X059323Y034600D02*
X059877Y034600D01*
X059877Y033600D02*
X059323Y033600D01*
X059323Y032600D02*
X059877Y032600D01*
X065323Y032600D02*
X065877Y032600D01*
X065877Y033600D02*
X065323Y033600D01*
X065323Y026600D02*
X065877Y026600D01*
X065877Y024600D02*
X065323Y024600D01*
X065323Y020100D02*
X065877Y020100D01*
X065877Y019100D02*
X065323Y019100D01*
X059877Y019100D02*
X059323Y019100D01*
X059323Y020100D02*
X059877Y020100D01*
X059877Y021100D02*
X059323Y021100D01*
X059323Y024600D02*
X059877Y024600D01*
X065323Y013100D02*
X065877Y013100D01*
X065877Y011100D02*
X065323Y011100D01*
X059877Y011100D02*
X059323Y011100D01*
D25*
X063100Y050600D03*
D26*
X063100Y048600D03*
D27*
X061600Y049100D03*
D28*
X064600Y049100D03*
D29*
X063100Y050600D01*
X066121Y053621D01*
X066121Y057579D01*
X066100Y057600D01*
X065100Y058600D01*
X065100Y060100D01*
X063494Y061060D02*
X064350Y061916D01*
X064350Y062630D01*
X064350Y064317D02*
X063641Y064317D01*
X063174Y063850D01*
X062460Y063850D01*
X064350Y064317D02*
X064350Y065031D01*
X063494Y061060D02*
X063100Y061060D01*
X063100Y060100D01*
X062100Y058100D02*
X062100Y057600D01*
X061600Y057100D01*
X061600Y050040D01*
X061600Y049100D01*
X063100Y048600D02*
X063100Y047780D01*
X063100Y044475D01*
X063600Y043975D01*
X063600Y043100D01*
X063100Y044475D02*
X061100Y044475D01*
X060600Y043975D01*
X060600Y043100D01*
X060600Y042225D01*
X058600Y042225D01*
X056600Y040225D01*
X056600Y038600D01*
X058600Y038100D02*
X058600Y037100D01*
X058600Y034163D01*
X059163Y033600D01*
X059163Y032600D01*
X058725Y032600D01*
X058725Y032325D01*
X057100Y030700D01*
X057100Y030100D01*
X056475Y027886D02*
X056475Y023825D01*
X056600Y023700D01*
X056600Y023100D01*
X055600Y021200D02*
X055600Y020600D01*
X055600Y021200D02*
X054200Y022600D01*
X054200Y025900D01*
X053600Y026500D01*
X053600Y027100D01*
X053600Y025100D02*
X053600Y022100D01*
X053600Y021500D01*
X055107Y019993D01*
X058725Y019993D01*
X058725Y019756D01*
X059381Y019100D01*
X059600Y019100D01*
X059381Y019100D02*
X059381Y016841D01*
X058741Y016841D01*
X058100Y016200D01*
X058100Y015600D01*
X059381Y016841D02*
X060984Y016841D01*
X064725Y013100D01*
X065600Y013100D01*
X065600Y019100D02*
X066475Y019100D01*
X066475Y020100D01*
X066475Y032600D01*
X065600Y032600D01*
X066475Y032600D02*
X066475Y033600D01*
X065600Y033600D01*
X064000Y035411D02*
X056475Y027886D01*
X059163Y032600D02*
X059600Y032600D01*
X059600Y033600D02*
X059163Y033600D01*
X064000Y035411D02*
X064000Y039400D01*
X064600Y040000D01*
X064600Y040600D01*
X058600Y042225D02*
X058600Y042355D01*
X058600Y043100D01*
X051951Y046571D02*
X051951Y050851D01*
X054100Y053000D01*
X054100Y053600D01*
X054100Y054200D01*
X054080Y054220D01*
X053600Y054220D01*
X053600Y055100D01*
X052600Y055100D02*
X052600Y055980D01*
X053360Y055980D01*
X054600Y057220D01*
X054600Y058100D01*
X053600Y058980D02*
X054000Y059380D01*
X054000Y059600D01*
X054600Y059600D01*
X053600Y058980D02*
X053600Y058100D01*
X052600Y058100D02*
X052600Y059600D01*
X052600Y055100D02*
X052600Y054980D01*
X052600Y054220D01*
X052120Y054220D01*
X052100Y054200D01*
X052100Y053600D01*
X051951Y046571D02*
X049980Y044600D01*
X049100Y044600D01*
X038480Y033600D02*
X037910Y033600D01*
X037600Y033600D01*
X036720Y033600D01*
X036720Y035600D01*
X037600Y035600D01*
X038480Y033600D02*
X038480Y032600D01*
X038480Y031600D01*
X037600Y031600D01*
X037600Y032600D02*
X038480Y032600D01*
X035736Y028811D02*
X035736Y053831D01*
X035584Y053984D01*
X034216Y053984D01*
X034100Y054100D01*
X033100Y054100D02*
X032990Y053990D01*
X032990Y050810D01*
X033600Y050200D01*
X033600Y049600D01*
X034200Y050400D02*
X033600Y051000D01*
X033600Y051600D01*
X034200Y050400D02*
X034200Y042820D01*
X032980Y041600D01*
X032100Y041600D01*
X032100Y038100D02*
X032320Y038100D01*
X032320Y037100D01*
X032990Y036430D01*
X032990Y035705D01*
X034182Y034513D01*
X034182Y030415D01*
X033949Y030182D01*
X033949Y023549D01*
X033600Y023200D01*
X033600Y022900D01*
X033600Y022600D01*
X033600Y022000D01*
X034723Y020877D01*
X034723Y012013D01*
X036217Y010519D01*
X036217Y009717D01*
X036100Y009600D01*
X036100Y009000D01*
X035580Y008480D01*
X035100Y008480D01*
X035100Y007600D01*
X033600Y006100D02*
X033600Y005500D01*
X032996Y004896D01*
X032996Y003304D01*
X033100Y003200D01*
X033100Y002600D01*
X026100Y009600D02*
X025220Y009600D01*
X024463Y008843D01*
X024463Y005563D01*
X023600Y004700D01*
X023600Y004100D01*
X023600Y006100D02*
X023000Y006100D01*
X022120Y006980D01*
X019820Y006980D01*
X019775Y006935D01*
X019344Y006935D01*
X019344Y006935D01*
X019336Y006935D01*
X019316Y006955D01*
X019271Y006955D01*
X019246Y006980D01*
X019100Y006980D01*
X019100Y006100D01*
X014600Y009600D02*
X014160Y009600D01*
X009480Y014280D01*
X009480Y017600D01*
X008600Y017600D01*
X009480Y017600D02*
X009480Y017880D01*
X010600Y019000D01*
X010600Y019600D01*
X009480Y019324D02*
X008756Y018600D01*
X008600Y018600D01*
X009480Y019324D02*
X009480Y021600D01*
X010000Y021600D01*
X010600Y021600D01*
X010600Y022200D01*
X010700Y022300D01*
X010700Y034400D01*
X010100Y035000D01*
X010100Y035600D01*
X009490Y034810D02*
X009490Y037890D01*
X009600Y038000D01*
X009600Y038600D01*
X009600Y040100D01*
X008616Y040980D02*
X007600Y040980D01*
X007600Y040100D01*
X007600Y038600D01*
X007600Y038000D01*
X007720Y037880D01*
X007720Y035600D01*
X008600Y035600D01*
X009490Y034810D02*
X010100Y034200D01*
X010100Y033600D01*
X008600Y030600D02*
X007720Y030600D01*
X005928Y028808D01*
X005928Y012308D01*
X002100Y008480D01*
X002100Y007600D01*
X003600Y006100D02*
X004200Y006100D01*
X005100Y006100D01*
X005100Y005220D01*
X012120Y005220D01*
X013000Y006100D01*
X013600Y006100D01*
X014205Y005305D02*
X014205Y009555D01*
X014160Y009600D01*
X014205Y005305D02*
X013600Y004700D01*
X013600Y004100D01*
X009480Y021600D02*
X008600Y021600D01*
X003480Y034600D02*
X002600Y034600D01*
X002600Y035600D02*
X003480Y035600D01*
X003480Y034600D01*
X008616Y040980D02*
X010213Y042577D01*
X010213Y043631D01*
X008022Y045822D01*
X008100Y045900D01*
X008100Y047100D01*
X008100Y048500D01*
X003600Y053000D01*
X003600Y053600D01*
X005100Y050100D02*
X005701Y049499D01*
X005701Y045801D01*
X005600Y045700D01*
X005600Y045100D01*
X007600Y045100D02*
X007600Y045400D01*
X008022Y045822D01*
X011100Y058100D02*
X011100Y058700D01*
X010450Y059350D01*
X010450Y064061D01*
X011649Y065260D01*
X023440Y065260D01*
X024600Y064100D01*
X025200Y064100D01*
X026420Y062880D01*
X029262Y065722D01*
X029600Y065722D01*
X029600Y066475D01*
X026420Y062880D02*
X027100Y062200D01*
X027100Y061600D01*
X027100Y061000D01*
X027300Y061000D01*
X027600Y060700D01*
X027600Y060100D01*
X027571Y059491D02*
X029600Y057461D01*
X029600Y056600D01*
X029600Y056000D01*
X030450Y055150D01*
X030450Y052370D01*
X031220Y051600D01*
X032100Y051600D01*
X035584Y053984D02*
X035600Y054000D01*
X035600Y054600D01*
X035600Y056600D02*
X035600Y057200D01*
X036000Y057200D01*
X037100Y058300D01*
X037920Y058300D01*
X038220Y058600D01*
X039100Y058600D01*
X037100Y058600D02*
X037100Y058300D01*
X036153Y062502D02*
X036153Y063816D01*
X036870Y064533D01*
X039392Y064533D01*
X040232Y065374D01*
X042894Y065374D01*
X043439Y064830D01*
X043439Y064704D01*
X036153Y062502D02*
X032350Y058699D01*
X032350Y057927D01*
X032100Y057677D01*
X032100Y057100D01*
X032600Y060100D02*
X032600Y060700D01*
X032900Y061000D01*
X033100Y061000D01*
X033100Y061600D01*
X027571Y059491D02*
X027361Y059491D01*
X024600Y062251D01*
X024600Y063100D01*
X025600Y054100D02*
X025600Y053220D01*
X026100Y052720D01*
X026100Y051600D01*
X026100Y050975D01*
X025725Y050600D01*
X025220Y050095D01*
X025220Y040600D01*
X026100Y040600D01*
X022100Y038600D02*
X022100Y038000D01*
X021490Y037390D01*
X021490Y027810D01*
X022100Y027200D01*
X022100Y026600D01*
X022100Y028600D02*
X022100Y036600D01*
X032100Y037100D02*
X032320Y037100D01*
X032320Y038100D02*
X033000Y038100D01*
X033600Y038100D01*
X035736Y028811D02*
X035726Y028802D01*
X035726Y019574D01*
X036100Y019200D01*
X036100Y018900D01*
X036420Y018900D01*
X036720Y018600D01*
X037600Y018600D01*
X036100Y018600D02*
X036100Y018900D01*
X034190Y019410D02*
X033600Y020000D01*
X033600Y020600D01*
X034190Y019410D02*
X034190Y016600D01*
X036100Y016600D02*
X036100Y016000D01*
X036100Y015600D01*
X036720Y015600D01*
X037600Y015600D01*
X036100Y015600D02*
X036100Y011600D01*
X048220Y019851D02*
X048990Y019081D01*
X048990Y013380D01*
X048990Y010820D02*
X048990Y009860D01*
X048690Y009560D01*
X048600Y009560D01*
X048600Y008600D01*
X052131Y011600D02*
X053480Y010251D01*
X053480Y005820D01*
X054600Y004700D01*
X054600Y004100D01*
X054600Y006100D02*
X055200Y006100D01*
X055200Y006330D01*
X055850Y006980D01*
X056100Y006980D01*
X056100Y006100D01*
X056100Y006980D02*
X056100Y007600D01*
X056100Y009657D01*
X052100Y013657D01*
X052100Y015600D01*
X052100Y017100D01*
X052100Y018600D01*
X053600Y019500D02*
X055000Y018100D01*
X055600Y018100D01*
X053600Y019500D02*
X053600Y020100D01*
X052980Y020100D01*
X052100Y020100D01*
X049100Y020100D02*
X048220Y020100D01*
X048220Y019851D01*
X058725Y019993D02*
X058725Y020100D01*
X059600Y020100D01*
X059600Y021100D02*
X060475Y021100D01*
X063975Y024600D01*
X065600Y024600D01*
X065600Y020100D02*
X066345Y020100D01*
X066475Y020100D01*
X052100Y003100D02*
X052100Y002220D01*
X049100Y002220D01*
X049100Y003100D01*
X026100Y050600D02*
X025725Y050600D01*
X010450Y064061D02*
X008036Y066475D01*
X007600Y066475D01*
X059600Y064100D02*
X060238Y063462D01*
X060238Y061878D01*
X059600Y061240D01*
X059600Y060600D01*
X062100Y058100D01*
D30*
X064081Y058052D03*
X061005Y053821D03*
X059207Y052205D03*
X052902Y049059D03*
X051977Y052205D03*
X052030Y057345D03*
X056123Y060457D03*
X048101Y062683D03*
X046730Y063525D03*
X045835Y054053D03*
X046371Y053630D03*
X045564Y051666D03*
X046530Y044895D03*
X046513Y042119D03*
X046726Y040035D03*
X044504Y039206D03*
X047800Y035452D03*
X044290Y034150D03*
X043783Y029729D03*
X037446Y029201D03*
X034976Y029126D03*
X034709Y029867D03*
X033190Y027350D03*
X034582Y027100D03*
X034464Y022140D03*
X036246Y021750D03*
X040482Y017565D03*
X038970Y014481D03*
X042508Y012121D03*
X041980Y005476D03*
X035697Y010140D03*
X035343Y012162D03*
X034080Y014600D03*
X034190Y016600D03*
X030738Y017299D03*
X028826Y018620D03*
X029956Y020196D03*
X029123Y020907D03*
X029506Y021733D03*
X028437Y023239D03*
X025364Y020183D03*
X024358Y018915D03*
X024439Y017599D03*
X022214Y017242D03*
X019179Y017009D03*
X017651Y016130D03*
X018739Y011768D03*
X016620Y011318D03*
X016749Y009002D03*
X019551Y007477D03*
X017834Y004826D03*
X020871Y001425D03*
X023107Y006734D03*
X027845Y012565D03*
X030082Y011791D03*
X030071Y009692D03*
X029192Y008851D03*
X019309Y024820D03*
X018359Y024750D03*
X024016Y027858D03*
X024803Y027533D03*
X027527Y027075D03*
X023379Y035702D03*
X018998Y037649D03*
X016536Y037078D03*
X016964Y036077D03*
X017350Y035153D03*
X012839Y031210D03*
X004094Y023026D03*
X011777Y021428D03*
X011296Y008131D03*
X011539Y006928D03*
X036368Y042171D03*
X035017Y046484D03*
X041810Y043770D03*
X022684Y057924D03*
X017473Y049479D03*
D31*
X001387Y007007D02*
X004073Y004320D01*
X004823Y004320D01*
X005600Y003543D01*
X005600Y002642D01*
X006149Y002093D01*
X007520Y002093D01*
X008100Y002674D01*
X008100Y003100D01*
X008100Y002674D02*
X008416Y002358D01*
X013337Y002358D01*
X015592Y004614D01*
X016927Y004614D01*
X017519Y005206D01*
X018146Y005206D01*
X018562Y005623D01*
X018562Y010201D01*
X018359Y010405D01*
X018359Y017099D01*
X019860Y018600D01*
X020600Y018600D01*
X020600Y017600D02*
X019860Y017600D01*
X019269Y017009D01*
X019179Y017009D01*
X020169Y016100D02*
X018739Y014670D01*
X018739Y011768D01*
X019551Y012483D02*
X019551Y007477D01*
X018100Y006840D02*
X018100Y006100D01*
X018074Y006100D01*
X017326Y005352D01*
X015879Y005352D01*
X013921Y003394D01*
X012334Y003394D01*
X011888Y003840D01*
X010100Y003840D01*
X010100Y003100D01*
X009100Y003100D02*
X009100Y003840D01*
X007909Y003840D01*
X007600Y003531D01*
X007600Y002641D01*
X007293Y002333D01*
X006932Y002333D01*
X006610Y002655D01*
X006610Y003529D01*
X005579Y004560D01*
X004209Y004560D01*
X001627Y007143D01*
X001627Y008544D01*
X005201Y012118D01*
X005201Y036543D01*
X007060Y038403D01*
X007060Y040981D01*
X008439Y042360D01*
X008600Y042360D01*
X008600Y043100D01*
X008100Y042668D02*
X008100Y043531D01*
X008417Y043848D01*
X008852Y043848D01*
X009600Y043100D01*
X008100Y042668D02*
X006100Y040668D01*
X006100Y038458D01*
X004721Y037079D01*
X004721Y012781D01*
X003040Y011100D01*
X002168Y011100D01*
X001387Y010319D01*
X001387Y007007D01*
X005100Y003100D02*
X005100Y002360D01*
X006830Y000630D01*
X041308Y000630D01*
X041568Y000890D01*
X041808Y000650D01*
X057601Y000650D01*
X059560Y002609D01*
X059560Y006591D01*
X059291Y006860D01*
X059100Y006860D01*
X059100Y007600D01*
X058100Y007600D02*
X058100Y006100D01*
X057100Y006100D02*
X057100Y007600D01*
X060100Y007600D02*
X060100Y006100D01*
X061100Y006100D02*
X061100Y007600D01*
X059100Y003100D02*
X056890Y000890D01*
X046025Y000890D01*
X041980Y004935D01*
X041980Y005476D01*
X041980Y005476D01*
X041568Y006693D02*
X041568Y000890D01*
X040571Y002620D02*
X038828Y000878D01*
X030234Y000878D01*
X028600Y002512D01*
X028600Y003531D01*
X028291Y003840D01*
X027100Y003840D01*
X027100Y003100D01*
X028100Y003100D02*
X028100Y002360D01*
X026785Y001044D01*
X016415Y001044D01*
X015100Y002360D01*
X015100Y003100D01*
X013789Y003636D02*
X014640Y004487D01*
X014640Y007474D01*
X015341Y008175D01*
X015341Y010793D01*
X015034Y011100D01*
X014167Y011100D01*
X013350Y011917D01*
X013350Y019090D01*
X013860Y019600D01*
X014600Y019600D01*
X015038Y019100D02*
X014158Y019100D01*
X013599Y018541D01*
X013599Y012659D01*
X014158Y012100D01*
X015040Y012100D01*
X016749Y010391D01*
X016749Y009002D01*
X017010Y009279D02*
X017010Y020701D01*
X018929Y022620D01*
X018929Y024978D01*
X019551Y025600D01*
X019860Y025600D01*
X020600Y025600D01*
X019678Y026070D02*
X018359Y024750D01*
X019309Y024820D02*
X019309Y022640D01*
X017250Y020581D01*
X017250Y009378D01*
X018100Y008528D01*
X018100Y006840D01*
X017129Y006869D02*
X017129Y009159D01*
X017010Y009279D01*
X016620Y011318D02*
X016620Y023806D01*
X019860Y027046D01*
X019860Y036860D01*
X020600Y037600D01*
X019860Y037295D02*
X019860Y038860D01*
X020600Y039600D01*
X020151Y040100D02*
X021340Y040100D01*
X021340Y041600D01*
X020600Y041600D01*
X019860Y041365D02*
X019860Y042600D01*
X020600Y042600D01*
X020720Y042600D01*
X021340Y042600D01*
X024287Y039653D01*
X024287Y028586D01*
X025360Y027514D01*
X025360Y026100D01*
X026100Y026100D01*
X025360Y026100D02*
X023576Y024316D01*
X023576Y012384D01*
X025360Y010600D01*
X026100Y010600D01*
X026100Y011600D02*
X025360Y011600D01*
X023816Y013144D01*
X023816Y021952D01*
X026261Y024398D01*
X026328Y024398D01*
X026840Y024909D01*
X026840Y026291D01*
X026031Y027100D01*
X026100Y027100D01*
X026031Y027100D02*
X026031Y027182D01*
X024528Y028686D01*
X024528Y039752D01*
X021340Y042940D01*
X021340Y043600D01*
X020600Y043600D01*
X020600Y044600D02*
X021340Y044600D01*
X021997Y043943D01*
X021997Y042622D01*
X024768Y039852D01*
X024768Y029432D01*
X026100Y028100D01*
X026220Y028100D01*
X026840Y028100D01*
X026840Y026717D01*
X027080Y026477D01*
X027080Y024810D01*
X026343Y024073D01*
X026279Y024073D01*
X024358Y022151D01*
X024358Y018915D01*
X024056Y018613D01*
X024056Y013904D01*
X025360Y012600D01*
X026100Y012600D01*
X025603Y013139D02*
X027828Y013139D01*
X028233Y012734D01*
X028233Y006973D01*
X028100Y006840D01*
X028100Y006100D01*
X027610Y006523D02*
X027610Y005530D01*
X029600Y003540D01*
X029600Y002663D01*
X030163Y002100D01*
X033933Y002100D01*
X034434Y001599D01*
X038557Y001599D01*
X039566Y002608D01*
X039566Y024409D01*
X041453Y026297D01*
X041453Y028615D01*
X043443Y030606D01*
X043543Y030606D01*
X044340Y031403D01*
X044340Y034101D01*
X044290Y034150D01*
X043600Y033600D02*
X042860Y033600D01*
X040267Y031007D01*
X040267Y027527D01*
X038340Y025600D01*
X037600Y025600D01*
X037600Y024600D02*
X038340Y024600D01*
X040507Y026767D01*
X040507Y030247D01*
X042860Y032600D01*
X043600Y032600D01*
X043600Y031600D02*
X042860Y031600D01*
X040895Y029635D01*
X040895Y026155D01*
X038340Y023600D01*
X037600Y023600D01*
X037177Y023065D02*
X038071Y023065D01*
X038838Y022298D01*
X038838Y014887D01*
X038588Y014637D01*
X038588Y005328D01*
X037100Y003840D01*
X037100Y003100D01*
X037100Y002980D01*
X037100Y002360D01*
X034906Y002360D01*
X034561Y002705D01*
X034561Y006493D01*
X033658Y007396D01*
X033370Y007396D01*
X031100Y009666D01*
X031100Y013551D01*
X031648Y014100D01*
X032531Y014100D01*
X032840Y014409D01*
X032840Y016600D01*
X032100Y016600D01*
X032548Y017100D02*
X032842Y017394D01*
X032842Y017810D01*
X032552Y018100D01*
X031661Y018100D01*
X030632Y019129D01*
X030632Y020697D01*
X030392Y020937D01*
X030392Y030132D01*
X031360Y031100D01*
X032100Y031100D01*
X032840Y031100D01*
X032840Y033291D01*
X032571Y033560D01*
X031560Y033560D01*
X028245Y036875D01*
X028245Y043195D01*
X026840Y044600D01*
X026100Y044600D01*
X026100Y046600D02*
X026840Y046600D01*
X029882Y043558D01*
X029882Y035578D01*
X031360Y034100D01*
X032100Y034100D01*
X032371Y034100D01*
X033082Y033389D01*
X033082Y030938D01*
X032840Y030696D01*
X032840Y029898D01*
X032542Y029600D01*
X031648Y029600D01*
X030632Y028584D01*
X030632Y021036D01*
X030872Y020796D01*
X030872Y019537D01*
X031809Y018600D01*
X032100Y018600D01*
X031693Y019065D02*
X031112Y019646D01*
X031112Y020895D01*
X030878Y021129D01*
X030878Y027618D01*
X031360Y028100D01*
X032100Y028100D01*
X032541Y027600D02*
X031653Y027600D01*
X031118Y027065D01*
X031118Y021229D01*
X031352Y020995D01*
X031352Y020348D01*
X032100Y019600D01*
X031693Y019065D02*
X032567Y019065D01*
X033082Y018549D01*
X033082Y012842D01*
X032840Y012600D01*
X032100Y012600D01*
X033336Y011895D02*
X033336Y018635D01*
X032840Y019131D01*
X032840Y025100D01*
X032100Y025100D01*
X032100Y026100D02*
X032840Y026100D01*
X033080Y025860D01*
X033080Y019718D01*
X033576Y019222D01*
X033576Y011336D01*
X032840Y010600D01*
X032100Y010600D01*
X032541Y011100D02*
X031649Y011100D01*
X031340Y010791D01*
X031340Y010360D01*
X032100Y009600D01*
X030738Y009665D02*
X030738Y017299D01*
X031360Y017600D02*
X030343Y018617D01*
X030343Y020617D01*
X030149Y020810D01*
X030149Y033100D01*
X031360Y033100D01*
X032100Y033100D01*
X033322Y033811D02*
X033322Y030839D01*
X033089Y030606D01*
X033089Y029349D01*
X032840Y029100D01*
X032100Y029100D01*
X033329Y028388D02*
X033329Y030439D01*
X033562Y030672D01*
X033562Y033927D01*
X032389Y035100D01*
X032100Y035100D01*
X031803Y035100D01*
X030362Y036541D01*
X030362Y047806D01*
X031657Y049100D01*
X032547Y049100D01*
X032856Y049408D01*
X032856Y049780D01*
X032573Y050063D01*
X028303Y050063D01*
X026840Y048600D01*
X026100Y048600D01*
X030122Y048362D02*
X030122Y036125D01*
X031648Y034600D01*
X032534Y034600D01*
X033322Y033811D01*
X033802Y034356D02*
X033802Y030573D01*
X033569Y030339D01*
X033569Y027729D01*
X033190Y027350D01*
X033190Y027254D01*
X032536Y026600D01*
X031666Y026600D01*
X031358Y026292D01*
X031358Y021342D01*
X032100Y020600D01*
X034464Y022140D02*
X034976Y022652D01*
X034976Y029126D01*
X035089Y029240D01*
X035089Y038563D01*
X032552Y041100D01*
X031646Y041100D01*
X031348Y041398D01*
X031348Y041812D01*
X031636Y042100D01*
X032545Y042100D01*
X033081Y042636D01*
X033081Y046359D01*
X032840Y046600D01*
X032100Y046600D01*
X032100Y045600D02*
X032840Y045600D01*
X032840Y044408D01*
X032572Y044140D01*
X031694Y044140D01*
X030842Y043288D01*
X030842Y040583D01*
X032654Y038772D01*
X033601Y038772D01*
X034582Y037790D01*
X034582Y030278D01*
X034329Y030024D01*
X034329Y027353D01*
X034582Y027100D01*
X033329Y028388D02*
X032541Y027600D01*
X034709Y029867D02*
X034836Y029994D01*
X034836Y037906D01*
X032869Y039873D01*
X031892Y039873D01*
X031107Y040658D01*
X031107Y042607D01*
X032100Y043600D01*
X032100Y044600D02*
X031360Y044600D01*
X030602Y043842D01*
X030602Y036640D01*
X031677Y035565D01*
X032593Y035565D01*
X033802Y034356D01*
X030149Y034311D02*
X030149Y033100D01*
X029506Y033434D02*
X026840Y036100D01*
X026100Y036100D01*
X026100Y037100D02*
X025360Y037100D01*
X025105Y036845D01*
X025105Y030131D01*
X025672Y029565D01*
X026735Y029565D01*
X027527Y028773D01*
X027527Y027075D01*
X027560Y027042D01*
X027560Y024611D01*
X026840Y023891D01*
X026840Y021600D01*
X026100Y021600D01*
X024851Y022300D02*
X024851Y017464D01*
X024625Y017238D01*
X024625Y014778D01*
X025803Y013600D01*
X026100Y013600D01*
X025678Y014065D02*
X027276Y014065D01*
X028560Y012780D01*
X028560Y007380D01*
X029100Y006840D01*
X029100Y006100D01*
X030100Y006100D02*
X030100Y006840D01*
X030071Y006870D01*
X030071Y009692D01*
X030498Y009556D02*
X030498Y011376D01*
X030082Y011791D01*
X029192Y012562D02*
X029956Y013326D01*
X029956Y020196D01*
X029909Y020243D01*
X029909Y034051D01*
X026840Y037121D01*
X026840Y038320D01*
X024398Y040762D01*
X024398Y043542D01*
X021340Y046600D01*
X020600Y046600D01*
X020600Y047600D02*
X019860Y047600D01*
X019600Y047860D01*
X019600Y051397D01*
X021140Y052937D01*
X021140Y058900D01*
X021600Y059360D01*
X021600Y060100D01*
X022100Y059669D02*
X021900Y059469D01*
X021900Y055140D01*
X021600Y054840D01*
X021600Y054100D01*
X020600Y054100D02*
X020600Y054840D01*
X020600Y059060D01*
X021100Y059560D01*
X021100Y063600D01*
X021600Y064100D01*
X022100Y064324D02*
X021796Y064628D01*
X021128Y064628D01*
X020600Y064100D01*
X020600Y063100D02*
X019717Y062217D01*
X017777Y062217D01*
X016100Y060540D01*
X016100Y059640D01*
X015840Y059380D01*
X015840Y056080D01*
X014600Y054840D01*
X014600Y054100D01*
X014117Y053186D02*
X014117Y055474D01*
X015600Y056956D01*
X015600Y059360D01*
X015600Y060100D01*
X014600Y060100D02*
X014600Y059360D01*
X013138Y057898D01*
X013138Y053369D01*
X015820Y050687D01*
X015820Y041061D01*
X015613Y040854D01*
X015613Y039873D01*
X015340Y039600D01*
X014600Y039600D01*
X014600Y040600D02*
X015340Y040600D01*
X015340Y040920D01*
X015580Y041161D01*
X015580Y050551D01*
X012771Y053360D01*
X012600Y053360D01*
X012600Y054100D01*
X012600Y058140D01*
X014100Y059640D01*
X014100Y061719D01*
X015103Y062723D01*
X015103Y063307D01*
X015397Y063600D01*
X018100Y063600D01*
X018600Y063100D01*
X017600Y064100D02*
X018371Y064871D01*
X022544Y064871D01*
X023103Y064312D01*
X023103Y063872D01*
X023378Y063597D01*
X023828Y063597D01*
X024100Y063325D01*
X024100Y061340D01*
X023600Y060840D01*
X023600Y060100D01*
X022600Y060100D02*
X022600Y059360D01*
X022140Y058900D01*
X022140Y053072D01*
X019860Y050792D01*
X019860Y048600D01*
X020600Y048600D01*
X020600Y049600D02*
X021340Y049600D01*
X025076Y053336D01*
X025076Y060563D01*
X024300Y061340D01*
X024100Y061340D01*
X024600Y060100D02*
X024600Y059360D01*
X023100Y057860D01*
X023100Y052360D01*
X021340Y050600D01*
X020600Y050600D01*
X019340Y053100D02*
X019340Y041279D01*
X018952Y040892D01*
X018952Y040272D01*
X018712Y040032D01*
X018712Y038756D01*
X018377Y038421D01*
X018377Y034637D01*
X015340Y031600D01*
X014600Y031600D01*
X014600Y032600D02*
X015340Y032600D01*
X018122Y035382D01*
X018122Y038727D01*
X018352Y038958D01*
X018352Y040132D01*
X018592Y040372D01*
X018592Y041007D01*
X019100Y041515D01*
X019100Y054532D01*
X019408Y054840D01*
X020600Y054840D01*
X019600Y054100D02*
X019600Y053360D01*
X019340Y053100D01*
X018600Y053360D02*
X018600Y054100D01*
X018600Y053360D02*
X018352Y053112D01*
X018352Y040471D01*
X018112Y040231D01*
X018112Y039057D01*
X017882Y038827D01*
X017882Y035684D01*
X017350Y035153D01*
X016964Y036077D02*
X017402Y036514D01*
X017402Y039365D01*
X017632Y039595D01*
X017632Y040430D01*
X017853Y040651D01*
X017853Y053107D01*
X017600Y053360D01*
X017600Y054100D01*
X016600Y054100D02*
X016600Y053360D01*
X016780Y053180D01*
X016780Y040663D01*
X016620Y040504D01*
X016620Y037163D01*
X016536Y037078D01*
X016922Y036922D02*
X014600Y034600D01*
X015340Y034990D02*
X015340Y033600D01*
X014600Y033600D01*
X014111Y033136D02*
X013860Y033387D01*
X013860Y035920D01*
X013620Y036161D01*
X013620Y041360D01*
X013860Y041600D01*
X014600Y041600D01*
X015032Y041100D02*
X014160Y041100D01*
X013860Y040800D01*
X013860Y036340D01*
X014600Y035600D01*
X015340Y034990D02*
X017162Y036812D01*
X017162Y039464D01*
X017392Y039695D01*
X017392Y049398D01*
X017473Y049479D01*
X016300Y051003D02*
X014117Y053186D01*
X013600Y053360D02*
X013600Y054100D01*
X013600Y056161D01*
X015078Y057639D01*
X015078Y061578D01*
X016600Y063100D01*
X014600Y063100D02*
X012119Y060619D01*
X012119Y051124D01*
X014142Y049100D01*
X015041Y049100D01*
X015340Y048801D01*
X015340Y041408D01*
X015032Y041100D01*
X015864Y040765D02*
X016060Y040962D01*
X016060Y050900D01*
X013600Y053360D01*
X011080Y053160D02*
X009600Y054640D01*
X009600Y055100D01*
X011080Y053160D02*
X011080Y032969D01*
X012839Y031210D01*
X013854Y029681D02*
X018617Y034444D01*
X018617Y037859D01*
X019072Y038314D01*
X019072Y040053D01*
X019193Y040173D01*
X019193Y040697D01*
X019860Y041365D01*
X019860Y040600D02*
X020600Y040600D01*
X020151Y040100D02*
X019620Y039569D01*
X019620Y037394D01*
X019380Y037154D01*
X019380Y027469D01*
X016071Y024159D01*
X016071Y015331D01*
X015340Y014600D01*
X014600Y014600D01*
X015032Y015100D02*
X014151Y015100D01*
X013860Y014809D01*
X013860Y013600D01*
X014600Y013600D01*
X014600Y012600D02*
X015340Y012600D01*
X016311Y013571D01*
X016311Y023974D01*
X019620Y027284D01*
X019620Y037055D01*
X019860Y037295D01*
X019380Y037493D02*
X019140Y037253D01*
X019140Y028060D01*
X015831Y024751D01*
X015831Y015899D01*
X015032Y015100D01*
X014600Y015600D02*
X015591Y016591D01*
X015591Y023564D01*
X015044Y024110D01*
X014154Y024110D01*
X013854Y024411D01*
X013854Y029681D01*
X014111Y033136D02*
X015216Y033136D01*
X015720Y033640D01*
X015720Y034291D01*
X017642Y036213D01*
X017642Y039096D01*
X017872Y039326D01*
X017872Y040331D01*
X018112Y040571D01*
X018112Y058872D01*
X018600Y059360D01*
X018600Y060100D01*
X017600Y060100D02*
X017600Y059360D01*
X017061Y058821D01*
X017061Y039703D01*
X016922Y039564D01*
X016922Y036922D01*
X016367Y037627D02*
X015340Y036600D01*
X014600Y036600D01*
X014600Y037600D02*
X015340Y037600D01*
X016119Y038379D01*
X016119Y040681D01*
X016300Y040862D01*
X016300Y051003D01*
X016540Y052540D02*
X016140Y052941D01*
X016140Y058900D01*
X016600Y059360D01*
X016600Y060100D01*
X013100Y062447D02*
X013100Y063600D01*
X013600Y064100D01*
X012600Y064100D02*
X011639Y063139D01*
X011639Y049821D01*
X013860Y047600D01*
X014600Y047600D01*
X014600Y048600D02*
X013860Y048600D01*
X011879Y050581D01*
X011879Y061226D01*
X013100Y062447D01*
X009687Y062279D02*
X009687Y063326D01*
X009687Y062279D02*
X009572Y062279D01*
X008595Y061302D01*
X008595Y061100D01*
X008100Y061100D01*
X007100Y061100D01*
X005100Y061100D02*
X005100Y059060D01*
X005600Y058560D01*
X005600Y058100D01*
X003600Y057600D02*
X003600Y057140D01*
X005180Y055560D01*
X005600Y055560D01*
X005600Y055100D01*
X005600Y053600D01*
X003600Y057600D02*
X003600Y058850D01*
X009100Y060560D02*
X009100Y061100D01*
X009100Y060560D02*
X009600Y060060D01*
X009600Y059600D01*
X016540Y052540D02*
X016540Y040763D01*
X016367Y040590D01*
X016367Y037627D01*
X015340Y038600D02*
X015864Y039123D01*
X015864Y040765D01*
X015340Y038600D02*
X014600Y038600D01*
X013380Y036061D02*
X013609Y035832D01*
X013609Y023652D01*
X014161Y023100D01*
X015045Y023100D01*
X015351Y022795D01*
X015351Y019413D01*
X015038Y019100D01*
X014600Y020600D02*
X013860Y020600D01*
X013369Y021091D01*
X013369Y035733D01*
X013140Y035962D01*
X013140Y045880D01*
X013860Y046600D01*
X014600Y046600D01*
X014600Y045600D02*
X013860Y045600D01*
X013380Y045120D01*
X013380Y036061D01*
X009340Y031600D02*
X008600Y031600D01*
X009340Y031600D02*
X009581Y031359D01*
X009581Y024026D01*
X007594Y022039D01*
X007594Y014666D01*
X008161Y014100D01*
X009034Y014100D01*
X011676Y011458D01*
X011676Y007065D01*
X011539Y006928D01*
X011296Y008131D02*
X011296Y010854D01*
X009060Y013090D01*
X008153Y013090D01*
X007335Y013907D01*
X007335Y024075D01*
X007860Y024600D01*
X008600Y024600D01*
X009043Y026100D02*
X008153Y026100D01*
X007095Y025042D01*
X007095Y013365D01*
X007860Y012600D01*
X008600Y012600D01*
X009348Y011852D01*
X009348Y009348D01*
X008600Y008599D01*
X008600Y007167D01*
X008293Y006860D01*
X006100Y006860D01*
X006100Y007600D01*
X007100Y007600D02*
X007100Y010840D01*
X007860Y011600D01*
X006854Y012606D01*
X006854Y025594D01*
X007860Y026600D01*
X008600Y026600D01*
X009043Y026100D02*
X009340Y026397D01*
X009340Y028600D01*
X008600Y028600D01*
X004481Y030459D02*
X003340Y031600D01*
X002600Y031600D01*
X002600Y029600D02*
X003340Y029600D01*
X003340Y023406D01*
X001860Y021926D01*
X001860Y011600D01*
X002600Y011600D01*
X002600Y012600D02*
X003340Y012600D01*
X004481Y013741D01*
X004481Y030459D01*
X002600Y025600D02*
X001860Y025600D01*
X001860Y037620D01*
X003600Y039360D01*
X003600Y040100D01*
X003600Y040840D01*
X005120Y042360D01*
X005600Y042360D01*
X005600Y043100D01*
X003600Y043100D02*
X003600Y045600D01*
X005100Y047100D01*
X018857Y037508D02*
X018998Y037649D01*
X018857Y037508D02*
X018857Y028117D01*
X015340Y024600D01*
X014600Y024600D01*
X011777Y021428D02*
X010119Y019771D01*
X010119Y019185D01*
X009034Y018100D01*
X008151Y018100D01*
X007860Y017809D01*
X007860Y015600D01*
X008600Y015600D01*
X008600Y011600D02*
X007860Y011600D01*
X007860Y010600D02*
X008600Y010600D01*
X007860Y010600D02*
X007860Y008580D01*
X008100Y008340D01*
X008100Y007600D01*
X008840Y006840D02*
X009100Y006840D01*
X009100Y006100D01*
X008840Y006840D02*
X008100Y006100D01*
X007344Y004084D02*
X007100Y003840D01*
X007100Y003100D01*
X007344Y004084D02*
X012153Y004084D01*
X012601Y003636D01*
X013789Y003636D01*
X017100Y006100D02*
X017100Y006840D01*
X017129Y006869D01*
X017834Y004826D02*
X018820Y003840D01*
X019100Y003840D01*
X019100Y003100D01*
X019936Y002360D02*
X020871Y001425D01*
X019936Y002360D02*
X018100Y002360D01*
X018100Y003100D01*
X023107Y006734D02*
X021340Y008501D01*
X021340Y010600D01*
X020600Y010600D01*
X019551Y012483D02*
X020168Y013100D01*
X021040Y013100D01*
X023286Y015346D01*
X023286Y026016D01*
X024803Y027533D01*
X024016Y027858D02*
X024016Y037733D01*
X021649Y040100D01*
X021340Y040100D01*
X021800Y039060D02*
X022320Y039060D01*
X023773Y037608D01*
X023773Y035219D01*
X023046Y034492D01*
X023046Y018074D01*
X022214Y017242D01*
X021072Y016100D01*
X020169Y016100D01*
X017651Y016130D02*
X017651Y019391D01*
X019860Y021600D01*
X020600Y021600D01*
X024851Y022300D02*
X026383Y023833D01*
X026442Y023833D01*
X027320Y024711D01*
X027320Y026576D01*
X027147Y026749D01*
X027147Y028793D01*
X026840Y029100D01*
X026100Y029100D01*
X026100Y030100D02*
X026840Y030100D01*
X027907Y029033D01*
X027907Y024619D01*
X027080Y023792D01*
X027080Y018642D01*
X026538Y018100D01*
X025659Y018100D01*
X025345Y017786D01*
X025345Y017280D01*
X025105Y017039D01*
X025105Y015595D01*
X026100Y014600D01*
X025678Y014065D02*
X024865Y014877D01*
X024865Y017139D01*
X025098Y017372D01*
X025098Y019917D01*
X025364Y020183D01*
X027320Y018080D02*
X027320Y023403D01*
X028148Y024231D01*
X028148Y029155D01*
X026703Y030600D01*
X025663Y030600D01*
X025360Y030903D01*
X025360Y033100D01*
X026100Y033100D01*
X026100Y034100D02*
X026840Y034100D01*
X028888Y032052D01*
X028888Y023902D01*
X028838Y023852D01*
X028838Y022850D01*
X028733Y022744D01*
X028733Y018713D01*
X028826Y018620D01*
X027957Y017717D02*
X027957Y023311D01*
X028648Y024001D01*
X028648Y030293D01*
X026840Y032100D01*
X026100Y032100D01*
X026100Y031100D02*
X026840Y031100D01*
X028407Y029533D01*
X028407Y024101D01*
X027717Y023410D01*
X027717Y018114D01*
X026714Y017110D01*
X025665Y017110D01*
X025345Y016791D01*
X025345Y016355D01*
X026100Y015600D01*
X026100Y016600D02*
X026840Y016600D01*
X027957Y017717D01*
X027320Y018080D02*
X026840Y017600D01*
X026100Y017600D01*
X024439Y017599D02*
X024385Y017545D01*
X024385Y014356D01*
X025603Y013139D01*
X027845Y012565D02*
X027845Y009679D01*
X025560Y007394D01*
X025560Y004300D01*
X025100Y003840D01*
X025100Y003100D01*
X026600Y001600D02*
X026600Y004860D01*
X027100Y005360D01*
X027100Y006100D01*
X027610Y006523D02*
X027293Y006840D01*
X026100Y006840D01*
X026100Y006100D01*
X028806Y008380D02*
X029560Y007626D01*
X029560Y004845D01*
X030100Y004305D01*
X030100Y003100D01*
X029100Y003100D02*
X029100Y002360D01*
X030331Y001128D01*
X038426Y001128D01*
X040100Y002803D01*
X040100Y003100D01*
X040571Y002620D02*
X040571Y017477D01*
X040482Y017565D01*
X038340Y016600D02*
X038340Y020800D01*
X038040Y021100D01*
X037168Y021100D01*
X036626Y021642D01*
X036626Y021909D01*
X036139Y022396D01*
X036139Y040879D01*
X036860Y041600D01*
X037600Y041600D01*
X036368Y042171D02*
X036368Y050311D01*
X037122Y051065D01*
X042395Y051065D01*
X042860Y050600D01*
X043600Y050600D01*
X043600Y049600D02*
X042860Y049600D01*
X042380Y049120D01*
X042380Y045061D01*
X042606Y044835D01*
X042606Y040654D01*
X043160Y040100D01*
X044148Y040100D01*
X044884Y039363D01*
X044884Y039095D01*
X045170Y038809D01*
X045170Y030895D01*
X044077Y029802D01*
X044840Y029039D01*
X044840Y021556D01*
X043884Y020600D01*
X043600Y020600D01*
X043165Y021100D02*
X042380Y020315D01*
X042380Y012838D01*
X042909Y012309D01*
X042909Y011962D01*
X042859Y011913D01*
X042859Y010341D01*
X043600Y009600D01*
X042508Y009733D02*
X045600Y006641D01*
X045600Y005660D01*
X047420Y003840D01*
X050100Y003840D01*
X050100Y003100D01*
X050100Y003840D02*
X052769Y003840D01*
X055479Y001130D01*
X056781Y001130D01*
X057100Y001449D01*
X057100Y003100D01*
X056600Y001600D02*
X056600Y011069D01*
X056069Y011600D01*
X054560Y015600D02*
X054100Y015600D01*
X054560Y015600D02*
X056600Y017640D01*
X056600Y018100D01*
X056600Y020600D02*
X056600Y021060D01*
X057100Y021560D01*
X057100Y026100D01*
X055705Y030883D02*
X057164Y032342D01*
X057164Y037326D01*
X058437Y038600D01*
X059091Y038600D01*
X062606Y042115D01*
X063564Y042115D01*
X064065Y042617D01*
X064065Y047665D01*
X063780Y047950D01*
X063780Y048882D01*
X063097Y049565D01*
X062398Y050264D01*
X062398Y056806D01*
X062629Y057037D01*
X062629Y058360D01*
X060942Y060047D01*
X060942Y063495D01*
X059838Y064598D01*
X057098Y064598D01*
X056600Y064100D01*
X056100Y064326D02*
X056100Y063600D01*
X055600Y063100D01*
X055100Y063325D02*
X055100Y062603D01*
X053140Y060643D01*
X053140Y057380D01*
X051600Y055840D01*
X051600Y055470D01*
X051600Y055100D01*
X051600Y052583D01*
X051977Y052205D01*
X053640Y051517D02*
X053640Y035320D01*
X054360Y034600D01*
X055100Y034600D01*
X055550Y035110D02*
X054498Y035110D01*
X053880Y035729D01*
X053880Y050904D01*
X055060Y052084D01*
X055060Y055683D01*
X055600Y056223D01*
X055600Y058100D01*
X055600Y061100D01*
X057600Y063100D01*
X056600Y063100D02*
X055132Y061632D01*
X055132Y056372D01*
X054600Y055840D01*
X054600Y055295D01*
X054600Y055100D01*
X054600Y052477D01*
X053640Y051517D01*
X054120Y050804D02*
X054120Y035840D01*
X054360Y035600D01*
X055100Y035600D01*
X055534Y036100D02*
X054653Y036100D01*
X054360Y036393D01*
X054360Y047820D01*
X054650Y048110D01*
X055690Y048110D01*
X058065Y050485D01*
X058065Y056545D01*
X057600Y057010D01*
X057600Y058100D01*
X057600Y058145D01*
X057600Y058840D01*
X057091Y059349D01*
X057091Y060808D01*
X057384Y061100D01*
X058600Y061100D01*
X059097Y061597D01*
X059097Y063603D01*
X058600Y064100D01*
X058600Y063100D02*
X056600Y061100D01*
X056600Y058100D01*
X056123Y057317D02*
X056123Y060457D01*
X057600Y059600D02*
X058060Y059140D01*
X058060Y057186D01*
X059076Y056169D01*
X059076Y052612D01*
X058827Y052363D01*
X058827Y050248D01*
X055887Y047308D01*
X055887Y036295D01*
X056333Y035850D01*
X056333Y033093D01*
X055840Y032600D01*
X055100Y032600D01*
X054644Y033100D02*
X054360Y032816D01*
X054360Y031600D01*
X055100Y031600D01*
X055598Y031133D02*
X052141Y031133D01*
X050206Y033067D01*
X048612Y033067D01*
X048360Y032815D01*
X048360Y031600D01*
X049100Y031600D01*
X049100Y032600D02*
X049840Y032600D01*
X051557Y030883D01*
X055705Y030883D01*
X055598Y031133D02*
X056574Y032109D01*
X056574Y035948D01*
X056133Y036389D01*
X056133Y041727D01*
X060063Y045656D01*
X060063Y055897D01*
X058600Y057360D01*
X058600Y058100D01*
X059600Y058100D02*
X059600Y057360D01*
X060447Y056513D01*
X060447Y049114D01*
X061266Y048296D01*
X061952Y048296D01*
X062420Y048764D01*
X062420Y048888D01*
X063097Y049565D01*
X059600Y052598D02*
X059207Y052205D01*
X059600Y052598D02*
X059600Y055100D01*
X058600Y055100D02*
X058600Y054360D01*
X058587Y054347D01*
X058587Y050347D01*
X055840Y047600D01*
X055100Y047600D01*
X055100Y048600D02*
X055840Y048600D01*
X057600Y050360D01*
X057600Y055100D01*
X057600Y055840D01*
X056123Y057317D01*
X056600Y055100D02*
X056600Y054360D01*
X056600Y050360D01*
X055840Y049600D01*
X055100Y049600D01*
X054120Y050804D02*
X055600Y052285D01*
X055600Y055100D01*
X052140Y057455D02*
X052030Y057345D01*
X052140Y057455D02*
X052140Y060640D01*
X054600Y063100D01*
X054397Y063597D02*
X054828Y063597D01*
X055100Y063325D01*
X054397Y063597D02*
X054097Y063897D01*
X054097Y064313D01*
X053797Y064613D01*
X052113Y064613D01*
X051600Y064100D01*
X051100Y064323D02*
X051100Y063600D01*
X051600Y063100D01*
X052100Y062884D02*
X050600Y061384D01*
X050600Y058100D01*
X050061Y058695D02*
X050061Y054331D01*
X048350Y052620D01*
X048350Y050398D01*
X048648Y050100D01*
X049542Y050100D01*
X049859Y049783D01*
X049859Y047417D01*
X049552Y047110D01*
X048680Y047110D01*
X048111Y046541D01*
X048111Y043657D01*
X048668Y043100D01*
X049540Y043100D01*
X049840Y042800D01*
X049840Y040409D01*
X049531Y040100D01*
X048639Y040100D01*
X048355Y039816D01*
X048355Y039381D01*
X048636Y039100D01*
X049531Y039100D01*
X049840Y038791D01*
X049840Y035600D01*
X049100Y035600D01*
X049100Y034600D02*
X048360Y034600D01*
X048360Y035429D01*
X047631Y036158D01*
X047631Y040761D01*
X047373Y041019D01*
X047373Y042604D01*
X046910Y043066D01*
X046910Y045656D01*
X045944Y046623D01*
X045944Y051824D01*
X044895Y052873D01*
X044895Y062566D01*
X047206Y064877D01*
X049539Y064877D01*
X050100Y064316D01*
X050100Y063600D01*
X050600Y063100D01*
X051100Y064323D02*
X050305Y065117D01*
X047101Y065117D01*
X043100Y061116D01*
X043100Y060560D01*
X043100Y060100D01*
X043100Y058600D01*
X043100Y058140D01*
X044148Y057092D01*
X044148Y053082D01*
X045564Y051666D01*
X046184Y052094D02*
X045135Y053143D01*
X045135Y062467D01*
X047281Y064613D01*
X047810Y064613D01*
X048100Y064323D01*
X048100Y063600D01*
X048600Y063100D01*
X048101Y062683D02*
X046628Y061210D01*
X046628Y059130D01*
X047100Y058658D01*
X047100Y057340D01*
X048600Y055840D01*
X048600Y055100D01*
X048600Y054360D01*
X047850Y053610D01*
X047850Y049110D01*
X048360Y048600D01*
X049100Y048600D01*
X049100Y047600D02*
X048360Y047600D01*
X048360Y048244D01*
X047600Y049004D01*
X047600Y054360D01*
X046403Y054360D01*
X045635Y055128D01*
X045635Y061865D01*
X047600Y063830D01*
X047600Y064100D01*
X046730Y063525D02*
X045395Y062189D01*
X045395Y053392D01*
X046646Y052141D01*
X046646Y047912D01*
X047390Y047167D01*
X047390Y043265D01*
X047853Y042802D01*
X047853Y041218D01*
X048112Y040960D01*
X048112Y037848D01*
X048360Y037600D01*
X049100Y037600D01*
X049100Y036600D02*
X048360Y036600D01*
X047872Y037088D01*
X047872Y040860D01*
X047613Y041119D01*
X047613Y042703D01*
X047150Y043166D01*
X047150Y047068D01*
X046184Y048034D01*
X046184Y052094D01*
X046886Y052240D02*
X045835Y053291D01*
X045835Y054053D01*
X046371Y053630D02*
X047266Y052735D01*
X047266Y048789D01*
X047871Y048185D01*
X047871Y043530D01*
X048360Y043041D01*
X048360Y041600D01*
X049100Y041600D01*
X048360Y041073D02*
X048360Y040600D01*
X049100Y040600D01*
X049100Y039600D02*
X049840Y039600D01*
X050096Y039856D01*
X050096Y043551D01*
X049586Y044060D01*
X048703Y044060D01*
X048351Y044413D01*
X048351Y045795D01*
X048656Y046100D01*
X049544Y046100D01*
X051140Y047696D01*
X051140Y056900D01*
X051600Y057360D01*
X051600Y058100D01*
X051600Y060746D01*
X052600Y061746D01*
X052600Y063100D01*
X052100Y062884D02*
X052100Y063325D01*
X052372Y063597D01*
X053103Y063597D01*
X053600Y063100D01*
X056100Y064326D02*
X056624Y064849D01*
X059946Y064849D01*
X062351Y062445D01*
X062351Y059783D01*
X064081Y058052D01*
X061005Y057695D02*
X061005Y053821D01*
X061005Y057695D02*
X059600Y059100D01*
X059600Y059600D01*
X058600Y060600D02*
X058600Y061100D01*
X050600Y055100D02*
X050600Y054360D01*
X049840Y053600D01*
X049840Y050600D01*
X049100Y050600D01*
X049100Y049600D02*
X048360Y049600D01*
X048090Y049870D01*
X048090Y052850D01*
X049600Y054360D01*
X049600Y055100D01*
X049600Y055840D01*
X049140Y056300D01*
X049140Y058617D01*
X048633Y059124D01*
X048633Y061365D01*
X049103Y061836D01*
X049103Y063603D01*
X049600Y064100D01*
X049600Y063100D02*
X049600Y059156D01*
X050061Y058695D01*
X048100Y058860D02*
X048100Y059600D01*
X048100Y058860D02*
X047620Y058860D01*
X047600Y058840D01*
X047600Y058100D01*
X046100Y058860D02*
X046100Y059600D01*
X046100Y058860D02*
X046100Y056340D01*
X046600Y055840D01*
X046600Y055100D01*
X047600Y055100D02*
X047600Y054360D01*
X046886Y052240D02*
X046886Y048541D01*
X047631Y047796D01*
X047631Y043430D01*
X048093Y042968D01*
X048093Y041340D01*
X048360Y041073D01*
X047373Y040265D02*
X047133Y040505D01*
X047133Y042375D01*
X046613Y042895D01*
X046613Y044812D01*
X046530Y044895D01*
X046373Y044515D02*
X045244Y045644D01*
X045244Y050496D01*
X039100Y056640D01*
X039100Y057100D01*
X038180Y059640D02*
X035640Y059640D01*
X033100Y057100D01*
X032600Y057640D02*
X033100Y058140D01*
X033100Y058600D01*
X033560Y058600D01*
X034600Y059640D01*
X034600Y059930D01*
X034970Y059930D01*
X035140Y060100D01*
X035600Y060100D01*
X034600Y060100D02*
X034600Y059930D01*
X032600Y057640D02*
X032600Y054600D01*
X032100Y054100D01*
X032100Y049600D02*
X031360Y049600D01*
X030122Y048362D01*
X035017Y046484D02*
X035356Y046145D01*
X035356Y028969D01*
X035343Y028956D01*
X035343Y012162D01*
X036638Y012378D02*
X036860Y012600D01*
X037600Y012600D01*
X036638Y012378D02*
X036638Y005378D01*
X035100Y003840D01*
X035100Y003100D01*
X034321Y002602D02*
X034321Y006394D01*
X033559Y007156D01*
X033247Y007156D01*
X030738Y009665D01*
X030498Y009556D02*
X033213Y006840D01*
X033535Y006840D01*
X034081Y006294D01*
X034081Y002477D01*
X034698Y001860D01*
X037953Y001860D01*
X039100Y003006D01*
X039100Y003100D01*
X038100Y003100D02*
X038100Y002360D01*
X037845Y002105D01*
X034817Y002105D01*
X034321Y002602D01*
X036100Y003100D02*
X036100Y003840D01*
X037640Y005380D01*
X037640Y006591D01*
X037909Y006860D01*
X038100Y006860D01*
X038100Y007600D01*
X038100Y008340D01*
X038348Y008588D01*
X038348Y014737D01*
X038594Y014982D01*
X038594Y021542D01*
X038044Y022092D01*
X037175Y022092D01*
X036380Y022887D01*
X036380Y029026D01*
X038255Y030901D01*
X038345Y030901D01*
X038862Y031418D01*
X038862Y047078D01*
X038340Y047600D01*
X037600Y047600D01*
X038340Y048761D02*
X042190Y044911D01*
X042190Y040075D01*
X043165Y039100D01*
X044047Y039100D01*
X044679Y038469D01*
X044679Y031402D01*
X043642Y030366D01*
X043543Y030366D01*
X042385Y029209D01*
X042385Y026578D01*
X041180Y025372D01*
X041180Y007081D01*
X041568Y006693D01*
X041420Y007181D02*
X044135Y004466D01*
X044135Y003122D01*
X044897Y002360D01*
X047100Y002360D01*
X047100Y003100D01*
X046100Y003100D02*
X046100Y003840D01*
X044062Y005878D01*
X044062Y007327D01*
X041900Y009489D01*
X041900Y024008D01*
X042981Y025090D01*
X044050Y025090D01*
X044340Y025380D01*
X044340Y026600D01*
X043600Y026600D01*
X042860Y026713D02*
X042860Y027600D01*
X043600Y027600D01*
X043158Y028090D02*
X042858Y028390D01*
X042858Y029342D01*
X043642Y030126D01*
X043752Y030126D01*
X044930Y031304D01*
X044930Y038589D01*
X044504Y039015D01*
X044504Y039206D01*
X045146Y039172D02*
X045146Y039455D01*
X044379Y040222D01*
X044379Y042821D01*
X043600Y043600D01*
X044035Y044100D02*
X043159Y044100D01*
X042860Y044399D01*
X042860Y044920D01*
X042620Y045161D01*
X042620Y048360D01*
X042860Y048600D01*
X043600Y048600D01*
X043600Y047600D02*
X042860Y047600D01*
X042860Y045380D01*
X043140Y045100D01*
X044590Y045100D01*
X045866Y043824D01*
X045866Y039471D01*
X046130Y039207D01*
X046130Y020711D01*
X044020Y018600D01*
X043600Y018600D01*
X043180Y019140D02*
X042860Y018820D01*
X042860Y015600D01*
X043600Y015600D01*
X043600Y014600D02*
X042860Y014600D01*
X042620Y014840D01*
X042620Y019556D01*
X043124Y020060D01*
X044014Y020060D01*
X045410Y021456D01*
X045410Y038908D01*
X045146Y039172D01*
X045386Y039272D02*
X045650Y039008D01*
X045650Y020910D01*
X044340Y019600D01*
X043600Y019600D01*
X043180Y019140D02*
X044220Y019140D01*
X045890Y020810D01*
X045890Y039107D01*
X045626Y039371D01*
X045626Y043724D01*
X044751Y044600D01*
X044340Y044600D01*
X043600Y044600D01*
X044035Y044100D02*
X044619Y043515D01*
X044619Y040441D01*
X045386Y039674D01*
X045386Y039272D01*
X046106Y039570D02*
X046370Y039306D01*
X046370Y020611D01*
X044340Y018581D01*
X044340Y017600D01*
X043600Y017600D01*
X045784Y019686D02*
X045784Y015044D01*
X044340Y013600D01*
X043600Y013600D01*
X042140Y012488D02*
X042508Y012121D01*
X042508Y009733D01*
X043600Y011600D02*
X044340Y011600D01*
X046390Y013650D01*
X046390Y019613D01*
X046853Y020076D01*
X046853Y022593D01*
X048360Y024100D01*
X049100Y024100D01*
X048667Y023600D02*
X049550Y023600D01*
X049840Y023890D01*
X049840Y024307D01*
X049547Y024600D01*
X048644Y024600D01*
X048274Y024969D01*
X048274Y028556D01*
X047373Y029457D01*
X047373Y040265D01*
X047133Y040165D02*
X046893Y040406D01*
X046893Y042276D01*
X046373Y042796D01*
X046373Y044515D01*
X046106Y043923D02*
X046106Y039570D01*
X046346Y039669D02*
X046610Y039405D01*
X046610Y020512D01*
X045784Y019686D01*
X046640Y019523D02*
X047093Y019976D01*
X047093Y022026D01*
X048667Y023600D01*
X048360Y024100D02*
X046893Y025567D01*
X046893Y039868D01*
X046726Y040035D01*
X047133Y040165D02*
X047133Y027027D01*
X047600Y026560D01*
X047600Y026100D01*
X049100Y026100D02*
X049840Y026100D01*
X050337Y025603D01*
X050337Y022407D01*
X049531Y021600D01*
X048644Y021600D01*
X047837Y020793D01*
X047837Y019323D01*
X048100Y019060D01*
X048100Y018600D01*
X048100Y017100D01*
X048100Y016640D01*
X048580Y016160D01*
X048580Y015415D01*
X047365Y014200D01*
X047210Y014200D01*
X047210Y013380D01*
X047210Y010820D01*
X047210Y010000D01*
X047600Y009610D01*
X047600Y008600D01*
X046640Y007380D02*
X046640Y019523D01*
X047355Y021313D02*
X048642Y022600D01*
X049531Y022600D01*
X050080Y023149D01*
X050080Y024860D01*
X049840Y025100D01*
X049100Y025100D01*
X050833Y026911D02*
X050833Y008107D01*
X052100Y006840D01*
X052100Y006100D01*
X046640Y007380D02*
X046100Y006840D01*
X046100Y006100D01*
X045100Y003840D02*
X045100Y003100D01*
X045100Y003840D02*
X041660Y007280D01*
X041660Y024400D01*
X042860Y025600D01*
X043600Y025600D01*
X043600Y024600D02*
X042860Y024600D01*
X042140Y023880D01*
X042140Y012488D01*
X039089Y014600D02*
X039089Y022852D01*
X038340Y023600D01*
X037600Y022600D02*
X037303Y022600D01*
X036620Y023283D01*
X036620Y028916D01*
X037673Y029969D01*
X037779Y029969D01*
X039519Y031709D01*
X039519Y034259D01*
X042860Y037600D01*
X043600Y037600D01*
X043177Y038090D02*
X041810Y039457D01*
X041810Y043770D01*
X043600Y045600D02*
X044340Y045600D01*
X044429Y045600D01*
X046106Y043923D01*
X046513Y042119D02*
X046346Y041952D01*
X046346Y039669D01*
X044359Y037787D02*
X044056Y038090D01*
X043177Y038090D01*
X043169Y037100D02*
X044040Y037100D01*
X044359Y037419D01*
X044359Y037787D01*
X043169Y037100D02*
X040977Y034907D01*
X040977Y032732D01*
X037446Y029201D01*
X037245Y029201D01*
X036860Y028816D01*
X036860Y023382D01*
X037177Y023065D01*
X036246Y021750D02*
X036246Y021214D01*
X036860Y020600D01*
X037600Y020600D01*
X037600Y016600D02*
X038340Y016600D01*
X039089Y014600D02*
X038970Y014481D01*
X035697Y010140D02*
X034080Y011758D01*
X034080Y014600D01*
X032100Y015600D02*
X031360Y015600D01*
X031360Y016810D01*
X031650Y017100D01*
X032548Y017100D01*
X032100Y017600D02*
X031360Y017600D01*
X028806Y015817D02*
X028806Y008380D01*
X029192Y008851D02*
X029192Y012562D01*
X028806Y015817D02*
X028437Y016187D01*
X028437Y023239D01*
X029123Y023798D02*
X029128Y023803D01*
X029128Y032812D01*
X026840Y035100D01*
X026100Y035100D01*
X027774Y036686D02*
X027774Y041666D01*
X026840Y042600D01*
X026100Y042600D01*
X027774Y041666D02*
X027774Y041666D01*
X027774Y036686D02*
X030149Y034311D01*
X029506Y033434D02*
X029506Y021733D01*
X029123Y020907D02*
X029123Y023798D01*
X022670Y026507D02*
X022232Y026070D01*
X019678Y026070D01*
X022670Y026507D02*
X022670Y034992D01*
X023379Y035702D01*
X021340Y038600D02*
X020600Y038600D01*
X021340Y038600D02*
X021800Y039060D01*
X019860Y040501D02*
X019860Y040600D01*
X019860Y040501D02*
X019380Y040021D01*
X019380Y037493D01*
X004094Y023026D02*
X003340Y022273D01*
X003340Y014600D01*
X002600Y014600D01*
X032541Y011100D02*
X033336Y011895D01*
X036100Y007600D02*
X036100Y006100D01*
X037100Y006100D02*
X037100Y007600D01*
X039100Y007600D02*
X039100Y006100D01*
X040100Y006100D02*
X040100Y007600D01*
X041420Y007181D02*
X041420Y025272D01*
X042860Y026713D01*
X043158Y028090D02*
X044068Y028090D01*
X044580Y027577D01*
X044580Y021638D01*
X044042Y021100D01*
X043165Y021100D01*
X047355Y021313D02*
X047355Y016805D01*
X048100Y016060D01*
X048100Y015600D01*
X051360Y026100D02*
X052100Y026100D01*
X051360Y026100D02*
X051360Y028910D01*
X051550Y029100D01*
X050833Y026911D02*
X047800Y029945D01*
X047800Y035452D01*
X049100Y033600D02*
X049840Y033600D01*
X052902Y036662D01*
X052902Y049059D01*
X063100Y040600D02*
X063100Y039600D01*
X061600Y038100D01*
X060335Y036835D01*
X060335Y034600D01*
X059600Y034600D01*
X056080Y035554D02*
X056080Y033493D01*
X055687Y033100D01*
X054644Y033100D01*
X055100Y033600D02*
X055840Y033600D01*
X055840Y034820D01*
X055550Y035110D01*
X056080Y035554D02*
X055534Y036100D01*
X044077Y029802D02*
X043856Y029802D01*
X043783Y029729D01*
X042679Y033807D02*
X042679Y035679D01*
X043600Y036600D01*
X042679Y033807D02*
X038340Y029468D01*
X038340Y026600D01*
X037600Y026600D01*
X038340Y048761D02*
X038340Y050600D01*
X037600Y050600D01*
X031600Y058600D02*
X031600Y060100D01*
X037100Y061060D02*
X037100Y061600D01*
X037100Y061060D02*
X037600Y060560D01*
X037600Y060100D01*
X038180Y059640D02*
X038640Y060100D01*
X039100Y060100D01*
X023100Y058340D02*
X022684Y057924D01*
X023100Y058340D02*
X023100Y063536D01*
X022600Y064036D01*
X022600Y064100D01*
X022100Y064324D02*
X022100Y059669D01*
M02*
