G75*
%MOIN*%
%OFA0B0*%
%FSLAX24Y24*%
%IPPOS*%
%LPD*%
%AMOC8*
5,1,8,0,0,1.08239X$1,22.5*
%
%ADD10C,0.0560*%
%ADD11C,0.0640*%
%ADD12C,0.0560*%
%ADD13C,0.0640*%
%ADD14OC8,0.0560*%
%ADD15OC8,0.0640*%
%ADD16OC8,0.0630*%
%ADD17OC8,0.0710*%
%ADD18C,0.0630*%
%ADD19C,0.0710*%
%ADD20C,0.0634*%
%ADD21C,0.0714*%
%ADD22C,0.0720*%
%ADD23C,0.1340*%
%ADD24C,0.0866*%
%ADD25C,0.0946*%
%ADD26C,0.0631*%
%ADD27C,0.0671*%
%ADD28OC8,0.0720*%
%ADD29C,0.0673*%
%ADD30C,0.0753*%
%ADD31C,0.0700*%
%ADD32C,0.0780*%
%ADD33C,0.0700*%
%ADD34C,0.0780*%
%ADD35C,0.0787*%
%ADD36C,0.0867*%
%ADD37C,0.0680*%
%ADD38C,0.0760*%
%ADD39C,0.0555*%
%ADD40C,0.0635*%
%ADD41C,0.1000*%
%ADD42C,0.1080*%
%ADD43OC8,0.1000*%
%ADD44OC8,0.1080*%
%ADD45OC8,0.1240*%
%ADD46OC8,0.1320*%
%ADD47C,0.1240*%
%ADD48C,0.1320*%
D10*
X005100Y002820D02*
X005100Y003380D01*
X006100Y003380D02*
X006100Y002820D01*
X007100Y002820D02*
X007100Y003380D01*
X008100Y003380D02*
X008100Y002820D01*
X009100Y002820D02*
X009100Y003380D01*
X010100Y003380D02*
X010100Y002820D01*
X011100Y002820D02*
X011100Y003380D01*
X011100Y005820D02*
X011100Y006380D01*
X010100Y006380D02*
X010100Y005820D01*
X009100Y005820D02*
X009100Y006380D01*
X009100Y007320D02*
X009100Y007880D01*
X008100Y007880D02*
X008100Y007320D01*
X007100Y007320D02*
X007100Y007880D01*
X006100Y007880D02*
X006100Y007320D01*
X005100Y007320D02*
X005100Y007880D01*
X004100Y007880D02*
X004100Y007320D01*
X003100Y007320D02*
X003100Y007880D01*
X002100Y007880D02*
X002100Y007320D01*
X005100Y006380D02*
X005100Y005820D01*
X006100Y005820D02*
X006100Y006380D01*
X007100Y006380D02*
X007100Y005820D01*
X008100Y005820D02*
X008100Y006380D01*
X008320Y010600D02*
X008880Y010600D01*
X008880Y011600D02*
X008320Y011600D01*
X008320Y012600D02*
X008880Y012600D01*
X008880Y013600D02*
X008320Y013600D01*
X008320Y014600D02*
X008880Y014600D01*
X008880Y015600D02*
X008320Y015600D01*
X008320Y016600D02*
X008880Y016600D01*
X008880Y017600D02*
X008320Y017600D01*
X008320Y018600D02*
X008880Y018600D01*
X008880Y019600D02*
X008320Y019600D01*
X008320Y020600D02*
X008880Y020600D01*
X008880Y021600D02*
X008320Y021600D01*
X008320Y024600D02*
X008880Y024600D01*
X008880Y025600D02*
X008320Y025600D01*
X008320Y026600D02*
X008880Y026600D01*
X008880Y027600D02*
X008320Y027600D01*
X008320Y028600D02*
X008880Y028600D01*
X008880Y029600D02*
X008320Y029600D01*
X008320Y030600D02*
X008880Y030600D01*
X008880Y031600D02*
X008320Y031600D01*
X008320Y032600D02*
X008880Y032600D01*
X008880Y033600D02*
X008320Y033600D01*
X008320Y034600D02*
X008880Y034600D01*
X008880Y035600D02*
X008320Y035600D01*
X008600Y039820D02*
X008600Y040380D01*
X007600Y040380D02*
X007600Y039820D01*
X006600Y039820D02*
X006600Y040380D01*
X005600Y040380D02*
X005600Y039820D01*
X004600Y039820D02*
X004600Y040380D01*
X003600Y040380D02*
X003600Y039820D01*
X003600Y042820D02*
X003600Y043380D01*
X004600Y043380D02*
X004600Y042820D01*
X005600Y042820D02*
X005600Y043380D01*
X006600Y043380D02*
X006600Y042820D01*
X007600Y042820D02*
X007600Y043380D01*
X008600Y043380D02*
X008600Y042820D01*
X009600Y042820D02*
X009600Y043380D01*
X009600Y040380D02*
X009600Y039820D01*
X014320Y039600D02*
X014880Y039600D01*
X014880Y040600D02*
X014320Y040600D01*
X014320Y041600D02*
X014880Y041600D01*
X014880Y042600D02*
X014320Y042600D01*
X014320Y043600D02*
X014880Y043600D01*
X014880Y044600D02*
X014320Y044600D01*
X014320Y045600D02*
X014880Y045600D01*
X014880Y046600D02*
X014320Y046600D01*
X014320Y047600D02*
X014880Y047600D01*
X014880Y048600D02*
X014320Y048600D01*
X014320Y049600D02*
X014880Y049600D01*
X014880Y050600D02*
X014320Y050600D01*
X014600Y053820D02*
X014600Y054380D01*
X015600Y054380D02*
X015600Y053820D01*
X016600Y053820D02*
X016600Y054380D01*
X017600Y054380D02*
X017600Y053820D01*
X018600Y053820D02*
X018600Y054380D01*
X019600Y054380D02*
X019600Y053820D01*
X020600Y053820D02*
X020600Y054380D01*
X021600Y054380D02*
X021600Y053820D01*
X022600Y053820D02*
X022600Y054380D01*
X023600Y054380D02*
X023600Y053820D01*
X024600Y053820D02*
X024600Y054380D01*
X025600Y054380D02*
X025600Y053820D01*
X025820Y051600D02*
X026380Y051600D01*
X026380Y050600D02*
X025820Y050600D01*
X025820Y049600D02*
X026380Y049600D01*
X026380Y048600D02*
X025820Y048600D01*
X025820Y047600D02*
X026380Y047600D01*
X026380Y046600D02*
X025820Y046600D01*
X025820Y045600D02*
X026380Y045600D01*
X026380Y044600D02*
X025820Y044600D01*
X025820Y043600D02*
X026380Y043600D01*
X026380Y042600D02*
X025820Y042600D01*
X025820Y041600D02*
X026380Y041600D01*
X026380Y040600D02*
X025820Y040600D01*
X025820Y038100D02*
X026380Y038100D01*
X026380Y037100D02*
X025820Y037100D01*
X025820Y036100D02*
X026380Y036100D01*
X026380Y035100D02*
X025820Y035100D01*
X025820Y034100D02*
X026380Y034100D01*
X026380Y033100D02*
X025820Y033100D01*
X025820Y032100D02*
X026380Y032100D01*
X026380Y031100D02*
X025820Y031100D01*
X025820Y030100D02*
X026380Y030100D01*
X026380Y029100D02*
X025820Y029100D01*
X025820Y028100D02*
X026380Y028100D01*
X026380Y027100D02*
X025820Y027100D01*
X025820Y026100D02*
X026380Y026100D01*
X026380Y025100D02*
X025820Y025100D01*
X025820Y022600D02*
X026380Y022600D01*
X026380Y021600D02*
X025820Y021600D01*
X025820Y020600D02*
X026380Y020600D01*
X026380Y019600D02*
X025820Y019600D01*
X025820Y018600D02*
X026380Y018600D01*
X026380Y017600D02*
X025820Y017600D01*
X025820Y016600D02*
X026380Y016600D01*
X026380Y015600D02*
X025820Y015600D01*
X025820Y014600D02*
X026380Y014600D01*
X026380Y013600D02*
X025820Y013600D01*
X025820Y012600D02*
X026380Y012600D01*
X026380Y011600D02*
X025820Y011600D01*
X025820Y010600D02*
X026380Y010600D01*
X026380Y009600D02*
X025820Y009600D01*
X026100Y006380D02*
X026100Y005820D01*
X027100Y005820D02*
X027100Y006380D01*
X028100Y006380D02*
X028100Y005820D01*
X029100Y005820D02*
X029100Y006380D01*
X030100Y006380D02*
X030100Y005820D01*
X031100Y005820D02*
X031100Y006380D01*
X031100Y003380D02*
X031100Y002820D01*
X030100Y002820D02*
X030100Y003380D01*
X029100Y003380D02*
X029100Y002820D01*
X028100Y002820D02*
X028100Y003380D01*
X027100Y003380D02*
X027100Y002820D01*
X026100Y002820D02*
X026100Y003380D01*
X025100Y003380D02*
X025100Y002820D01*
X025100Y005820D02*
X025100Y006380D01*
X021100Y006380D02*
X021100Y005820D01*
X020100Y005820D02*
X020100Y006380D01*
X019100Y006380D02*
X019100Y005820D01*
X018100Y005820D02*
X018100Y006380D01*
X017100Y006380D02*
X017100Y005820D01*
X016100Y005820D02*
X016100Y006380D01*
X015100Y006380D02*
X015100Y005820D01*
X015100Y003380D02*
X015100Y002820D01*
X016100Y002820D02*
X016100Y003380D01*
X017100Y003380D02*
X017100Y002820D01*
X018100Y002820D02*
X018100Y003380D01*
X019100Y003380D02*
X019100Y002820D01*
X020100Y002820D02*
X020100Y003380D01*
X021100Y003380D02*
X021100Y002820D01*
X020880Y009600D02*
X020320Y009600D01*
X020320Y010600D02*
X020880Y010600D01*
X020880Y011600D02*
X020320Y011600D01*
X020320Y012600D02*
X020880Y012600D01*
X020880Y013600D02*
X020320Y013600D01*
X020320Y014600D02*
X020880Y014600D01*
X020880Y015600D02*
X020320Y015600D01*
X020320Y016600D02*
X020880Y016600D01*
X020880Y017600D02*
X020320Y017600D01*
X020320Y018600D02*
X020880Y018600D01*
X020880Y019600D02*
X020320Y019600D01*
X020320Y020600D02*
X020880Y020600D01*
X020880Y021600D02*
X020320Y021600D01*
X020320Y022600D02*
X020880Y022600D01*
X020880Y023600D02*
X020320Y023600D01*
X020320Y024600D02*
X020880Y024600D01*
X020880Y025600D02*
X020320Y025600D01*
X020320Y026600D02*
X020880Y026600D01*
X020880Y027600D02*
X020320Y027600D01*
X020320Y028600D02*
X020880Y028600D01*
X020880Y031600D02*
X020320Y031600D01*
X020320Y032600D02*
X020880Y032600D01*
X020880Y033600D02*
X020320Y033600D01*
X020320Y034600D02*
X020880Y034600D01*
X020880Y035600D02*
X020320Y035600D01*
X020320Y036600D02*
X020880Y036600D01*
X020880Y037600D02*
X020320Y037600D01*
X020320Y038600D02*
X020880Y038600D01*
X020880Y039600D02*
X020320Y039600D01*
X020320Y040600D02*
X020880Y040600D01*
X020880Y041600D02*
X020320Y041600D01*
X020320Y042600D02*
X020880Y042600D01*
X020880Y043600D02*
X020320Y043600D01*
X020320Y044600D02*
X020880Y044600D01*
X020880Y045600D02*
X020320Y045600D01*
X020320Y046600D02*
X020880Y046600D01*
X020880Y047600D02*
X020320Y047600D01*
X020320Y048600D02*
X020880Y048600D01*
X020880Y049600D02*
X020320Y049600D01*
X020320Y050600D02*
X020880Y050600D01*
X013600Y053820D02*
X013600Y054380D01*
X012600Y054380D02*
X012600Y053820D01*
X012600Y059820D02*
X012600Y060380D01*
X013600Y060380D02*
X013600Y059820D01*
X014600Y059820D02*
X014600Y060380D01*
X015600Y060380D02*
X015600Y059820D01*
X016600Y059820D02*
X016600Y060380D01*
X017600Y060380D02*
X017600Y059820D01*
X018600Y059820D02*
X018600Y060380D01*
X019600Y060380D02*
X019600Y059820D01*
X020600Y059820D02*
X020600Y060380D01*
X021600Y060380D02*
X021600Y059820D01*
X022600Y059820D02*
X022600Y060380D01*
X023600Y060380D02*
X023600Y059820D01*
X024600Y059820D02*
X024600Y060380D01*
X025600Y060380D02*
X025600Y059820D01*
X031820Y051600D02*
X032380Y051600D01*
X032380Y050600D02*
X031820Y050600D01*
X031820Y049600D02*
X032380Y049600D01*
X032380Y048600D02*
X031820Y048600D01*
X031820Y047600D02*
X032380Y047600D01*
X032380Y046600D02*
X031820Y046600D01*
X031820Y045600D02*
X032380Y045600D01*
X032380Y044600D02*
X031820Y044600D01*
X031820Y043600D02*
X032380Y043600D01*
X032380Y042600D02*
X031820Y042600D01*
X031820Y041600D02*
X032380Y041600D01*
X032380Y040600D02*
X031820Y040600D01*
X031820Y038100D02*
X032380Y038100D01*
X032380Y037100D02*
X031820Y037100D01*
X031820Y036100D02*
X032380Y036100D01*
X032380Y035100D02*
X031820Y035100D01*
X031820Y034100D02*
X032380Y034100D01*
X032380Y033100D02*
X031820Y033100D01*
X031820Y032100D02*
X032380Y032100D01*
X032380Y031100D02*
X031820Y031100D01*
X031820Y030100D02*
X032380Y030100D01*
X032380Y029100D02*
X031820Y029100D01*
X031820Y028100D02*
X032380Y028100D01*
X032380Y027100D02*
X031820Y027100D01*
X031820Y026100D02*
X032380Y026100D01*
X032380Y025100D02*
X031820Y025100D01*
X031820Y022600D02*
X032380Y022600D01*
X032380Y021600D02*
X031820Y021600D01*
X031820Y020600D02*
X032380Y020600D01*
X032380Y019600D02*
X031820Y019600D01*
X031820Y018600D02*
X032380Y018600D01*
X032380Y017600D02*
X031820Y017600D01*
X031820Y016600D02*
X032380Y016600D01*
X032380Y015600D02*
X031820Y015600D01*
X031820Y014600D02*
X032380Y014600D01*
X032380Y013600D02*
X031820Y013600D01*
X031820Y012600D02*
X032380Y012600D01*
X032380Y011600D02*
X031820Y011600D01*
X031820Y010600D02*
X032380Y010600D01*
X032380Y009600D02*
X031820Y009600D01*
X035100Y007880D02*
X035100Y007320D01*
X036100Y007320D02*
X036100Y007880D01*
X037100Y007880D02*
X037100Y007320D01*
X038100Y007320D02*
X038100Y007880D01*
X039100Y007880D02*
X039100Y007320D01*
X040100Y007320D02*
X040100Y007880D01*
X040100Y006380D02*
X040100Y005820D01*
X039100Y005820D02*
X039100Y006380D01*
X038100Y006380D02*
X038100Y005820D01*
X037100Y005820D02*
X037100Y006380D01*
X036100Y006380D02*
X036100Y005820D01*
X035100Y005820D02*
X035100Y006380D01*
X035100Y003380D02*
X035100Y002820D01*
X036100Y002820D02*
X036100Y003380D01*
X037100Y003380D02*
X037100Y002820D01*
X038100Y002820D02*
X038100Y003380D01*
X039100Y003380D02*
X039100Y002820D01*
X040100Y002820D02*
X040100Y003380D01*
X041100Y003380D02*
X041100Y002820D01*
X041100Y005820D02*
X041100Y006380D01*
X043320Y009600D02*
X043880Y009600D01*
X043880Y010600D02*
X043320Y010600D01*
X043320Y011600D02*
X043880Y011600D01*
X043880Y012600D02*
X043320Y012600D01*
X043320Y013600D02*
X043880Y013600D01*
X043880Y014600D02*
X043320Y014600D01*
X043320Y015600D02*
X043880Y015600D01*
X043880Y016600D02*
X043320Y016600D01*
X043320Y017600D02*
X043880Y017600D01*
X043880Y018600D02*
X043320Y018600D01*
X043320Y019600D02*
X043880Y019600D01*
X043880Y020600D02*
X043320Y020600D01*
X043320Y021600D02*
X043880Y021600D01*
X043880Y022600D02*
X043320Y022600D01*
X043320Y023600D02*
X043880Y023600D01*
X043880Y024600D02*
X043320Y024600D01*
X043320Y025600D02*
X043880Y025600D01*
X043880Y026600D02*
X043320Y026600D01*
X043320Y027600D02*
X043880Y027600D01*
X043880Y028600D02*
X043320Y028600D01*
X043320Y031600D02*
X043880Y031600D01*
X043880Y032600D02*
X043320Y032600D01*
X043320Y033600D02*
X043880Y033600D01*
X043880Y034600D02*
X043320Y034600D01*
X043320Y035600D02*
X043880Y035600D01*
X043880Y036600D02*
X043320Y036600D01*
X043320Y037600D02*
X043880Y037600D01*
X043880Y038600D02*
X043320Y038600D01*
X043320Y039600D02*
X043880Y039600D01*
X043880Y040600D02*
X043320Y040600D01*
X043320Y041600D02*
X043880Y041600D01*
X043880Y042600D02*
X043320Y042600D01*
X043320Y043600D02*
X043880Y043600D01*
X043880Y044600D02*
X043320Y044600D01*
X043320Y045600D02*
X043880Y045600D01*
X043880Y046600D02*
X043320Y046600D01*
X043320Y047600D02*
X043880Y047600D01*
X043880Y048600D02*
X043320Y048600D01*
X043320Y049600D02*
X043880Y049600D01*
X043880Y050600D02*
X043320Y050600D01*
X046600Y054820D02*
X046600Y055380D01*
X047600Y055380D02*
X047600Y054820D01*
X048600Y054820D02*
X048600Y055380D01*
X049600Y055380D02*
X049600Y054820D01*
X050600Y054820D02*
X050600Y055380D01*
X051600Y055380D02*
X051600Y054820D01*
X052600Y054820D02*
X052600Y055380D01*
X053600Y055380D02*
X053600Y054820D01*
X054600Y054820D02*
X054600Y055380D01*
X055600Y055380D02*
X055600Y054820D01*
X056600Y054820D02*
X056600Y055380D01*
X057600Y055380D02*
X057600Y054820D01*
X058600Y054820D02*
X058600Y055380D01*
X059600Y055380D02*
X059600Y054820D01*
X059600Y057820D02*
X059600Y058380D01*
X058600Y058380D02*
X058600Y057820D01*
X057600Y057820D02*
X057600Y058380D01*
X056600Y058380D02*
X056600Y057820D01*
X055600Y057820D02*
X055600Y058380D01*
X054600Y058380D02*
X054600Y057820D01*
X053600Y057820D02*
X053600Y058380D01*
X052600Y058380D02*
X052600Y057820D01*
X051600Y057820D02*
X051600Y058380D01*
X050600Y058380D02*
X050600Y057820D01*
X049600Y057820D02*
X049600Y058380D01*
X048600Y058380D02*
X048600Y057820D01*
X047600Y057820D02*
X047600Y058380D01*
X046600Y058380D02*
X046600Y057820D01*
X046100Y059320D02*
X046100Y059880D01*
X047100Y059880D02*
X047100Y059320D01*
X048100Y059320D02*
X048100Y059880D01*
X049100Y059880D02*
X049100Y059320D01*
X050100Y059320D02*
X050100Y059880D01*
X051100Y059880D02*
X051100Y059320D01*
X043380Y058600D02*
X042820Y058600D01*
X042820Y057100D02*
X043380Y057100D01*
X039380Y057100D02*
X038820Y057100D01*
X038820Y058600D02*
X039380Y058600D01*
X037880Y050600D02*
X037320Y050600D01*
X037320Y049600D02*
X037880Y049600D01*
X037880Y048600D02*
X037320Y048600D01*
X037320Y047600D02*
X037880Y047600D01*
X037880Y046600D02*
X037320Y046600D01*
X037320Y045600D02*
X037880Y045600D01*
X037880Y044600D02*
X037320Y044600D01*
X037320Y043600D02*
X037880Y043600D01*
X037880Y042600D02*
X037320Y042600D01*
X037320Y041600D02*
X037880Y041600D01*
X037880Y040600D02*
X037320Y040600D01*
X037320Y039600D02*
X037880Y039600D01*
X037880Y038600D02*
X037320Y038600D01*
X037320Y037600D02*
X037880Y037600D01*
X037880Y036600D02*
X037320Y036600D01*
X037320Y035600D02*
X037880Y035600D01*
X037880Y034600D02*
X037320Y034600D01*
X037320Y033600D02*
X037880Y033600D01*
X037880Y032600D02*
X037320Y032600D01*
X037320Y031600D02*
X037880Y031600D01*
X037880Y028600D02*
X037320Y028600D01*
X037320Y027600D02*
X037880Y027600D01*
X037880Y026600D02*
X037320Y026600D01*
X037320Y025600D02*
X037880Y025600D01*
X037880Y024600D02*
X037320Y024600D01*
X037320Y023600D02*
X037880Y023600D01*
X037880Y022600D02*
X037320Y022600D01*
X037320Y021600D02*
X037880Y021600D01*
X037880Y020600D02*
X037320Y020600D01*
X037320Y019600D02*
X037880Y019600D01*
X037880Y018600D02*
X037320Y018600D01*
X037320Y017600D02*
X037880Y017600D01*
X037880Y016600D02*
X037320Y016600D01*
X037320Y015600D02*
X037880Y015600D01*
X037880Y014600D02*
X037320Y014600D01*
X037320Y013600D02*
X037880Y013600D01*
X037880Y012600D02*
X037320Y012600D01*
X037320Y011600D02*
X037880Y011600D01*
X037880Y010600D02*
X037320Y010600D01*
X037320Y009600D02*
X037880Y009600D01*
X045100Y006380D02*
X045100Y005820D01*
X046100Y005820D02*
X046100Y006380D01*
X047100Y006380D02*
X047100Y005820D01*
X048100Y005820D02*
X048100Y006380D01*
X049100Y006380D02*
X049100Y005820D01*
X050100Y005820D02*
X050100Y006380D01*
X051100Y006380D02*
X051100Y005820D01*
X052100Y005820D02*
X052100Y006380D01*
X052100Y003380D02*
X052100Y002820D01*
X051100Y002820D02*
X051100Y003380D01*
X050100Y003380D02*
X050100Y002820D01*
X049100Y002820D02*
X049100Y003380D01*
X048100Y003380D02*
X048100Y002820D01*
X047100Y002820D02*
X047100Y003380D01*
X046100Y003380D02*
X046100Y002820D01*
X045100Y002820D02*
X045100Y003380D01*
X056100Y003380D02*
X056100Y002820D01*
X057100Y002820D02*
X057100Y003380D01*
X058100Y003380D02*
X058100Y002820D01*
X059100Y002820D02*
X059100Y003380D01*
X060100Y003380D02*
X060100Y002820D01*
X061100Y002820D02*
X061100Y003380D01*
X062100Y003380D02*
X062100Y002820D01*
X062100Y005820D02*
X062100Y006380D01*
X061100Y006380D02*
X061100Y005820D01*
X060100Y005820D02*
X060100Y006380D01*
X060100Y007320D02*
X060100Y007880D01*
X061100Y007880D02*
X061100Y007320D01*
X059100Y007320D02*
X059100Y007880D01*
X058100Y007880D02*
X058100Y007320D01*
X058100Y006380D02*
X058100Y005820D01*
X059100Y005820D02*
X059100Y006380D01*
X057100Y006380D02*
X057100Y005820D01*
X056100Y005820D02*
X056100Y006380D01*
X056100Y007320D02*
X056100Y007880D01*
X057100Y007880D02*
X057100Y007320D01*
X052380Y018600D02*
X051820Y018600D01*
X051820Y020100D02*
X052380Y020100D01*
X052380Y021100D02*
X051820Y021100D01*
X051820Y022100D02*
X052380Y022100D01*
X052380Y023100D02*
X051820Y023100D01*
X051820Y024100D02*
X052380Y024100D01*
X052380Y025100D02*
X051820Y025100D01*
X051820Y026100D02*
X052380Y026100D01*
X052380Y027100D02*
X051820Y027100D01*
X049380Y027100D02*
X048820Y027100D01*
X048820Y026100D02*
X049380Y026100D01*
X049380Y025100D02*
X048820Y025100D01*
X048820Y024100D02*
X049380Y024100D01*
X049380Y023100D02*
X048820Y023100D01*
X048820Y022100D02*
X049380Y022100D01*
X049380Y021100D02*
X048820Y021100D01*
X048820Y020100D02*
X049380Y020100D01*
X048380Y018600D02*
X047820Y018600D01*
X048820Y031600D02*
X049380Y031600D01*
X049380Y032600D02*
X048820Y032600D01*
X048820Y033600D02*
X049380Y033600D01*
X049380Y034600D02*
X048820Y034600D01*
X048820Y035600D02*
X049380Y035600D01*
X049380Y036600D02*
X048820Y036600D01*
X048820Y037600D02*
X049380Y037600D01*
X049380Y038600D02*
X048820Y038600D01*
X048820Y039600D02*
X049380Y039600D01*
X049380Y040600D02*
X048820Y040600D01*
X048820Y041600D02*
X049380Y041600D01*
X049380Y042600D02*
X048820Y042600D01*
X048820Y043600D02*
X049380Y043600D01*
X049380Y044600D02*
X048820Y044600D01*
X048820Y045600D02*
X049380Y045600D01*
X049380Y046600D02*
X048820Y046600D01*
X048820Y047600D02*
X049380Y047600D01*
X049380Y048600D02*
X048820Y048600D01*
X048820Y049600D02*
X049380Y049600D01*
X049380Y050600D02*
X048820Y050600D01*
X054820Y050600D02*
X055380Y050600D01*
X055380Y049600D02*
X054820Y049600D01*
X054820Y048600D02*
X055380Y048600D01*
X055380Y047600D02*
X054820Y047600D01*
X054820Y046600D02*
X055380Y046600D01*
X055380Y045600D02*
X054820Y045600D01*
X054820Y044600D02*
X055380Y044600D01*
X055380Y043600D02*
X054820Y043600D01*
X054820Y042600D02*
X055380Y042600D01*
X055380Y041600D02*
X054820Y041600D01*
X054820Y040600D02*
X055380Y040600D01*
X055380Y039600D02*
X054820Y039600D01*
X054820Y038600D02*
X055380Y038600D01*
X055380Y037600D02*
X054820Y037600D01*
X054820Y036600D02*
X055380Y036600D01*
X055380Y035600D02*
X054820Y035600D01*
X054820Y034600D02*
X055380Y034600D01*
X055380Y033600D02*
X054820Y033600D01*
X054820Y032600D02*
X055380Y032600D01*
X055380Y031600D02*
X054820Y031600D01*
X014880Y031600D02*
X014320Y031600D01*
X014320Y032600D02*
X014880Y032600D01*
X014880Y033600D02*
X014320Y033600D01*
X014320Y034600D02*
X014880Y034600D01*
X014880Y035600D02*
X014320Y035600D01*
X014320Y036600D02*
X014880Y036600D01*
X014880Y037600D02*
X014320Y037600D01*
X014320Y038600D02*
X014880Y038600D01*
X014880Y028600D02*
X014320Y028600D01*
X014320Y027600D02*
X014880Y027600D01*
X014880Y026600D02*
X014320Y026600D01*
X014320Y025600D02*
X014880Y025600D01*
X014880Y024600D02*
X014320Y024600D01*
X014320Y023600D02*
X014880Y023600D01*
X014880Y022600D02*
X014320Y022600D01*
X014320Y021600D02*
X014880Y021600D01*
X014880Y020600D02*
X014320Y020600D01*
X014320Y019600D02*
X014880Y019600D01*
X014880Y018600D02*
X014320Y018600D01*
X014320Y017600D02*
X014880Y017600D01*
X014880Y016600D02*
X014320Y016600D01*
X014320Y015600D02*
X014880Y015600D01*
X014880Y014600D02*
X014320Y014600D01*
X014320Y013600D02*
X014880Y013600D01*
X014880Y012600D02*
X014320Y012600D01*
X014320Y011600D02*
X014880Y011600D01*
X014880Y010600D02*
X014320Y010600D01*
X014320Y009600D02*
X014880Y009600D01*
X002880Y010600D02*
X002320Y010600D01*
X002320Y011600D02*
X002880Y011600D01*
X002880Y012600D02*
X002320Y012600D01*
X002320Y013600D02*
X002880Y013600D01*
X002880Y014600D02*
X002320Y014600D01*
X002320Y015600D02*
X002880Y015600D01*
X002880Y016600D02*
X002320Y016600D01*
X002320Y017600D02*
X002880Y017600D01*
X002880Y018600D02*
X002320Y018600D01*
X002320Y019600D02*
X002880Y019600D01*
X002880Y020600D02*
X002320Y020600D01*
X002320Y021600D02*
X002880Y021600D01*
X002880Y024600D02*
X002320Y024600D01*
X002320Y025600D02*
X002880Y025600D01*
X002880Y026600D02*
X002320Y026600D01*
X002320Y027600D02*
X002880Y027600D01*
X002880Y028600D02*
X002320Y028600D01*
X002320Y029600D02*
X002880Y029600D01*
X002880Y030600D02*
X002320Y030600D01*
X002320Y031600D02*
X002880Y031600D01*
X002880Y032600D02*
X002320Y032600D01*
X002320Y033600D02*
X002880Y033600D01*
X002880Y034600D02*
X002320Y034600D01*
X002320Y035600D02*
X002880Y035600D01*
D11*
X002320Y035600D01*
X002320Y034600D02*
X002880Y034600D01*
X002880Y033600D02*
X002320Y033600D01*
X002320Y032600D02*
X002880Y032600D01*
X002880Y031600D02*
X002320Y031600D01*
X002320Y030600D02*
X002880Y030600D01*
X002880Y029600D02*
X002320Y029600D01*
X002320Y028600D02*
X002880Y028600D01*
X002880Y027600D02*
X002320Y027600D01*
X002320Y026600D02*
X002880Y026600D01*
X002880Y025600D02*
X002320Y025600D01*
X002320Y024600D02*
X002880Y024600D01*
X002880Y021600D02*
X002320Y021600D01*
X002320Y020600D02*
X002880Y020600D01*
X002880Y019600D02*
X002320Y019600D01*
X002320Y018600D02*
X002880Y018600D01*
X002880Y017600D02*
X002320Y017600D01*
X002320Y016600D02*
X002880Y016600D01*
X002880Y015600D02*
X002320Y015600D01*
X002320Y014600D02*
X002880Y014600D01*
X002880Y013600D02*
X002320Y013600D01*
X002320Y012600D02*
X002880Y012600D01*
X002880Y011600D02*
X002320Y011600D01*
X002320Y010600D02*
X002880Y010600D01*
X003100Y007880D02*
X003100Y007320D01*
X002100Y007320D02*
X002100Y007880D01*
X004100Y007880D02*
X004100Y007320D01*
X005100Y007320D02*
X005100Y007880D01*
X006100Y007880D02*
X006100Y007320D01*
X006100Y006380D02*
X006100Y005820D01*
X005100Y005820D02*
X005100Y006380D01*
X007100Y006380D02*
X007100Y005820D01*
X008100Y005820D02*
X008100Y006380D01*
X008100Y007320D02*
X008100Y007880D01*
X007100Y007880D02*
X007100Y007320D01*
X009100Y007320D02*
X009100Y007880D01*
X009100Y006380D02*
X009100Y005820D01*
X010100Y005820D02*
X010100Y006380D01*
X011100Y006380D02*
X011100Y005820D01*
X011100Y003380D02*
X011100Y002820D01*
X010100Y002820D02*
X010100Y003380D01*
X009100Y003380D02*
X009100Y002820D01*
X008100Y002820D02*
X008100Y003380D01*
X007100Y003380D02*
X007100Y002820D01*
X006100Y002820D02*
X006100Y003380D01*
X005100Y003380D02*
X005100Y002820D01*
X008320Y010600D02*
X008880Y010600D01*
X008880Y011600D02*
X008320Y011600D01*
X008320Y012600D02*
X008880Y012600D01*
X008880Y013600D02*
X008320Y013600D01*
X008320Y014600D02*
X008880Y014600D01*
X008880Y015600D02*
X008320Y015600D01*
X008320Y016600D02*
X008880Y016600D01*
X008880Y017600D02*
X008320Y017600D01*
X008320Y018600D02*
X008880Y018600D01*
X008880Y019600D02*
X008320Y019600D01*
X008320Y020600D02*
X008880Y020600D01*
X008880Y021600D02*
X008320Y021600D01*
X008320Y024600D02*
X008880Y024600D01*
X008880Y025600D02*
X008320Y025600D01*
X008320Y026600D02*
X008880Y026600D01*
X008880Y027600D02*
X008320Y027600D01*
X008320Y028600D02*
X008880Y028600D01*
X008880Y029600D02*
X008320Y029600D01*
X008320Y030600D02*
X008880Y030600D01*
X008880Y031600D02*
X008320Y031600D01*
X008320Y032600D02*
X008880Y032600D01*
X008880Y033600D02*
X008320Y033600D01*
X008320Y034600D02*
X008880Y034600D01*
X008880Y035600D02*
X008320Y035600D01*
X008600Y039820D02*
X008600Y040380D01*
X007600Y040380D02*
X007600Y039820D01*
X006600Y039820D02*
X006600Y040380D01*
X005600Y040380D02*
X005600Y039820D01*
X004600Y039820D02*
X004600Y040380D01*
X003600Y040380D02*
X003600Y039820D01*
X003600Y042820D02*
X003600Y043380D01*
X004600Y043380D02*
X004600Y042820D01*
X005600Y042820D02*
X005600Y043380D01*
X006600Y043380D02*
X006600Y042820D01*
X007600Y042820D02*
X007600Y043380D01*
X008600Y043380D02*
X008600Y042820D01*
X009600Y042820D02*
X009600Y043380D01*
X009600Y040380D02*
X009600Y039820D01*
X014320Y039600D02*
X014880Y039600D01*
X014880Y040600D02*
X014320Y040600D01*
X014320Y041600D02*
X014880Y041600D01*
X014880Y042600D02*
X014320Y042600D01*
X014320Y043600D02*
X014880Y043600D01*
X014880Y044600D02*
X014320Y044600D01*
X014320Y045600D02*
X014880Y045600D01*
X014880Y046600D02*
X014320Y046600D01*
X014320Y047600D02*
X014880Y047600D01*
X014880Y048600D02*
X014320Y048600D01*
X014320Y049600D02*
X014880Y049600D01*
X014880Y050600D02*
X014320Y050600D01*
X014600Y053820D02*
X014600Y054380D01*
X015600Y054380D02*
X015600Y053820D01*
X016600Y053820D02*
X016600Y054380D01*
X017600Y054380D02*
X017600Y053820D01*
X018600Y053820D02*
X018600Y054380D01*
X019600Y054380D02*
X019600Y053820D01*
X020600Y053820D02*
X020600Y054380D01*
X021600Y054380D02*
X021600Y053820D01*
X022600Y053820D02*
X022600Y054380D01*
X023600Y054380D02*
X023600Y053820D01*
X024600Y053820D02*
X024600Y054380D01*
X025600Y054380D02*
X025600Y053820D01*
X025820Y051600D02*
X026380Y051600D01*
X026380Y050600D02*
X025820Y050600D01*
X025820Y049600D02*
X026380Y049600D01*
X026380Y048600D02*
X025820Y048600D01*
X025820Y047600D02*
X026380Y047600D01*
X026380Y046600D02*
X025820Y046600D01*
X025820Y045600D02*
X026380Y045600D01*
X026380Y044600D02*
X025820Y044600D01*
X025820Y043600D02*
X026380Y043600D01*
X026380Y042600D02*
X025820Y042600D01*
X025820Y041600D02*
X026380Y041600D01*
X026380Y040600D02*
X025820Y040600D01*
X025820Y038100D02*
X026380Y038100D01*
X026380Y037100D02*
X025820Y037100D01*
X025820Y036100D02*
X026380Y036100D01*
X026380Y035100D02*
X025820Y035100D01*
X025820Y034100D02*
X026380Y034100D01*
X026380Y033100D02*
X025820Y033100D01*
X025820Y032100D02*
X026380Y032100D01*
X026380Y031100D02*
X025820Y031100D01*
X025820Y030100D02*
X026380Y030100D01*
X026380Y029100D02*
X025820Y029100D01*
X025820Y028100D02*
X026380Y028100D01*
X026380Y027100D02*
X025820Y027100D01*
X025820Y026100D02*
X026380Y026100D01*
X026380Y025100D02*
X025820Y025100D01*
X025820Y022600D02*
X026380Y022600D01*
X026380Y021600D02*
X025820Y021600D01*
X025820Y020600D02*
X026380Y020600D01*
X026380Y019600D02*
X025820Y019600D01*
X025820Y018600D02*
X026380Y018600D01*
X026380Y017600D02*
X025820Y017600D01*
X025820Y016600D02*
X026380Y016600D01*
X026380Y015600D02*
X025820Y015600D01*
X025820Y014600D02*
X026380Y014600D01*
X026380Y013600D02*
X025820Y013600D01*
X025820Y012600D02*
X026380Y012600D01*
X026380Y011600D02*
X025820Y011600D01*
X025820Y010600D02*
X026380Y010600D01*
X026380Y009600D02*
X025820Y009600D01*
X026100Y006380D02*
X026100Y005820D01*
X027100Y005820D02*
X027100Y006380D01*
X028100Y006380D02*
X028100Y005820D01*
X029100Y005820D02*
X029100Y006380D01*
X030100Y006380D02*
X030100Y005820D01*
X031100Y005820D02*
X031100Y006380D01*
X031100Y003380D02*
X031100Y002820D01*
X030100Y002820D02*
X030100Y003380D01*
X029100Y003380D02*
X029100Y002820D01*
X028100Y002820D02*
X028100Y003380D01*
X027100Y003380D02*
X027100Y002820D01*
X026100Y002820D02*
X026100Y003380D01*
X025100Y003380D02*
X025100Y002820D01*
X025100Y005820D02*
X025100Y006380D01*
X021100Y006380D02*
X021100Y005820D01*
X020100Y005820D02*
X020100Y006380D01*
X019100Y006380D02*
X019100Y005820D01*
X018100Y005820D02*
X018100Y006380D01*
X017100Y006380D02*
X017100Y005820D01*
X016100Y005820D02*
X016100Y006380D01*
X015100Y006380D02*
X015100Y005820D01*
X015100Y003380D02*
X015100Y002820D01*
X016100Y002820D02*
X016100Y003380D01*
X017100Y003380D02*
X017100Y002820D01*
X018100Y002820D02*
X018100Y003380D01*
X019100Y003380D02*
X019100Y002820D01*
X020100Y002820D02*
X020100Y003380D01*
X021100Y003380D02*
X021100Y002820D01*
X020880Y009600D02*
X020320Y009600D01*
X020320Y010600D02*
X020880Y010600D01*
X020880Y011600D02*
X020320Y011600D01*
X020320Y012600D02*
X020880Y012600D01*
X020880Y013600D02*
X020320Y013600D01*
X020320Y014600D02*
X020880Y014600D01*
X020880Y015600D02*
X020320Y015600D01*
X020320Y016600D02*
X020880Y016600D01*
X020880Y017600D02*
X020320Y017600D01*
X020320Y018600D02*
X020880Y018600D01*
X020880Y019600D02*
X020320Y019600D01*
X020320Y020600D02*
X020880Y020600D01*
X020880Y021600D02*
X020320Y021600D01*
X020320Y022600D02*
X020880Y022600D01*
X020880Y023600D02*
X020320Y023600D01*
X020320Y024600D02*
X020880Y024600D01*
X020880Y025600D02*
X020320Y025600D01*
X020320Y026600D02*
X020880Y026600D01*
X020880Y027600D02*
X020320Y027600D01*
X020320Y028600D02*
X020880Y028600D01*
X020880Y031600D02*
X020320Y031600D01*
X020320Y032600D02*
X020880Y032600D01*
X020880Y033600D02*
X020320Y033600D01*
X020320Y034600D02*
X020880Y034600D01*
X020880Y035600D02*
X020320Y035600D01*
X020320Y036600D02*
X020880Y036600D01*
X020880Y037600D02*
X020320Y037600D01*
X020320Y038600D02*
X020880Y038600D01*
X020880Y039600D02*
X020320Y039600D01*
X020320Y040600D02*
X020880Y040600D01*
X020880Y041600D02*
X020320Y041600D01*
X020320Y042600D02*
X020880Y042600D01*
X020880Y043600D02*
X020320Y043600D01*
X020320Y044600D02*
X020880Y044600D01*
X020880Y045600D02*
X020320Y045600D01*
X020320Y046600D02*
X020880Y046600D01*
X020880Y047600D02*
X020320Y047600D01*
X020320Y048600D02*
X020880Y048600D01*
X020880Y049600D02*
X020320Y049600D01*
X020320Y050600D02*
X020880Y050600D01*
X013600Y053820D02*
X013600Y054380D01*
X012600Y054380D02*
X012600Y053820D01*
X012600Y059820D02*
X012600Y060380D01*
X013600Y060380D02*
X013600Y059820D01*
X014600Y059820D02*
X014600Y060380D01*
X015600Y060380D02*
X015600Y059820D01*
X016600Y059820D02*
X016600Y060380D01*
X017600Y060380D02*
X017600Y059820D01*
X018600Y059820D02*
X018600Y060380D01*
X019600Y060380D02*
X019600Y059820D01*
X020600Y059820D02*
X020600Y060380D01*
X021600Y060380D02*
X021600Y059820D01*
X022600Y059820D02*
X022600Y060380D01*
X023600Y060380D02*
X023600Y059820D01*
X024600Y059820D02*
X024600Y060380D01*
X025600Y060380D02*
X025600Y059820D01*
X031820Y051600D02*
X032380Y051600D01*
X032380Y050600D02*
X031820Y050600D01*
X031820Y049600D02*
X032380Y049600D01*
X032380Y048600D02*
X031820Y048600D01*
X031820Y047600D02*
X032380Y047600D01*
X032380Y046600D02*
X031820Y046600D01*
X031820Y045600D02*
X032380Y045600D01*
X032380Y044600D02*
X031820Y044600D01*
X031820Y043600D02*
X032380Y043600D01*
X032380Y042600D02*
X031820Y042600D01*
X031820Y041600D02*
X032380Y041600D01*
X032380Y040600D02*
X031820Y040600D01*
X031820Y038100D02*
X032380Y038100D01*
X032380Y037100D02*
X031820Y037100D01*
X031820Y036100D02*
X032380Y036100D01*
X032380Y035100D02*
X031820Y035100D01*
X031820Y034100D02*
X032380Y034100D01*
X032380Y033100D02*
X031820Y033100D01*
X031820Y032100D02*
X032380Y032100D01*
X032380Y031100D02*
X031820Y031100D01*
X031820Y030100D02*
X032380Y030100D01*
X032380Y029100D02*
X031820Y029100D01*
X031820Y028100D02*
X032380Y028100D01*
X032380Y027100D02*
X031820Y027100D01*
X031820Y026100D02*
X032380Y026100D01*
X032380Y025100D02*
X031820Y025100D01*
X031820Y022600D02*
X032380Y022600D01*
X032380Y021600D02*
X031820Y021600D01*
X031820Y020600D02*
X032380Y020600D01*
X032380Y019600D02*
X031820Y019600D01*
X031820Y018600D02*
X032380Y018600D01*
X032380Y017600D02*
X031820Y017600D01*
X031820Y016600D02*
X032380Y016600D01*
X032380Y015600D02*
X031820Y015600D01*
X031820Y014600D02*
X032380Y014600D01*
X032380Y013600D02*
X031820Y013600D01*
X031820Y012600D02*
X032380Y012600D01*
X032380Y011600D02*
X031820Y011600D01*
X031820Y010600D02*
X032380Y010600D01*
X032380Y009600D02*
X031820Y009600D01*
X035100Y007880D02*
X035100Y007320D01*
X036100Y007320D02*
X036100Y007880D01*
X037100Y007880D02*
X037100Y007320D01*
X038100Y007320D02*
X038100Y007880D01*
X039100Y007880D02*
X039100Y007320D01*
X040100Y007320D02*
X040100Y007880D01*
X040100Y006380D02*
X040100Y005820D01*
X039100Y005820D02*
X039100Y006380D01*
X038100Y006380D02*
X038100Y005820D01*
X037100Y005820D02*
X037100Y006380D01*
X036100Y006380D02*
X036100Y005820D01*
X035100Y005820D02*
X035100Y006380D01*
X035100Y003380D02*
X035100Y002820D01*
X036100Y002820D02*
X036100Y003380D01*
X037100Y003380D02*
X037100Y002820D01*
X038100Y002820D02*
X038100Y003380D01*
X039100Y003380D02*
X039100Y002820D01*
X040100Y002820D02*
X040100Y003380D01*
X041100Y003380D02*
X041100Y002820D01*
X041100Y005820D02*
X041100Y006380D01*
X043320Y009600D02*
X043880Y009600D01*
X043880Y010600D02*
X043320Y010600D01*
X043320Y011600D02*
X043880Y011600D01*
X043880Y012600D02*
X043320Y012600D01*
X043320Y013600D02*
X043880Y013600D01*
X043880Y014600D02*
X043320Y014600D01*
X043320Y015600D02*
X043880Y015600D01*
X043880Y016600D02*
X043320Y016600D01*
X043320Y017600D02*
X043880Y017600D01*
X043880Y018600D02*
X043320Y018600D01*
X043320Y019600D02*
X043880Y019600D01*
X043880Y020600D02*
X043320Y020600D01*
X043320Y021600D02*
X043880Y021600D01*
X043880Y022600D02*
X043320Y022600D01*
X043320Y023600D02*
X043880Y023600D01*
X043880Y024600D02*
X043320Y024600D01*
X043320Y025600D02*
X043880Y025600D01*
X043880Y026600D02*
X043320Y026600D01*
X043320Y027600D02*
X043880Y027600D01*
X043880Y028600D02*
X043320Y028600D01*
X043320Y031600D02*
X043880Y031600D01*
X043880Y032600D02*
X043320Y032600D01*
X043320Y033600D02*
X043880Y033600D01*
X043880Y034600D02*
X043320Y034600D01*
X043320Y035600D02*
X043880Y035600D01*
X043880Y036600D02*
X043320Y036600D01*
X043320Y037600D02*
X043880Y037600D01*
X043880Y038600D02*
X043320Y038600D01*
X043320Y039600D02*
X043880Y039600D01*
X043880Y040600D02*
X043320Y040600D01*
X043320Y041600D02*
X043880Y041600D01*
X043880Y042600D02*
X043320Y042600D01*
X043320Y043600D02*
X043880Y043600D01*
X043880Y044600D02*
X043320Y044600D01*
X043320Y045600D02*
X043880Y045600D01*
X043880Y046600D02*
X043320Y046600D01*
X043320Y047600D02*
X043880Y047600D01*
X043880Y048600D02*
X043320Y048600D01*
X043320Y049600D02*
X043880Y049600D01*
X043880Y050600D02*
X043320Y050600D01*
X046600Y054820D02*
X046600Y055380D01*
X047600Y055380D02*
X047600Y054820D01*
X048600Y054820D02*
X048600Y055380D01*
X049600Y055380D02*
X049600Y054820D01*
X050600Y054820D02*
X050600Y055380D01*
X051600Y055380D02*
X051600Y054820D01*
X052600Y054820D02*
X052600Y055380D01*
X053600Y055380D02*
X053600Y054820D01*
X054600Y054820D02*
X054600Y055380D01*
X055600Y055380D02*
X055600Y054820D01*
X056600Y054820D02*
X056600Y055380D01*
X057600Y055380D02*
X057600Y054820D01*
X058600Y054820D02*
X058600Y055380D01*
X059600Y055380D02*
X059600Y054820D01*
X059600Y057820D02*
X059600Y058380D01*
X058600Y058380D02*
X058600Y057820D01*
X057600Y057820D02*
X057600Y058380D01*
X056600Y058380D02*
X056600Y057820D01*
X055600Y057820D02*
X055600Y058380D01*
X054600Y058380D02*
X054600Y057820D01*
X053600Y057820D02*
X053600Y058380D01*
X052600Y058380D02*
X052600Y057820D01*
X051600Y057820D02*
X051600Y058380D01*
X050600Y058380D02*
X050600Y057820D01*
X049600Y057820D02*
X049600Y058380D01*
X048600Y058380D02*
X048600Y057820D01*
X047600Y057820D02*
X047600Y058380D01*
X046600Y058380D02*
X046600Y057820D01*
X046100Y059320D02*
X046100Y059880D01*
X047100Y059880D02*
X047100Y059320D01*
X048100Y059320D02*
X048100Y059880D01*
X049100Y059880D02*
X049100Y059320D01*
X050100Y059320D02*
X050100Y059880D01*
X051100Y059880D02*
X051100Y059320D01*
X043380Y058600D02*
X042820Y058600D01*
X042820Y057100D02*
X043380Y057100D01*
X039380Y057100D02*
X038820Y057100D01*
X038820Y058600D02*
X039380Y058600D01*
X037880Y050600D02*
X037320Y050600D01*
X037320Y049600D02*
X037880Y049600D01*
X037880Y048600D02*
X037320Y048600D01*
X037320Y047600D02*
X037880Y047600D01*
X037880Y046600D02*
X037320Y046600D01*
X037320Y045600D02*
X037880Y045600D01*
X037880Y044600D02*
X037320Y044600D01*
X037320Y043600D02*
X037880Y043600D01*
X037880Y042600D02*
X037320Y042600D01*
X037320Y041600D02*
X037880Y041600D01*
X037880Y040600D02*
X037320Y040600D01*
X037320Y039600D02*
X037880Y039600D01*
X037880Y038600D02*
X037320Y038600D01*
X037320Y037600D02*
X037880Y037600D01*
X037880Y036600D02*
X037320Y036600D01*
X037320Y035600D02*
X037880Y035600D01*
X037880Y034600D02*
X037320Y034600D01*
X037320Y033600D02*
X037880Y033600D01*
X037880Y032600D02*
X037320Y032600D01*
X037320Y031600D02*
X037880Y031600D01*
X037880Y028600D02*
X037320Y028600D01*
X037320Y027600D02*
X037880Y027600D01*
X037880Y026600D02*
X037320Y026600D01*
X037320Y025600D02*
X037880Y025600D01*
X037880Y024600D02*
X037320Y024600D01*
X037320Y023600D02*
X037880Y023600D01*
X037880Y022600D02*
X037320Y022600D01*
X037320Y021600D02*
X037880Y021600D01*
X037880Y020600D02*
X037320Y020600D01*
X037320Y019600D02*
X037880Y019600D01*
X037880Y018600D02*
X037320Y018600D01*
X037320Y017600D02*
X037880Y017600D01*
X037880Y016600D02*
X037320Y016600D01*
X037320Y015600D02*
X037880Y015600D01*
X037880Y014600D02*
X037320Y014600D01*
X037320Y013600D02*
X037880Y013600D01*
X037880Y012600D02*
X037320Y012600D01*
X037320Y011600D02*
X037880Y011600D01*
X037880Y010600D02*
X037320Y010600D01*
X037320Y009600D02*
X037880Y009600D01*
X045100Y006380D02*
X045100Y005820D01*
X046100Y005820D02*
X046100Y006380D01*
X047100Y006380D02*
X047100Y005820D01*
X048100Y005820D02*
X048100Y006380D01*
X049100Y006380D02*
X049100Y005820D01*
X050100Y005820D02*
X050100Y006380D01*
X051100Y006380D02*
X051100Y005820D01*
X052100Y005820D02*
X052100Y006380D01*
X052100Y003380D02*
X052100Y002820D01*
X051100Y002820D02*
X051100Y003380D01*
X050100Y003380D02*
X050100Y002820D01*
X049100Y002820D02*
X049100Y003380D01*
X048100Y003380D02*
X048100Y002820D01*
X047100Y002820D02*
X047100Y003380D01*
X046100Y003380D02*
X046100Y002820D01*
X045100Y002820D02*
X045100Y003380D01*
X047600Y008280D02*
X047600Y008920D01*
X048600Y008920D02*
X048600Y008280D01*
X048990Y010500D02*
X048990Y011140D01*
X047210Y011140D02*
X047210Y010500D01*
X047210Y013060D02*
X047210Y013700D01*
X048990Y013700D02*
X048990Y013060D01*
X048380Y018600D02*
X047820Y018600D01*
X048820Y020100D02*
X049380Y020100D01*
X049380Y021100D02*
X048820Y021100D01*
X048820Y022100D02*
X049380Y022100D01*
X049380Y023100D02*
X048820Y023100D01*
X048820Y024100D02*
X049380Y024100D01*
X049380Y025100D02*
X048820Y025100D01*
X048820Y026100D02*
X049380Y026100D01*
X049380Y027100D02*
X048820Y027100D01*
X051820Y027100D02*
X052380Y027100D01*
X052380Y026100D02*
X051820Y026100D01*
X051820Y025100D02*
X052380Y025100D01*
X052380Y024100D02*
X051820Y024100D01*
X051820Y023100D02*
X052380Y023100D01*
X052380Y022100D02*
X051820Y022100D01*
X051820Y021100D02*
X052380Y021100D01*
X052380Y020100D02*
X051820Y020100D01*
X051820Y018600D02*
X052380Y018600D01*
X056100Y007880D02*
X056100Y007320D01*
X057100Y007320D02*
X057100Y007880D01*
X058100Y007880D02*
X058100Y007320D01*
X059100Y007320D02*
X059100Y007880D01*
X060100Y007880D02*
X060100Y007320D01*
X061100Y007320D02*
X061100Y007880D01*
X061100Y006380D02*
X061100Y005820D01*
X060100Y005820D02*
X060100Y006380D01*
X059100Y006380D02*
X059100Y005820D01*
X058100Y005820D02*
X058100Y006380D01*
X057100Y006380D02*
X057100Y005820D01*
X056100Y005820D02*
X056100Y006380D01*
X056100Y003380D02*
X056100Y002820D01*
X057100Y002820D02*
X057100Y003380D01*
X058100Y003380D02*
X058100Y002820D01*
X059100Y002820D02*
X059100Y003380D01*
X060100Y003380D02*
X060100Y002820D01*
X061100Y002820D02*
X061100Y003380D01*
X062100Y003380D02*
X062100Y002820D01*
X062100Y005820D02*
X062100Y006380D01*
X055380Y031600D02*
X054820Y031600D01*
X054820Y032600D02*
X055380Y032600D01*
X055380Y033600D02*
X054820Y033600D01*
X054820Y034600D02*
X055380Y034600D01*
X055380Y035600D02*
X054820Y035600D01*
X054820Y036600D02*
X055380Y036600D01*
X055380Y037600D02*
X054820Y037600D01*
X054820Y038600D02*
X055380Y038600D01*
X055380Y039600D02*
X054820Y039600D01*
X054820Y040600D02*
X055380Y040600D01*
X055380Y041600D02*
X054820Y041600D01*
X054820Y042600D02*
X055380Y042600D01*
X055380Y043600D02*
X054820Y043600D01*
X054820Y044600D02*
X055380Y044600D01*
X055380Y045600D02*
X054820Y045600D01*
X054820Y046600D02*
X055380Y046600D01*
X055380Y047600D02*
X054820Y047600D01*
X054820Y048600D02*
X055380Y048600D01*
X055380Y049600D02*
X054820Y049600D01*
X054820Y050600D02*
X055380Y050600D01*
X049380Y050600D02*
X048820Y050600D01*
X048820Y049600D02*
X049380Y049600D01*
X049380Y048600D02*
X048820Y048600D01*
X048820Y047600D02*
X049380Y047600D01*
X049380Y046600D02*
X048820Y046600D01*
X048820Y045600D02*
X049380Y045600D01*
X049380Y044600D02*
X048820Y044600D01*
X048820Y043600D02*
X049380Y043600D01*
X049380Y042600D02*
X048820Y042600D01*
X048820Y041600D02*
X049380Y041600D01*
X049380Y040600D02*
X048820Y040600D01*
X048820Y039600D02*
X049380Y039600D01*
X049380Y038600D02*
X048820Y038600D01*
X048820Y037600D02*
X049380Y037600D01*
X049380Y036600D02*
X048820Y036600D01*
X048820Y035600D02*
X049380Y035600D01*
X049380Y034600D02*
X048820Y034600D01*
X048820Y033600D02*
X049380Y033600D01*
X049380Y032600D02*
X048820Y032600D01*
X048820Y031600D02*
X049380Y031600D01*
X063100Y059780D02*
X063100Y060420D01*
X065100Y060420D02*
X065100Y059780D01*
X014880Y038600D02*
X014320Y038600D01*
X014320Y037600D02*
X014880Y037600D01*
X014880Y036600D02*
X014320Y036600D01*
X014320Y035600D02*
X014880Y035600D01*
X014880Y034600D02*
X014320Y034600D01*
X014320Y033600D02*
X014880Y033600D01*
X014880Y032600D02*
X014320Y032600D01*
X014320Y031600D02*
X014880Y031600D01*
X014880Y028600D02*
X014320Y028600D01*
X014320Y027600D02*
X014880Y027600D01*
X014880Y026600D02*
X014320Y026600D01*
X014320Y025600D02*
X014880Y025600D01*
X014880Y024600D02*
X014320Y024600D01*
X014320Y023600D02*
X014880Y023600D01*
X014880Y022600D02*
X014320Y022600D01*
X014320Y021600D02*
X014880Y021600D01*
X014880Y020600D02*
X014320Y020600D01*
X014320Y019600D02*
X014880Y019600D01*
X014880Y018600D02*
X014320Y018600D01*
X014320Y017600D02*
X014880Y017600D01*
X014880Y016600D02*
X014320Y016600D01*
X014320Y015600D02*
X014880Y015600D01*
X014880Y014600D02*
X014320Y014600D01*
X014320Y013600D02*
X014880Y013600D01*
X014880Y012600D02*
X014320Y012600D01*
X014320Y011600D02*
X014880Y011600D01*
X014880Y010600D02*
X014320Y010600D01*
X014320Y009600D02*
X014880Y009600D01*
D12*
X049650Y029100D03*
X051550Y029100D03*
X058600Y037100D03*
X058600Y038100D03*
X058600Y039100D03*
X058600Y040100D03*
X061600Y040100D03*
X061600Y039100D03*
X061600Y038100D03*
X061600Y037100D03*
X034100Y054100D03*
X033100Y054100D03*
X032100Y054100D03*
X031100Y054100D03*
X031100Y057100D03*
X032100Y057100D03*
X033100Y057100D03*
X034100Y057100D03*
X008100Y050100D03*
X008100Y047100D03*
X005100Y047100D03*
X005100Y050100D03*
D13*
X005100Y050100D03*
X005100Y047100D03*
X008100Y047100D03*
X008100Y050100D03*
X031100Y054100D03*
X032100Y054100D03*
X033100Y054100D03*
X034100Y054100D03*
X034100Y057100D03*
X033100Y057100D03*
X032100Y057100D03*
X031100Y057100D03*
X049650Y029100D03*
X051550Y029100D03*
X058600Y037100D03*
X058600Y038100D03*
X058600Y039100D03*
X058600Y040100D03*
X061600Y040100D03*
X061600Y039100D03*
X061600Y038100D03*
X061600Y037100D03*
D14*
X063100Y036600D03*
X064600Y036600D03*
X064600Y040600D03*
X063100Y040600D03*
X056600Y038600D03*
X056600Y036600D03*
X057100Y030100D03*
X055600Y030100D03*
X053600Y027100D03*
X053600Y025100D03*
X055600Y026100D03*
X057100Y026100D03*
X056600Y023100D03*
X055600Y023100D03*
X053600Y022100D03*
X053600Y020100D03*
X055600Y020600D03*
X056600Y020600D03*
X056600Y018100D03*
X055600Y018100D03*
X054100Y015600D03*
X052100Y015600D03*
X052100Y017100D03*
X048100Y017100D03*
X048100Y015600D03*
X045100Y016600D03*
X045100Y018600D03*
X047600Y024100D03*
X047600Y026100D03*
X058100Y015600D03*
X054600Y006100D03*
X054600Y004100D03*
X052600Y001600D03*
X056600Y001600D03*
X043600Y004100D03*
X043600Y006100D03*
X036100Y009600D03*
X036100Y011600D03*
X036100Y016600D03*
X036100Y018600D03*
X033600Y020600D03*
X033600Y022600D03*
X022100Y026600D03*
X022100Y028600D03*
X022100Y036600D03*
X022100Y038600D03*
X033600Y038100D03*
X033600Y036100D03*
X045100Y041600D03*
X045100Y043600D03*
X052100Y053600D03*
X054100Y053600D03*
X054600Y059600D03*
X052600Y059600D03*
X043100Y060100D03*
X039100Y060100D03*
X037600Y060100D03*
X037100Y058600D03*
X035600Y060100D03*
X034600Y060100D03*
X033100Y058600D03*
X031600Y058600D03*
X031600Y060100D03*
X032600Y060100D03*
X032100Y061600D03*
X033100Y061600D03*
X030100Y061600D03*
X029100Y061600D03*
X027600Y060100D03*
X027600Y058600D03*
X029600Y056600D03*
X029600Y054600D03*
X033600Y051600D03*
X033600Y049600D03*
X035600Y054600D03*
X035600Y056600D03*
X037100Y061600D03*
X027100Y061600D03*
X011100Y060100D03*
X009600Y059600D03*
X009600Y058100D03*
X011100Y058100D03*
X009600Y055100D03*
X009600Y053600D03*
X005600Y053600D03*
X005600Y055100D03*
X003600Y053600D03*
X003600Y057600D03*
X003600Y058850D03*
X003100Y059600D03*
X004100Y059600D03*
X005600Y059600D03*
X005600Y058100D03*
X005100Y061100D03*
X007100Y061100D03*
X007600Y045100D03*
X005600Y045100D03*
X007600Y038600D03*
X009600Y038600D03*
X010100Y035600D03*
X010100Y033600D03*
X010600Y021600D03*
X010600Y019600D03*
X013600Y006100D03*
X013600Y004100D03*
X003600Y006100D03*
X001600Y006100D03*
X023600Y006100D03*
X023600Y004100D03*
X026600Y001600D03*
X030600Y001600D03*
X033100Y001600D03*
X033100Y002600D03*
X033600Y004100D03*
X033600Y006100D03*
D15*
X033600Y006100D03*
X033600Y004100D03*
X033100Y002600D03*
X033100Y001600D03*
X030600Y001600D03*
X026600Y001600D03*
X023600Y004100D03*
X023600Y006100D03*
X013600Y006100D03*
X013600Y004100D03*
X003600Y006100D03*
X001600Y006100D03*
X010600Y019600D03*
X010600Y021600D03*
X010100Y033600D03*
X010100Y035600D03*
X009600Y038600D03*
X007600Y038600D03*
X007600Y045100D03*
X005600Y045100D03*
X005600Y053600D03*
X005600Y055100D03*
X003600Y053600D03*
X003600Y057600D03*
X003600Y058850D03*
X003100Y059600D03*
X004100Y059600D03*
X005600Y059600D03*
X005600Y058100D03*
X005100Y061100D03*
X007100Y061100D03*
X009600Y059600D03*
X009600Y058100D03*
X011100Y058100D03*
X011100Y060100D03*
X009600Y055100D03*
X009600Y053600D03*
X022100Y038600D03*
X022100Y036600D03*
X022100Y028600D03*
X022100Y026600D03*
X033600Y022600D03*
X033600Y020600D03*
X036100Y018600D03*
X036100Y016600D03*
X036100Y011600D03*
X036100Y009600D03*
X043600Y006100D03*
X043600Y004100D03*
X052600Y001600D03*
X054600Y004100D03*
X054600Y006100D03*
X056600Y001600D03*
X058100Y015600D03*
X056600Y018100D03*
X055600Y018100D03*
X055600Y020600D03*
X056600Y020600D03*
X056600Y023100D03*
X055600Y023100D03*
X053600Y022100D03*
X053600Y020100D03*
X052100Y017100D03*
X052100Y015600D03*
X054100Y015600D03*
X048100Y015600D03*
X048100Y017100D03*
X045100Y016600D03*
X045100Y018600D03*
X047600Y024100D03*
X047600Y026100D03*
X053600Y025100D03*
X053600Y027100D03*
X055600Y026100D03*
X057100Y026100D03*
X057100Y030100D03*
X055600Y030100D03*
X056600Y036600D03*
X056600Y038600D03*
X063100Y036600D03*
X064600Y036600D03*
X064600Y040600D03*
X063100Y040600D03*
X054100Y053600D03*
X052100Y053600D03*
X052600Y059600D03*
X054600Y059600D03*
X057600Y059600D03*
X057600Y060600D03*
X058600Y060600D03*
X058600Y059600D03*
X059600Y059600D03*
X059600Y060600D03*
X043100Y060100D03*
X039100Y060100D03*
X037600Y060100D03*
X037100Y058600D03*
X035600Y060100D03*
X034600Y060100D03*
X033100Y058600D03*
X031600Y058600D03*
X031600Y060100D03*
X032600Y060100D03*
X032100Y061600D03*
X033100Y061600D03*
X030100Y061600D03*
X029100Y061600D03*
X027600Y060100D03*
X027600Y058600D03*
X029600Y056600D03*
X029600Y054600D03*
X033600Y051600D03*
X033600Y049600D03*
X035600Y054600D03*
X035600Y056600D03*
X037100Y061600D03*
X027100Y061600D03*
X045100Y043600D03*
X045100Y041600D03*
X033600Y038100D03*
X033600Y036100D03*
D16*
X008100Y061100D03*
D17*
X008100Y061100D03*
D18*
X009100Y061100D03*
D19*
X009100Y061100D03*
D20*
X012600Y063100D03*
X012600Y064100D03*
X013600Y064100D03*
X013600Y063100D03*
X014600Y063100D03*
X014600Y064100D03*
X015600Y064100D03*
X015600Y063100D03*
X016600Y063100D03*
X016600Y064100D03*
X017600Y064100D03*
X017600Y063100D03*
X018600Y063100D03*
X018600Y064100D03*
X019600Y064100D03*
X019600Y063100D03*
X020600Y063100D03*
X020600Y064100D03*
X021600Y064100D03*
X021600Y063100D03*
X022600Y063100D03*
X022600Y064100D03*
X023600Y064100D03*
X023600Y063100D03*
X024600Y063100D03*
X024600Y064100D03*
X047600Y064100D03*
X047600Y063100D03*
X048600Y063100D03*
X048600Y064100D03*
X049600Y064100D03*
X049600Y063100D03*
X050600Y063100D03*
X050600Y064100D03*
X051600Y064100D03*
X051600Y063100D03*
X052600Y063100D03*
X052600Y064100D03*
X053600Y064100D03*
X053600Y063100D03*
X054600Y063100D03*
X054600Y064100D03*
X055600Y064100D03*
X055600Y063100D03*
X056600Y063100D03*
X056600Y064100D03*
X057600Y064100D03*
X057600Y063100D03*
X058600Y063100D03*
X058600Y064100D03*
X059600Y064100D03*
X059600Y063100D03*
D21*
X059600Y063100D03*
X059600Y064100D03*
X058600Y064100D03*
X058600Y063100D03*
X057600Y063100D03*
X057600Y064100D03*
X056600Y064100D03*
X056600Y063100D03*
X055600Y063100D03*
X055600Y064100D03*
X054600Y064100D03*
X054600Y063100D03*
X053600Y063100D03*
X053600Y064100D03*
X052600Y064100D03*
X052600Y063100D03*
X051600Y063100D03*
X051600Y064100D03*
X050600Y064100D03*
X050600Y063100D03*
X049600Y063100D03*
X049600Y064100D03*
X048600Y064100D03*
X048600Y063100D03*
X047600Y063100D03*
X047600Y064100D03*
X024600Y064100D03*
X024600Y063100D03*
X023600Y063100D03*
X023600Y064100D03*
X022600Y064100D03*
X022600Y063100D03*
X021600Y063100D03*
X021600Y064100D03*
X020600Y064100D03*
X020600Y063100D03*
X019600Y063100D03*
X019600Y064100D03*
X018600Y064100D03*
X018600Y063100D03*
X017600Y063100D03*
X017600Y064100D03*
X016600Y064100D03*
X016600Y063100D03*
X015600Y063100D03*
X015600Y064100D03*
X014600Y064100D03*
X014600Y063100D03*
X013600Y063100D03*
X013600Y064100D03*
X012600Y064100D03*
X012600Y063100D03*
D22*
X047210Y013700D02*
X047210Y013060D01*
X048990Y013060D02*
X048990Y013700D01*
X048990Y011140D02*
X048990Y010500D01*
X048600Y008920D02*
X048600Y008280D01*
X047600Y008280D02*
X047600Y008920D01*
X047210Y010500D02*
X047210Y011140D01*
X063100Y059780D02*
X063100Y060420D01*
X065100Y060420D02*
X065100Y059780D01*
D23*
X002600Y002600D03*
X002600Y063600D03*
X064600Y054600D03*
X064600Y002600D03*
D24*
X037187Y062893D02*
X037187Y063759D01*
X035533Y066475D02*
X034667Y066475D01*
X031687Y063759D02*
X031687Y062893D01*
X030033Y066475D02*
X029167Y066475D01*
X009687Y063759D02*
X009687Y062893D01*
X008033Y066475D02*
X007167Y066475D01*
D25*
X008033Y066475D01*
X009687Y063759D02*
X009687Y062893D01*
X029167Y066475D02*
X030033Y066475D01*
X031687Y063759D02*
X031687Y062893D01*
X034667Y066475D02*
X035533Y066475D01*
X037187Y063759D02*
X037187Y062893D01*
D26*
X036576Y066475D03*
X033624Y066475D03*
X031076Y066475D03*
X028124Y066475D03*
X009076Y066475D03*
X006124Y066475D03*
D27*
X007600Y063916D03*
X029600Y063916D03*
X035100Y063916D03*
D28*
X057600Y060600D03*
X057600Y059600D03*
X058600Y059600D03*
X058600Y060600D03*
X059600Y060600D03*
X059600Y059600D03*
D29*
X056069Y011600D03*
X052131Y011600D03*
D30*
X052131Y011600D03*
X056069Y011600D03*
D31*
X044757Y065535D02*
X044757Y066235D01*
X042450Y066200D02*
X041750Y066200D01*
X039443Y066235D02*
X039443Y065535D01*
D32*
X039443Y066235D01*
X041750Y066200D02*
X042450Y066200D01*
X044757Y066235D02*
X044757Y065535D01*
D33*
X043439Y064704D03*
X042612Y064704D03*
X041588Y064704D03*
X040761Y064704D03*
X040761Y063719D03*
X043439Y063719D03*
D34*
X043439Y063719D03*
X043439Y064704D03*
X042612Y064704D03*
X041588Y064704D03*
X040761Y064704D03*
X040761Y063719D03*
D35*
X062460Y063456D02*
X062460Y064244D01*
X063956Y065031D02*
X064744Y065031D01*
X064744Y062630D02*
X063956Y062630D01*
D36*
X064744Y062630D01*
X064744Y065031D02*
X063956Y065031D01*
X062460Y064244D02*
X062460Y063456D01*
D37*
X062100Y057600D03*
X066100Y057600D03*
D38*
X066100Y057600D03*
X062100Y057600D03*
D39*
X062600Y043377D02*
X062600Y042823D01*
X063600Y042823D02*
X063600Y043377D01*
X064600Y043377D02*
X064600Y042823D01*
X065600Y042823D02*
X065600Y043377D01*
X060600Y043377D02*
X060600Y042823D01*
X059600Y042823D02*
X059600Y043377D01*
X058600Y043377D02*
X058600Y042823D01*
X059323Y034600D02*
X059877Y034600D01*
X059877Y033600D02*
X059323Y033600D01*
X059323Y032600D02*
X059877Y032600D01*
X065323Y032600D02*
X065877Y032600D01*
X065877Y033600D02*
X065323Y033600D01*
X065323Y026600D02*
X065877Y026600D01*
X065877Y024600D02*
X065323Y024600D01*
X065323Y020100D02*
X065877Y020100D01*
X065877Y019100D02*
X065323Y019100D01*
X059877Y019100D02*
X059323Y019100D01*
X059323Y020100D02*
X059877Y020100D01*
X059877Y021100D02*
X059323Y021100D01*
X059323Y024600D02*
X059877Y024600D01*
X065323Y013100D02*
X065877Y013100D01*
X065877Y011100D02*
X065323Y011100D01*
X059877Y011100D02*
X059323Y011100D01*
D40*
X059877Y011100D01*
X065323Y011100D02*
X065877Y011100D01*
X065877Y013100D02*
X065323Y013100D01*
X065323Y019100D02*
X065877Y019100D01*
X065877Y020100D02*
X065323Y020100D01*
X065323Y024600D02*
X065877Y024600D01*
X065877Y026600D02*
X065323Y026600D01*
X059877Y024600D02*
X059323Y024600D01*
X059323Y021100D02*
X059877Y021100D01*
X059877Y020100D02*
X059323Y020100D01*
X059323Y019100D02*
X059877Y019100D01*
X059877Y032600D02*
X059323Y032600D01*
X059323Y033600D02*
X059877Y033600D01*
X059877Y034600D02*
X059323Y034600D01*
X065323Y033600D02*
X065877Y033600D01*
X065877Y032600D02*
X065323Y032600D01*
X065600Y042823D02*
X065600Y043377D01*
X064600Y043377D02*
X064600Y042823D01*
X063600Y042823D02*
X063600Y043377D01*
X062600Y043377D02*
X062600Y042823D01*
X060600Y042823D02*
X060600Y043377D01*
X059600Y043377D02*
X059600Y042823D01*
X058600Y042823D02*
X058600Y043377D01*
D41*
X063100Y050600D03*
D42*
X063100Y050600D03*
D43*
X063100Y048600D03*
D44*
X063100Y048600D03*
D45*
X061600Y049100D03*
D46*
X061600Y049100D03*
D47*
X064600Y049100D03*
D48*
X064600Y049100D03*
M02*
