G75*
%MOIN*%
%OFA0B0*%
%FSLAX24Y24*%
%IPPOS*%
%LPD*%
%AMOC8*
5,1,8,0,0,1.08239X$1,22.5*
%
%ADD10C,0.0560*%
%ADD11C,0.0560*%
%ADD12OC8,0.0560*%
%ADD13OC8,0.0630*%
%ADD14C,0.0630*%
%ADD15C,0.0634*%
%ADD16C,0.0640*%
%ADD17C,0.0866*%
%ADD18OC8,0.0640*%
%ADD19C,0.0673*%
%ADD20C,0.0700*%
%ADD21C,0.0700*%
%ADD22C,0.0787*%
%ADD23C,0.0680*%
%ADD24C,0.0555*%
%ADD25C,0.1000*%
%ADD26OC8,0.1000*%
%ADD27OC8,0.1240*%
%ADD28C,0.1240*%
%ADD29C,0.0400*%
%ADD30C,0.0400*%
%ADD31C,0.0120*%
D10*
X005100Y002820D02*
X005100Y003380D01*
X006100Y003380D02*
X006100Y002820D01*
X007100Y002820D02*
X007100Y003380D01*
X008100Y003380D02*
X008100Y002820D01*
X009100Y002820D02*
X009100Y003380D01*
X010100Y003380D02*
X010100Y002820D01*
X011100Y002820D02*
X011100Y003380D01*
X011100Y005820D02*
X011100Y006380D01*
X010100Y006380D02*
X010100Y005820D01*
X009100Y005820D02*
X009100Y006380D01*
X009100Y007320D02*
X009100Y007880D01*
X008100Y007880D02*
X008100Y007320D01*
X007100Y007320D02*
X007100Y007880D01*
X006100Y007880D02*
X006100Y007320D01*
X005100Y007320D02*
X005100Y007880D01*
X004100Y007880D02*
X004100Y007320D01*
X003100Y007320D02*
X003100Y007880D01*
X002100Y007880D02*
X002100Y007320D01*
X005100Y006380D02*
X005100Y005820D01*
X006100Y005820D02*
X006100Y006380D01*
X007100Y006380D02*
X007100Y005820D01*
X008100Y005820D02*
X008100Y006380D01*
X008320Y010600D02*
X008880Y010600D01*
X008880Y011600D02*
X008320Y011600D01*
X008320Y012600D02*
X008880Y012600D01*
X008880Y013600D02*
X008320Y013600D01*
X008320Y014600D02*
X008880Y014600D01*
X008880Y015600D02*
X008320Y015600D01*
X008320Y016600D02*
X008880Y016600D01*
X008880Y017600D02*
X008320Y017600D01*
X008320Y018600D02*
X008880Y018600D01*
X008880Y019600D02*
X008320Y019600D01*
X008320Y020600D02*
X008880Y020600D01*
X008880Y021600D02*
X008320Y021600D01*
X008320Y024600D02*
X008880Y024600D01*
X008880Y025600D02*
X008320Y025600D01*
X008320Y026600D02*
X008880Y026600D01*
X008880Y027600D02*
X008320Y027600D01*
X008320Y028600D02*
X008880Y028600D01*
X008880Y029600D02*
X008320Y029600D01*
X008320Y030600D02*
X008880Y030600D01*
X008880Y031600D02*
X008320Y031600D01*
X008320Y032600D02*
X008880Y032600D01*
X008880Y033600D02*
X008320Y033600D01*
X008320Y034600D02*
X008880Y034600D01*
X008880Y035600D02*
X008320Y035600D01*
X008600Y039820D02*
X008600Y040380D01*
X007600Y040380D02*
X007600Y039820D01*
X006600Y039820D02*
X006600Y040380D01*
X005600Y040380D02*
X005600Y039820D01*
X004600Y039820D02*
X004600Y040380D01*
X003600Y040380D02*
X003600Y039820D01*
X003600Y042820D02*
X003600Y043380D01*
X004600Y043380D02*
X004600Y042820D01*
X005600Y042820D02*
X005600Y043380D01*
X006600Y043380D02*
X006600Y042820D01*
X007600Y042820D02*
X007600Y043380D01*
X008600Y043380D02*
X008600Y042820D01*
X009600Y042820D02*
X009600Y043380D01*
X009600Y040380D02*
X009600Y039820D01*
X014320Y039600D02*
X014880Y039600D01*
X014880Y040600D02*
X014320Y040600D01*
X014320Y041600D02*
X014880Y041600D01*
X014880Y042600D02*
X014320Y042600D01*
X014320Y043600D02*
X014880Y043600D01*
X014880Y044600D02*
X014320Y044600D01*
X014320Y045600D02*
X014880Y045600D01*
X014880Y046600D02*
X014320Y046600D01*
X014320Y047600D02*
X014880Y047600D01*
X014880Y048600D02*
X014320Y048600D01*
X014320Y049600D02*
X014880Y049600D01*
X014880Y050600D02*
X014320Y050600D01*
X014600Y053820D02*
X014600Y054380D01*
X015600Y054380D02*
X015600Y053820D01*
X016600Y053820D02*
X016600Y054380D01*
X017600Y054380D02*
X017600Y053820D01*
X018600Y053820D02*
X018600Y054380D01*
X019600Y054380D02*
X019600Y053820D01*
X020600Y053820D02*
X020600Y054380D01*
X021600Y054380D02*
X021600Y053820D01*
X022600Y053820D02*
X022600Y054380D01*
X023600Y054380D02*
X023600Y053820D01*
X024600Y053820D02*
X024600Y054380D01*
X025600Y054380D02*
X025600Y053820D01*
X025820Y051600D02*
X026380Y051600D01*
X026380Y050600D02*
X025820Y050600D01*
X025820Y049600D02*
X026380Y049600D01*
X026380Y048600D02*
X025820Y048600D01*
X025820Y047600D02*
X026380Y047600D01*
X026380Y046600D02*
X025820Y046600D01*
X025820Y045600D02*
X026380Y045600D01*
X026380Y044600D02*
X025820Y044600D01*
X025820Y043600D02*
X026380Y043600D01*
X026380Y042600D02*
X025820Y042600D01*
X025820Y041600D02*
X026380Y041600D01*
X026380Y040600D02*
X025820Y040600D01*
X025820Y038100D02*
X026380Y038100D01*
X026380Y037100D02*
X025820Y037100D01*
X025820Y036100D02*
X026380Y036100D01*
X026380Y035100D02*
X025820Y035100D01*
X025820Y034100D02*
X026380Y034100D01*
X026380Y033100D02*
X025820Y033100D01*
X025820Y032100D02*
X026380Y032100D01*
X026380Y031100D02*
X025820Y031100D01*
X025820Y030100D02*
X026380Y030100D01*
X026380Y029100D02*
X025820Y029100D01*
X025820Y028100D02*
X026380Y028100D01*
X026380Y027100D02*
X025820Y027100D01*
X025820Y026100D02*
X026380Y026100D01*
X026380Y025100D02*
X025820Y025100D01*
X025820Y022600D02*
X026380Y022600D01*
X026380Y021600D02*
X025820Y021600D01*
X025820Y020600D02*
X026380Y020600D01*
X026380Y019600D02*
X025820Y019600D01*
X025820Y018600D02*
X026380Y018600D01*
X026380Y017600D02*
X025820Y017600D01*
X025820Y016600D02*
X026380Y016600D01*
X026380Y015600D02*
X025820Y015600D01*
X025820Y014600D02*
X026380Y014600D01*
X026380Y013600D02*
X025820Y013600D01*
X025820Y012600D02*
X026380Y012600D01*
X026380Y011600D02*
X025820Y011600D01*
X025820Y010600D02*
X026380Y010600D01*
X026380Y009600D02*
X025820Y009600D01*
X026100Y006380D02*
X026100Y005820D01*
X027100Y005820D02*
X027100Y006380D01*
X028100Y006380D02*
X028100Y005820D01*
X029100Y005820D02*
X029100Y006380D01*
X030100Y006380D02*
X030100Y005820D01*
X031100Y005820D02*
X031100Y006380D01*
X031100Y003380D02*
X031100Y002820D01*
X030100Y002820D02*
X030100Y003380D01*
X029100Y003380D02*
X029100Y002820D01*
X028100Y002820D02*
X028100Y003380D01*
X027100Y003380D02*
X027100Y002820D01*
X026100Y002820D02*
X026100Y003380D01*
X025100Y003380D02*
X025100Y002820D01*
X025100Y005820D02*
X025100Y006380D01*
X021100Y006380D02*
X021100Y005820D01*
X020100Y005820D02*
X020100Y006380D01*
X019100Y006380D02*
X019100Y005820D01*
X018100Y005820D02*
X018100Y006380D01*
X017100Y006380D02*
X017100Y005820D01*
X016100Y005820D02*
X016100Y006380D01*
X015100Y006380D02*
X015100Y005820D01*
X015100Y003380D02*
X015100Y002820D01*
X016100Y002820D02*
X016100Y003380D01*
X017100Y003380D02*
X017100Y002820D01*
X018100Y002820D02*
X018100Y003380D01*
X019100Y003380D02*
X019100Y002820D01*
X020100Y002820D02*
X020100Y003380D01*
X021100Y003380D02*
X021100Y002820D01*
X020880Y009600D02*
X020320Y009600D01*
X020320Y010600D02*
X020880Y010600D01*
X020880Y011600D02*
X020320Y011600D01*
X020320Y012600D02*
X020880Y012600D01*
X020880Y013600D02*
X020320Y013600D01*
X020320Y014600D02*
X020880Y014600D01*
X020880Y015600D02*
X020320Y015600D01*
X020320Y016600D02*
X020880Y016600D01*
X020880Y017600D02*
X020320Y017600D01*
X020320Y018600D02*
X020880Y018600D01*
X020880Y019600D02*
X020320Y019600D01*
X020320Y020600D02*
X020880Y020600D01*
X020880Y021600D02*
X020320Y021600D01*
X020320Y022600D02*
X020880Y022600D01*
X020880Y023600D02*
X020320Y023600D01*
X020320Y024600D02*
X020880Y024600D01*
X020880Y025600D02*
X020320Y025600D01*
X020320Y026600D02*
X020880Y026600D01*
X020880Y027600D02*
X020320Y027600D01*
X020320Y028600D02*
X020880Y028600D01*
X020880Y031600D02*
X020320Y031600D01*
X020320Y032600D02*
X020880Y032600D01*
X020880Y033600D02*
X020320Y033600D01*
X020320Y034600D02*
X020880Y034600D01*
X020880Y035600D02*
X020320Y035600D01*
X020320Y036600D02*
X020880Y036600D01*
X020880Y037600D02*
X020320Y037600D01*
X020320Y038600D02*
X020880Y038600D01*
X020880Y039600D02*
X020320Y039600D01*
X020320Y040600D02*
X020880Y040600D01*
X020880Y041600D02*
X020320Y041600D01*
X020320Y042600D02*
X020880Y042600D01*
X020880Y043600D02*
X020320Y043600D01*
X020320Y044600D02*
X020880Y044600D01*
X020880Y045600D02*
X020320Y045600D01*
X020320Y046600D02*
X020880Y046600D01*
X020880Y047600D02*
X020320Y047600D01*
X020320Y048600D02*
X020880Y048600D01*
X020880Y049600D02*
X020320Y049600D01*
X020320Y050600D02*
X020880Y050600D01*
X013600Y053820D02*
X013600Y054380D01*
X012600Y054380D02*
X012600Y053820D01*
X012600Y059820D02*
X012600Y060380D01*
X013600Y060380D02*
X013600Y059820D01*
X014600Y059820D02*
X014600Y060380D01*
X015600Y060380D02*
X015600Y059820D01*
X016600Y059820D02*
X016600Y060380D01*
X017600Y060380D02*
X017600Y059820D01*
X018600Y059820D02*
X018600Y060380D01*
X019600Y060380D02*
X019600Y059820D01*
X020600Y059820D02*
X020600Y060380D01*
X021600Y060380D02*
X021600Y059820D01*
X022600Y059820D02*
X022600Y060380D01*
X023600Y060380D02*
X023600Y059820D01*
X024600Y059820D02*
X024600Y060380D01*
X025600Y060380D02*
X025600Y059820D01*
X031820Y051600D02*
X032380Y051600D01*
X032380Y050600D02*
X031820Y050600D01*
X031820Y049600D02*
X032380Y049600D01*
X032380Y048600D02*
X031820Y048600D01*
X031820Y047600D02*
X032380Y047600D01*
X032380Y046600D02*
X031820Y046600D01*
X031820Y045600D02*
X032380Y045600D01*
X032380Y044600D02*
X031820Y044600D01*
X031820Y043600D02*
X032380Y043600D01*
X032380Y042600D02*
X031820Y042600D01*
X031820Y041600D02*
X032380Y041600D01*
X032380Y040600D02*
X031820Y040600D01*
X031820Y038100D02*
X032380Y038100D01*
X032380Y037100D02*
X031820Y037100D01*
X031820Y036100D02*
X032380Y036100D01*
X032380Y035100D02*
X031820Y035100D01*
X031820Y034100D02*
X032380Y034100D01*
X032380Y033100D02*
X031820Y033100D01*
X031820Y032100D02*
X032380Y032100D01*
X032380Y031100D02*
X031820Y031100D01*
X031820Y030100D02*
X032380Y030100D01*
X032380Y029100D02*
X031820Y029100D01*
X031820Y028100D02*
X032380Y028100D01*
X032380Y027100D02*
X031820Y027100D01*
X031820Y026100D02*
X032380Y026100D01*
X032380Y025100D02*
X031820Y025100D01*
X031820Y022600D02*
X032380Y022600D01*
X032380Y021600D02*
X031820Y021600D01*
X031820Y020600D02*
X032380Y020600D01*
X032380Y019600D02*
X031820Y019600D01*
X031820Y018600D02*
X032380Y018600D01*
X032380Y017600D02*
X031820Y017600D01*
X031820Y016600D02*
X032380Y016600D01*
X032380Y015600D02*
X031820Y015600D01*
X031820Y014600D02*
X032380Y014600D01*
X032380Y013600D02*
X031820Y013600D01*
X031820Y012600D02*
X032380Y012600D01*
X032380Y011600D02*
X031820Y011600D01*
X031820Y010600D02*
X032380Y010600D01*
X032380Y009600D02*
X031820Y009600D01*
X035100Y007880D02*
X035100Y007320D01*
X036100Y007320D02*
X036100Y007880D01*
X037100Y007880D02*
X037100Y007320D01*
X038100Y007320D02*
X038100Y007880D01*
X039100Y007880D02*
X039100Y007320D01*
X040100Y007320D02*
X040100Y007880D01*
X040100Y006380D02*
X040100Y005820D01*
X039100Y005820D02*
X039100Y006380D01*
X038100Y006380D02*
X038100Y005820D01*
X037100Y005820D02*
X037100Y006380D01*
X036100Y006380D02*
X036100Y005820D01*
X035100Y005820D02*
X035100Y006380D01*
X035100Y003380D02*
X035100Y002820D01*
X036100Y002820D02*
X036100Y003380D01*
X037100Y003380D02*
X037100Y002820D01*
X038100Y002820D02*
X038100Y003380D01*
X039100Y003380D02*
X039100Y002820D01*
X040100Y002820D02*
X040100Y003380D01*
X041100Y003380D02*
X041100Y002820D01*
X041100Y005820D02*
X041100Y006380D01*
X043320Y009600D02*
X043880Y009600D01*
X043880Y010600D02*
X043320Y010600D01*
X043320Y011600D02*
X043880Y011600D01*
X043880Y012600D02*
X043320Y012600D01*
X043320Y013600D02*
X043880Y013600D01*
X043880Y014600D02*
X043320Y014600D01*
X043320Y015600D02*
X043880Y015600D01*
X043880Y016600D02*
X043320Y016600D01*
X043320Y017600D02*
X043880Y017600D01*
X043880Y018600D02*
X043320Y018600D01*
X043320Y019600D02*
X043880Y019600D01*
X043880Y020600D02*
X043320Y020600D01*
X043320Y021600D02*
X043880Y021600D01*
X043880Y022600D02*
X043320Y022600D01*
X043320Y023600D02*
X043880Y023600D01*
X043880Y024600D02*
X043320Y024600D01*
X043320Y025600D02*
X043880Y025600D01*
X043880Y026600D02*
X043320Y026600D01*
X043320Y027600D02*
X043880Y027600D01*
X043880Y028600D02*
X043320Y028600D01*
X043320Y031600D02*
X043880Y031600D01*
X043880Y032600D02*
X043320Y032600D01*
X043320Y033600D02*
X043880Y033600D01*
X043880Y034600D02*
X043320Y034600D01*
X043320Y035600D02*
X043880Y035600D01*
X043880Y036600D02*
X043320Y036600D01*
X043320Y037600D02*
X043880Y037600D01*
X043880Y038600D02*
X043320Y038600D01*
X043320Y039600D02*
X043880Y039600D01*
X043880Y040600D02*
X043320Y040600D01*
X043320Y041600D02*
X043880Y041600D01*
X043880Y042600D02*
X043320Y042600D01*
X043320Y043600D02*
X043880Y043600D01*
X043880Y044600D02*
X043320Y044600D01*
X043320Y045600D02*
X043880Y045600D01*
X043880Y046600D02*
X043320Y046600D01*
X043320Y047600D02*
X043880Y047600D01*
X043880Y048600D02*
X043320Y048600D01*
X043320Y049600D02*
X043880Y049600D01*
X043880Y050600D02*
X043320Y050600D01*
X046600Y054820D02*
X046600Y055380D01*
X047600Y055380D02*
X047600Y054820D01*
X048600Y054820D02*
X048600Y055380D01*
X049600Y055380D02*
X049600Y054820D01*
X050600Y054820D02*
X050600Y055380D01*
X051600Y055380D02*
X051600Y054820D01*
X052600Y054820D02*
X052600Y055380D01*
X053600Y055380D02*
X053600Y054820D01*
X054600Y054820D02*
X054600Y055380D01*
X055600Y055380D02*
X055600Y054820D01*
X056600Y054820D02*
X056600Y055380D01*
X057600Y055380D02*
X057600Y054820D01*
X058600Y054820D02*
X058600Y055380D01*
X059600Y055380D02*
X059600Y054820D01*
X059600Y057820D02*
X059600Y058380D01*
X058600Y058380D02*
X058600Y057820D01*
X057600Y057820D02*
X057600Y058380D01*
X056600Y058380D02*
X056600Y057820D01*
X055600Y057820D02*
X055600Y058380D01*
X054600Y058380D02*
X054600Y057820D01*
X053600Y057820D02*
X053600Y058380D01*
X052600Y058380D02*
X052600Y057820D01*
X051600Y057820D02*
X051600Y058380D01*
X050600Y058380D02*
X050600Y057820D01*
X049600Y057820D02*
X049600Y058380D01*
X048600Y058380D02*
X048600Y057820D01*
X047600Y057820D02*
X047600Y058380D01*
X046600Y058380D02*
X046600Y057820D01*
X046100Y059320D02*
X046100Y059880D01*
X047100Y059880D02*
X047100Y059320D01*
X048100Y059320D02*
X048100Y059880D01*
X049100Y059880D02*
X049100Y059320D01*
X050100Y059320D02*
X050100Y059880D01*
X051100Y059880D02*
X051100Y059320D01*
X043380Y058600D02*
X042820Y058600D01*
X042820Y057100D02*
X043380Y057100D01*
X039380Y057100D02*
X038820Y057100D01*
X038820Y058600D02*
X039380Y058600D01*
X037880Y050600D02*
X037320Y050600D01*
X037320Y049600D02*
X037880Y049600D01*
X037880Y048600D02*
X037320Y048600D01*
X037320Y047600D02*
X037880Y047600D01*
X037880Y046600D02*
X037320Y046600D01*
X037320Y045600D02*
X037880Y045600D01*
X037880Y044600D02*
X037320Y044600D01*
X037320Y043600D02*
X037880Y043600D01*
X037880Y042600D02*
X037320Y042600D01*
X037320Y041600D02*
X037880Y041600D01*
X037880Y040600D02*
X037320Y040600D01*
X037320Y039600D02*
X037880Y039600D01*
X037880Y038600D02*
X037320Y038600D01*
X037320Y037600D02*
X037880Y037600D01*
X037880Y036600D02*
X037320Y036600D01*
X037320Y035600D02*
X037880Y035600D01*
X037880Y034600D02*
X037320Y034600D01*
X037320Y033600D02*
X037880Y033600D01*
X037880Y032600D02*
X037320Y032600D01*
X037320Y031600D02*
X037880Y031600D01*
X037880Y028600D02*
X037320Y028600D01*
X037320Y027600D02*
X037880Y027600D01*
X037880Y026600D02*
X037320Y026600D01*
X037320Y025600D02*
X037880Y025600D01*
X037880Y024600D02*
X037320Y024600D01*
X037320Y023600D02*
X037880Y023600D01*
X037880Y022600D02*
X037320Y022600D01*
X037320Y021600D02*
X037880Y021600D01*
X037880Y020600D02*
X037320Y020600D01*
X037320Y019600D02*
X037880Y019600D01*
X037880Y018600D02*
X037320Y018600D01*
X037320Y017600D02*
X037880Y017600D01*
X037880Y016600D02*
X037320Y016600D01*
X037320Y015600D02*
X037880Y015600D01*
X037880Y014600D02*
X037320Y014600D01*
X037320Y013600D02*
X037880Y013600D01*
X037880Y012600D02*
X037320Y012600D01*
X037320Y011600D02*
X037880Y011600D01*
X037880Y010600D02*
X037320Y010600D01*
X037320Y009600D02*
X037880Y009600D01*
X045100Y006380D02*
X045100Y005820D01*
X046100Y005820D02*
X046100Y006380D01*
X047100Y006380D02*
X047100Y005820D01*
X048100Y005820D02*
X048100Y006380D01*
X049100Y006380D02*
X049100Y005820D01*
X050100Y005820D02*
X050100Y006380D01*
X051100Y006380D02*
X051100Y005820D01*
X052100Y005820D02*
X052100Y006380D01*
X052100Y003380D02*
X052100Y002820D01*
X051100Y002820D02*
X051100Y003380D01*
X050100Y003380D02*
X050100Y002820D01*
X049100Y002820D02*
X049100Y003380D01*
X048100Y003380D02*
X048100Y002820D01*
X047100Y002820D02*
X047100Y003380D01*
X046100Y003380D02*
X046100Y002820D01*
X045100Y002820D02*
X045100Y003380D01*
X056100Y003380D02*
X056100Y002820D01*
X057100Y002820D02*
X057100Y003380D01*
X058100Y003380D02*
X058100Y002820D01*
X059100Y002820D02*
X059100Y003380D01*
X060100Y003380D02*
X060100Y002820D01*
X061100Y002820D02*
X061100Y003380D01*
X062100Y003380D02*
X062100Y002820D01*
X062100Y005820D02*
X062100Y006380D01*
X061100Y006380D02*
X061100Y005820D01*
X060100Y005820D02*
X060100Y006380D01*
X060100Y007320D02*
X060100Y007880D01*
X061100Y007880D02*
X061100Y007320D01*
X059100Y007320D02*
X059100Y007880D01*
X058100Y007880D02*
X058100Y007320D01*
X058100Y006380D02*
X058100Y005820D01*
X059100Y005820D02*
X059100Y006380D01*
X057100Y006380D02*
X057100Y005820D01*
X056100Y005820D02*
X056100Y006380D01*
X056100Y007320D02*
X056100Y007880D01*
X057100Y007880D02*
X057100Y007320D01*
X052380Y018600D02*
X051820Y018600D01*
X051820Y020100D02*
X052380Y020100D01*
X052380Y021100D02*
X051820Y021100D01*
X051820Y022100D02*
X052380Y022100D01*
X052380Y023100D02*
X051820Y023100D01*
X051820Y024100D02*
X052380Y024100D01*
X052380Y025100D02*
X051820Y025100D01*
X051820Y026100D02*
X052380Y026100D01*
X052380Y027100D02*
X051820Y027100D01*
X049380Y027100D02*
X048820Y027100D01*
X048820Y026100D02*
X049380Y026100D01*
X049380Y025100D02*
X048820Y025100D01*
X048820Y024100D02*
X049380Y024100D01*
X049380Y023100D02*
X048820Y023100D01*
X048820Y022100D02*
X049380Y022100D01*
X049380Y021100D02*
X048820Y021100D01*
X048820Y020100D02*
X049380Y020100D01*
X048380Y018600D02*
X047820Y018600D01*
X048820Y031600D02*
X049380Y031600D01*
X049380Y032600D02*
X048820Y032600D01*
X048820Y033600D02*
X049380Y033600D01*
X049380Y034600D02*
X048820Y034600D01*
X048820Y035600D02*
X049380Y035600D01*
X049380Y036600D02*
X048820Y036600D01*
X048820Y037600D02*
X049380Y037600D01*
X049380Y038600D02*
X048820Y038600D01*
X048820Y039600D02*
X049380Y039600D01*
X049380Y040600D02*
X048820Y040600D01*
X048820Y041600D02*
X049380Y041600D01*
X049380Y042600D02*
X048820Y042600D01*
X048820Y043600D02*
X049380Y043600D01*
X049380Y044600D02*
X048820Y044600D01*
X048820Y045600D02*
X049380Y045600D01*
X049380Y046600D02*
X048820Y046600D01*
X048820Y047600D02*
X049380Y047600D01*
X049380Y048600D02*
X048820Y048600D01*
X048820Y049600D02*
X049380Y049600D01*
X049380Y050600D02*
X048820Y050600D01*
X054820Y050600D02*
X055380Y050600D01*
X055380Y049600D02*
X054820Y049600D01*
X054820Y048600D02*
X055380Y048600D01*
X055380Y047600D02*
X054820Y047600D01*
X054820Y046600D02*
X055380Y046600D01*
X055380Y045600D02*
X054820Y045600D01*
X054820Y044600D02*
X055380Y044600D01*
X055380Y043600D02*
X054820Y043600D01*
X054820Y042600D02*
X055380Y042600D01*
X055380Y041600D02*
X054820Y041600D01*
X054820Y040600D02*
X055380Y040600D01*
X055380Y039600D02*
X054820Y039600D01*
X054820Y038600D02*
X055380Y038600D01*
X055380Y037600D02*
X054820Y037600D01*
X054820Y036600D02*
X055380Y036600D01*
X055380Y035600D02*
X054820Y035600D01*
X054820Y034600D02*
X055380Y034600D01*
X055380Y033600D02*
X054820Y033600D01*
X054820Y032600D02*
X055380Y032600D01*
X055380Y031600D02*
X054820Y031600D01*
X014880Y031600D02*
X014320Y031600D01*
X014320Y032600D02*
X014880Y032600D01*
X014880Y033600D02*
X014320Y033600D01*
X014320Y034600D02*
X014880Y034600D01*
X014880Y035600D02*
X014320Y035600D01*
X014320Y036600D02*
X014880Y036600D01*
X014880Y037600D02*
X014320Y037600D01*
X014320Y038600D02*
X014880Y038600D01*
X014880Y028600D02*
X014320Y028600D01*
X014320Y027600D02*
X014880Y027600D01*
X014880Y026600D02*
X014320Y026600D01*
X014320Y025600D02*
X014880Y025600D01*
X014880Y024600D02*
X014320Y024600D01*
X014320Y023600D02*
X014880Y023600D01*
X014880Y022600D02*
X014320Y022600D01*
X014320Y021600D02*
X014880Y021600D01*
X014880Y020600D02*
X014320Y020600D01*
X014320Y019600D02*
X014880Y019600D01*
X014880Y018600D02*
X014320Y018600D01*
X014320Y017600D02*
X014880Y017600D01*
X014880Y016600D02*
X014320Y016600D01*
X014320Y015600D02*
X014880Y015600D01*
X014880Y014600D02*
X014320Y014600D01*
X014320Y013600D02*
X014880Y013600D01*
X014880Y012600D02*
X014320Y012600D01*
X014320Y011600D02*
X014880Y011600D01*
X014880Y010600D02*
X014320Y010600D01*
X014320Y009600D02*
X014880Y009600D01*
X002880Y010600D02*
X002320Y010600D01*
X002320Y011600D02*
X002880Y011600D01*
X002880Y012600D02*
X002320Y012600D01*
X002320Y013600D02*
X002880Y013600D01*
X002880Y014600D02*
X002320Y014600D01*
X002320Y015600D02*
X002880Y015600D01*
X002880Y016600D02*
X002320Y016600D01*
X002320Y017600D02*
X002880Y017600D01*
X002880Y018600D02*
X002320Y018600D01*
X002320Y019600D02*
X002880Y019600D01*
X002880Y020600D02*
X002320Y020600D01*
X002320Y021600D02*
X002880Y021600D01*
X002880Y024600D02*
X002320Y024600D01*
X002320Y025600D02*
X002880Y025600D01*
X002880Y026600D02*
X002320Y026600D01*
X002320Y027600D02*
X002880Y027600D01*
X002880Y028600D02*
X002320Y028600D01*
X002320Y029600D02*
X002880Y029600D01*
X002880Y030600D02*
X002320Y030600D01*
X002320Y031600D02*
X002880Y031600D01*
X002880Y032600D02*
X002320Y032600D01*
X002320Y033600D02*
X002880Y033600D01*
X002880Y034600D02*
X002320Y034600D01*
X002320Y035600D02*
X002880Y035600D01*
D11*
X005100Y047100D03*
X005100Y050100D03*
X008100Y050100D03*
X008100Y047100D03*
X031100Y054100D03*
X032100Y054100D03*
X033100Y054100D03*
X034100Y054100D03*
X034100Y057100D03*
X033100Y057100D03*
X032100Y057100D03*
X031100Y057100D03*
X049650Y029100D03*
X051550Y029100D03*
X058600Y037100D03*
X058600Y038100D03*
X058600Y039100D03*
X058600Y040100D03*
X061600Y040100D03*
X061600Y039100D03*
X061600Y038100D03*
X061600Y037100D03*
D12*
X063100Y036600D03*
X064600Y036600D03*
X064600Y040600D03*
X063100Y040600D03*
X056600Y038600D03*
X056600Y036600D03*
X057100Y030100D03*
X055600Y030100D03*
X053600Y027100D03*
X053600Y025100D03*
X055600Y026100D03*
X057100Y026100D03*
X056600Y023100D03*
X055600Y023100D03*
X053600Y022100D03*
X053600Y020100D03*
X055600Y020600D03*
X056600Y020600D03*
X056600Y018100D03*
X055600Y018100D03*
X054100Y015600D03*
X052100Y015600D03*
X052100Y017100D03*
X048100Y017100D03*
X048100Y015600D03*
X045100Y016600D03*
X045100Y018600D03*
X047600Y024100D03*
X047600Y026100D03*
X058100Y015600D03*
X054600Y006100D03*
X054600Y004100D03*
X052600Y001600D03*
X056600Y001600D03*
X043600Y004100D03*
X043600Y006100D03*
X036100Y009600D03*
X036100Y011600D03*
X036100Y016600D03*
X036100Y018600D03*
X033600Y020600D03*
X033600Y022600D03*
X022100Y026600D03*
X022100Y028600D03*
X022100Y036600D03*
X022100Y038600D03*
X033600Y038100D03*
X033600Y036100D03*
X045100Y041600D03*
X045100Y043600D03*
X052100Y053600D03*
X054100Y053600D03*
X054600Y059600D03*
X052600Y059600D03*
X043100Y060100D03*
X039100Y060100D03*
X037600Y060100D03*
X037100Y058600D03*
X035600Y060100D03*
X034600Y060100D03*
X033100Y058600D03*
X031600Y058600D03*
X031600Y060100D03*
X032600Y060100D03*
X032100Y061600D03*
X033100Y061600D03*
X030100Y061600D03*
X029100Y061600D03*
X027600Y060100D03*
X027600Y058600D03*
X029600Y056600D03*
X029600Y054600D03*
X033600Y051600D03*
X033600Y049600D03*
X035600Y054600D03*
X035600Y056600D03*
X037100Y061600D03*
X027100Y061600D03*
X011100Y060100D03*
X009600Y059600D03*
X009600Y058100D03*
X011100Y058100D03*
X009600Y055100D03*
X009600Y053600D03*
X005600Y053600D03*
X005600Y055100D03*
X003600Y053600D03*
X003600Y057600D03*
X003600Y058850D03*
X003100Y059600D03*
X004100Y059600D03*
X005600Y059600D03*
X005600Y058100D03*
X005100Y061100D03*
X007100Y061100D03*
X007600Y045100D03*
X005600Y045100D03*
X007600Y038600D03*
X009600Y038600D03*
X010100Y035600D03*
X010100Y033600D03*
X010600Y021600D03*
X010600Y019600D03*
X013600Y006100D03*
X013600Y004100D03*
X003600Y006100D03*
X001600Y006100D03*
X023600Y006100D03*
X023600Y004100D03*
X026600Y001600D03*
X030600Y001600D03*
X033100Y001600D03*
X033100Y002600D03*
X033600Y004100D03*
X033600Y006100D03*
D13*
X008100Y061100D03*
D14*
X009100Y061100D03*
D15*
X012600Y063100D03*
X012600Y064100D03*
X013600Y064100D03*
X013600Y063100D03*
X014600Y063100D03*
X014600Y064100D03*
X015600Y064100D03*
X015600Y063100D03*
X016600Y063100D03*
X016600Y064100D03*
X017600Y064100D03*
X017600Y063100D03*
X018600Y063100D03*
X018600Y064100D03*
X019600Y064100D03*
X019600Y063100D03*
X020600Y063100D03*
X020600Y064100D03*
X021600Y064100D03*
X021600Y063100D03*
X022600Y063100D03*
X022600Y064100D03*
X023600Y064100D03*
X023600Y063100D03*
X024600Y063100D03*
X024600Y064100D03*
X047600Y064100D03*
X047600Y063100D03*
X048600Y063100D03*
X048600Y064100D03*
X049600Y064100D03*
X049600Y063100D03*
X050600Y063100D03*
X050600Y064100D03*
X051600Y064100D03*
X051600Y063100D03*
X052600Y063100D03*
X052600Y064100D03*
X053600Y064100D03*
X053600Y063100D03*
X054600Y063100D03*
X054600Y064100D03*
X055600Y064100D03*
X055600Y063100D03*
X056600Y063100D03*
X056600Y064100D03*
X057600Y064100D03*
X057600Y063100D03*
X058600Y063100D03*
X058600Y064100D03*
X059600Y064100D03*
X059600Y063100D03*
D16*
X063100Y060420D02*
X063100Y059780D01*
X065100Y059780D02*
X065100Y060420D01*
X048990Y013700D02*
X048990Y013060D01*
X047210Y013060D02*
X047210Y013700D01*
X047210Y011140D02*
X047210Y010500D01*
X047600Y008920D02*
X047600Y008280D01*
X048600Y008280D02*
X048600Y008920D01*
X048990Y010500D02*
X048990Y011140D01*
D17*
X037187Y062893D02*
X037187Y063759D01*
X035533Y066475D02*
X034667Y066475D01*
X031687Y063759D02*
X031687Y062893D01*
X030033Y066475D02*
X029167Y066475D01*
X009687Y063759D02*
X009687Y062893D01*
X008033Y066475D02*
X007167Y066475D01*
D18*
X057600Y060600D03*
X057600Y059600D03*
X058600Y059600D03*
X058600Y060600D03*
X059600Y060600D03*
X059600Y059600D03*
D19*
X056069Y011600D03*
X052131Y011600D03*
D20*
X044757Y065535D02*
X044757Y066235D01*
X042450Y066200D02*
X041750Y066200D01*
X039443Y066235D02*
X039443Y065535D01*
D21*
X040761Y064704D03*
X041588Y064704D03*
X042612Y064704D03*
X043439Y064704D03*
X043439Y063719D03*
X040761Y063719D03*
D22*
X062460Y063456D02*
X062460Y064244D01*
X063956Y065031D02*
X064744Y065031D01*
X064744Y062630D02*
X063956Y062630D01*
D23*
X062100Y057600D03*
X066100Y057600D03*
D24*
X065600Y043377D02*
X065600Y042823D01*
X064600Y042823D02*
X064600Y043377D01*
X063600Y043377D02*
X063600Y042823D01*
X062600Y042823D02*
X062600Y043377D01*
X060600Y043377D02*
X060600Y042823D01*
X059600Y042823D02*
X059600Y043377D01*
X058600Y043377D02*
X058600Y042823D01*
X059323Y034600D02*
X059877Y034600D01*
X059877Y033600D02*
X059323Y033600D01*
X059323Y032600D02*
X059877Y032600D01*
X065323Y032600D02*
X065877Y032600D01*
X065877Y033600D02*
X065323Y033600D01*
X065323Y026600D02*
X065877Y026600D01*
X065877Y024600D02*
X065323Y024600D01*
X065323Y020100D02*
X065877Y020100D01*
X065877Y019100D02*
X065323Y019100D01*
X059877Y019100D02*
X059323Y019100D01*
X059323Y020100D02*
X059877Y020100D01*
X059877Y021100D02*
X059323Y021100D01*
X059323Y024600D02*
X059877Y024600D01*
X065323Y013100D02*
X065877Y013100D01*
X065877Y011100D02*
X065323Y011100D01*
X059877Y011100D02*
X059323Y011100D01*
D25*
X063100Y050600D03*
D26*
X063100Y048600D03*
D27*
X061600Y049100D03*
D28*
X064600Y049100D03*
D29*
X004220Y003136D02*
X004220Y002834D01*
X004834Y002220D01*
X011100Y002220D01*
X011100Y003100D01*
X011100Y003220D01*
X011100Y003980D01*
X011100Y003980D01*
X012880Y003980D01*
X013000Y004100D01*
X013600Y004100D01*
X015475Y004100D01*
X016100Y003475D01*
X016100Y003100D01*
X016100Y003475D02*
X017100Y003475D01*
X017605Y003980D01*
X021100Y003980D01*
X021220Y004100D01*
X023000Y004100D01*
X023600Y004100D01*
X030980Y004100D01*
X031100Y003980D01*
X031100Y003100D01*
X031100Y003980D02*
X031220Y004100D01*
X033600Y004100D01*
X034200Y004100D01*
X034320Y003980D01*
X041100Y003980D01*
X042880Y003980D01*
X043000Y004100D01*
X043600Y004100D01*
X044200Y004100D01*
X047980Y004100D01*
X048100Y003980D01*
X049100Y003980D01*
X049100Y003100D01*
X048100Y003100D02*
X048100Y003850D01*
X048100Y003980D01*
X045100Y006100D02*
X045100Y006320D01*
X045774Y006994D01*
X053106Y006994D01*
X054000Y006100D01*
X054600Y006100D01*
X054600Y004100D02*
X054000Y004100D01*
X053880Y003980D01*
X052100Y003980D01*
X052100Y003100D01*
X054600Y004100D02*
X055200Y004100D01*
X061980Y004100D01*
X062100Y003980D01*
X062100Y003100D01*
X064725Y011100D02*
X065600Y011100D01*
X064725Y011100D02*
X058354Y017471D01*
X056229Y017471D01*
X055600Y018100D01*
X055600Y020000D02*
X052700Y017100D01*
X052100Y017100D01*
X052100Y020100D02*
X051220Y020100D01*
X048987Y017867D01*
X046967Y017867D01*
X045700Y016600D01*
X045100Y016600D01*
X043600Y016600D01*
X045100Y018600D02*
X045700Y018600D01*
X047510Y020410D01*
X047600Y020410D01*
X047600Y024100D01*
X047600Y024700D01*
X045772Y026528D01*
X045772Y027576D01*
X044138Y029209D01*
X043568Y029209D01*
X039177Y033600D01*
X037600Y033600D01*
X037600Y031600D02*
X038480Y031600D01*
X038480Y027600D01*
X037600Y027600D01*
X033600Y022600D02*
X032100Y022600D01*
X031220Y022600D01*
X027471Y022600D01*
X026865Y023206D01*
X024639Y023206D01*
X021490Y026355D01*
X021490Y027390D01*
X022100Y028000D01*
X022100Y028600D01*
X020600Y028600D01*
X016447Y028600D01*
X010100Y034947D01*
X010100Y035000D01*
X010100Y035339D01*
X009741Y035339D01*
X009480Y035600D01*
X008600Y035600D01*
X010100Y035600D02*
X010100Y035339D01*
X008600Y033600D02*
X007720Y033600D01*
X006720Y034600D01*
X002600Y034600D01*
X008600Y033600D02*
X008600Y032910D01*
X008910Y032600D01*
X009480Y032030D01*
X009480Y030600D01*
X008600Y030600D01*
X008600Y032600D02*
X008910Y032600D01*
X008600Y040100D02*
X008600Y040980D01*
X007600Y041980D01*
X007600Y043100D01*
X007600Y043980D01*
X007320Y043980D01*
X006200Y045100D01*
X005600Y045100D01*
X008600Y040980D02*
X009600Y040980D01*
X009600Y040980D01*
X009600Y040100D01*
X009600Y040980D02*
X013220Y044600D01*
X014600Y044600D01*
X022100Y038600D02*
X023220Y038600D01*
X025220Y040600D01*
X026100Y040600D01*
X022100Y036600D02*
X020600Y036600D01*
X022100Y026600D02*
X022700Y026600D01*
X024200Y025100D01*
X026100Y025100D01*
X034190Y016600D02*
X036100Y016600D01*
X036100Y011600D02*
X035500Y011600D01*
X032888Y008988D01*
X029817Y008988D01*
X029205Y009600D01*
X026100Y009600D01*
X025571Y007006D02*
X025100Y006535D01*
X024635Y006535D01*
X024200Y006100D01*
X023600Y006100D01*
X025100Y006100D02*
X025100Y006535D01*
X025571Y007006D02*
X032094Y007006D01*
X033000Y006100D01*
X033600Y006100D01*
X034200Y006100D01*
X034200Y006349D01*
X034831Y006980D01*
X035100Y006980D01*
X035100Y007600D01*
X035100Y006980D02*
X035100Y006100D01*
X036100Y009600D02*
X037600Y009600D01*
X038480Y009600D01*
X039500Y009600D01*
X043000Y006100D01*
X043600Y006100D01*
X044200Y006100D01*
X044420Y006320D01*
X045100Y006320D01*
X041100Y003980D02*
X041100Y003100D01*
X048990Y010820D02*
X048990Y011736D01*
X048990Y013380D01*
X048990Y011736D02*
X051995Y011736D01*
X052131Y011600D01*
X053500Y011600D01*
X057500Y015600D01*
X058100Y015600D01*
X055600Y020000D02*
X055600Y020600D01*
X056206Y021206D01*
X058619Y021206D01*
X058725Y021100D01*
X059600Y021100D01*
X064725Y026600D02*
X060475Y030850D01*
X060475Y032600D01*
X059600Y032600D01*
X057100Y030100D02*
X056500Y030100D01*
X055600Y030100D01*
X055600Y027700D01*
X053600Y025700D01*
X053600Y025100D01*
X053600Y027100D02*
X052980Y027100D01*
X052100Y027100D01*
X053600Y027100D02*
X053600Y027700D01*
X053600Y035252D01*
X054948Y036600D01*
X055100Y036600D01*
X056600Y036600D01*
X057700Y038100D02*
X057200Y038600D01*
X056600Y038600D01*
X057700Y038100D02*
X058600Y038100D01*
X059600Y041100D02*
X061600Y039100D01*
X062965Y039100D01*
X065206Y036858D01*
X065206Y034329D01*
X064725Y033847D01*
X064725Y033600D01*
X065600Y033600D01*
X065600Y026600D02*
X064725Y026600D01*
X064600Y040600D02*
X064600Y043100D01*
X064600Y046946D01*
X065540Y047886D01*
X065540Y049491D01*
X062181Y052850D01*
X037950Y052850D01*
X036200Y054600D01*
X035600Y054600D01*
X035600Y056600D02*
X035000Y056600D01*
X033115Y054715D01*
X033100Y054715D01*
X030315Y054715D01*
X030200Y054600D01*
X029600Y054600D01*
X029000Y054600D01*
X028620Y054980D01*
X025600Y054980D01*
X025600Y054100D01*
X029600Y056600D02*
X030200Y056600D01*
X030307Y056494D01*
X031494Y056494D01*
X032100Y057100D01*
X032600Y059500D02*
X033050Y059500D01*
X035000Y057550D01*
X035000Y056600D01*
X033100Y054715D02*
X033100Y054100D01*
X033600Y051600D02*
X032100Y051600D01*
X033600Y051600D02*
X037751Y051600D01*
X041290Y048061D01*
X041290Y043548D01*
X043238Y041600D01*
X043600Y041600D01*
X045100Y041600D01*
X045100Y043600D02*
X045700Y043600D01*
X047220Y043600D01*
X048220Y044600D01*
X049100Y044600D01*
X053600Y055100D02*
X053600Y055850D01*
X053600Y056220D01*
X060720Y056220D01*
X062100Y057600D01*
X057600Y060600D02*
X057600Y061240D01*
X057740Y061240D01*
X059600Y063100D01*
X059600Y064100D02*
X061496Y064100D01*
X061746Y063850D01*
X062460Y063850D01*
X057600Y060600D02*
X056960Y060600D01*
X056960Y060534D01*
X055406Y058980D01*
X055040Y058980D01*
X054600Y058540D01*
X054600Y058100D01*
X054600Y058540D02*
X054600Y058980D01*
X051830Y058980D01*
X051100Y059710D01*
X051100Y059600D01*
X051100Y059710D02*
X051100Y059820D01*
X049826Y061094D01*
X047651Y061094D01*
X044042Y064704D01*
X043439Y064704D01*
X043690Y065629D02*
X043120Y066200D01*
X042100Y066200D01*
X041080Y066200D01*
X040356Y065475D01*
X040356Y065109D01*
X040761Y064704D01*
X040356Y065109D02*
X039443Y065109D01*
X039443Y065885D01*
X039318Y065234D02*
X039443Y065109D01*
X039318Y065234D02*
X035100Y065234D01*
X033100Y063234D01*
X033100Y061600D01*
X032600Y060100D02*
X032600Y059500D01*
X028800Y059500D01*
X028200Y060100D01*
X027600Y060100D01*
X020600Y060100D02*
X020600Y059822D01*
X018878Y058100D01*
X011700Y058100D01*
X011100Y058100D01*
X010500Y058100D01*
X010200Y057800D01*
X009600Y057800D01*
X009600Y057500D01*
X009000Y056900D01*
X009000Y054000D01*
X005100Y050100D01*
X003600Y053600D02*
X003600Y054200D01*
X002987Y054813D01*
X002987Y059487D01*
X003100Y059600D01*
X003700Y060200D01*
X010400Y060200D01*
X010500Y060100D01*
X011100Y060100D01*
X011700Y060100D01*
X012140Y060540D01*
X012600Y060540D01*
X012600Y060980D01*
X013600Y060980D01*
X013600Y060100D01*
X012600Y060100D02*
X012600Y060540D01*
X009600Y058100D02*
X009600Y057800D01*
X031220Y041600D02*
X031220Y038100D01*
X032100Y038100D01*
X033600Y036100D02*
X036220Y036100D01*
X036720Y035600D01*
X037600Y035600D01*
X032100Y041600D02*
X031220Y041600D01*
X047659Y061861D02*
X050939Y061861D01*
X052600Y060200D01*
X052600Y059600D01*
X052600Y058100D02*
X052600Y057220D01*
X053600Y056220D01*
X047659Y061861D02*
X044757Y064762D01*
X044757Y064865D01*
X044757Y065627D01*
X044757Y065629D01*
X043690Y065629D01*
X044757Y065629D02*
X044757Y065885D01*
X035100Y065722D02*
X035100Y065234D01*
X035100Y065722D02*
X035100Y066475D01*
X059600Y043975D02*
X059600Y043100D01*
X059600Y041100D01*
X059637Y043975D02*
X059600Y043975D01*
X059637Y043975D02*
X064600Y048938D01*
X064600Y049100D01*
X063100Y048600D02*
X063040Y048600D01*
X062540Y049100D01*
X061600Y049100D01*
X049100Y020100D02*
X048220Y020100D01*
X047910Y020410D01*
X047600Y020410D01*
X021100Y003980D02*
X021100Y003850D01*
X021100Y003100D01*
X019100Y006100D02*
X019100Y006980D01*
X015100Y006980D01*
X015100Y006100D01*
X015100Y006980D02*
X014831Y006980D01*
X014200Y006349D01*
X014200Y006100D01*
X013600Y006100D01*
X013000Y006100D01*
X013000Y006202D01*
X011602Y007600D01*
X009100Y007600D01*
X004220Y003136D02*
X001856Y005500D01*
X001600Y005500D01*
X001600Y006100D01*
X001600Y006700D01*
X001484Y006816D01*
X001484Y010364D01*
X001720Y010600D01*
X002600Y010600D01*
X008471Y017600D02*
X003480Y022591D01*
X003480Y024600D01*
X002600Y024600D01*
X008471Y017600D02*
X008600Y017600D01*
X017100Y003475D02*
X017100Y003100D01*
D30*
X017834Y004826D03*
X019551Y007477D03*
X016749Y009002D03*
X016620Y011318D03*
X018739Y011768D03*
X017651Y016130D03*
X019179Y017009D03*
X022214Y017242D03*
X024439Y017599D03*
X024358Y018915D03*
X025364Y020183D03*
X028437Y023239D03*
X029506Y021733D03*
X029123Y020907D03*
X029956Y020196D03*
X028826Y018620D03*
X030738Y017299D03*
X034080Y014600D03*
X034190Y016600D03*
X035343Y012162D03*
X035697Y010140D03*
X038970Y014481D03*
X040482Y017565D03*
X036246Y021750D03*
X034464Y022140D03*
X034582Y027100D03*
X033190Y027350D03*
X034976Y029126D03*
X034709Y029867D03*
X037446Y029201D03*
X043783Y029729D03*
X044290Y034150D03*
X047800Y035452D03*
X044504Y039206D03*
X046726Y040035D03*
X046513Y042119D03*
X046530Y044895D03*
X041810Y043770D03*
X036368Y042171D03*
X035017Y046484D03*
X045564Y051666D03*
X046371Y053630D03*
X045835Y054053D03*
X051977Y052205D03*
X052902Y049059D03*
X059207Y052205D03*
X061005Y053821D03*
X064081Y058052D03*
X056123Y060457D03*
X052030Y057345D03*
X048101Y062683D03*
X046730Y063525D03*
X022684Y057924D03*
X017473Y049479D03*
X018998Y037649D03*
X016536Y037078D03*
X016964Y036077D03*
X017350Y035153D03*
X012839Y031210D03*
X018359Y024750D03*
X019309Y024820D03*
X024016Y027858D03*
X024803Y027533D03*
X027527Y027075D03*
X023379Y035702D03*
X011777Y021428D03*
X004094Y023026D03*
X011296Y008131D03*
X011539Y006928D03*
X020871Y001425D03*
X023107Y006734D03*
X027845Y012565D03*
X030082Y011791D03*
X030071Y009692D03*
X029192Y008851D03*
X041980Y005476D03*
X042508Y012121D03*
D31*
X035384Y012121D01*
X035343Y012162D01*
X033321Y010140D01*
X030519Y010140D01*
X030071Y009692D01*
X029901Y010060D02*
X021800Y010060D01*
X021340Y009600D01*
X020600Y009600D01*
X020595Y008075D02*
X019831Y008075D01*
X019808Y008098D01*
X019294Y008098D01*
X019272Y008075D01*
X016812Y008075D01*
X016366Y008521D01*
X009076Y008521D01*
X008600Y008045D01*
X008600Y007156D01*
X008284Y006840D01*
X007100Y006840D01*
X007100Y006100D01*
X006291Y006850D02*
X005884Y006850D01*
X005635Y006601D01*
X005635Y004305D01*
X006100Y003840D01*
X006100Y003100D01*
X006892Y004568D02*
X017312Y004568D01*
X017436Y004445D01*
X017990Y004445D01*
X018114Y004568D01*
X050372Y004568D01*
X051100Y003840D01*
X051100Y003100D01*
X051680Y002060D02*
X026400Y002060D01*
X026100Y002360D01*
X026100Y003100D01*
X023954Y005094D02*
X049834Y005094D01*
X050100Y005360D01*
X050100Y006100D01*
X051594Y004854D02*
X023816Y004854D01*
X020595Y008075D01*
X020105Y007835D02*
X019731Y007835D01*
X019708Y007857D01*
X019394Y007857D01*
X019371Y007835D01*
X016713Y007835D01*
X016417Y008131D01*
X011296Y008131D01*
X011539Y006928D02*
X013107Y005360D01*
X016100Y005360D01*
X016100Y006100D01*
X017048Y005118D02*
X017262Y005331D01*
X019262Y005331D01*
X019560Y005629D01*
X019560Y007468D01*
X019551Y007477D01*
X020105Y007835D02*
X021100Y006840D01*
X021100Y006100D01*
X023107Y005941D02*
X023954Y005094D01*
X023107Y005941D02*
X023107Y006734D01*
X019100Y003100D02*
X019100Y002360D01*
X020578Y000882D01*
X058622Y000882D01*
X060100Y002360D01*
X060100Y003100D01*
X061100Y003100D02*
X061100Y002360D01*
X062294Y002360D01*
X062562Y002628D01*
X062562Y004056D01*
X061613Y005005D01*
X057249Y005005D01*
X056600Y005654D01*
X056600Y006537D01*
X056287Y006850D01*
X055334Y006850D01*
X054404Y007780D01*
X043509Y007780D01*
X041149Y010140D01*
X035697Y010140D01*
X035601Y011140D02*
X033059Y008597D01*
X029446Y008597D01*
X029192Y008851D01*
X017470Y008851D01*
X016939Y009382D01*
X015775Y009382D01*
X015533Y009140D01*
X007693Y009140D01*
X006590Y008037D01*
X006590Y007149D01*
X006291Y006850D01*
X006100Y006100D02*
X006100Y005360D01*
X006892Y004568D01*
X005100Y006860D02*
X005100Y007600D01*
X005100Y006860D02*
X003896Y006860D01*
X003621Y007135D01*
X003621Y011319D01*
X003340Y011600D01*
X002600Y011600D01*
X003033Y011100D02*
X002167Y011100D01*
X001860Y011407D01*
X001860Y013600D01*
X002600Y013600D01*
X001860Y013600D02*
X001108Y014352D01*
X001108Y032848D01*
X001860Y033600D01*
X002600Y033600D01*
X002600Y027600D02*
X001860Y027600D01*
X001369Y027109D01*
X001369Y015749D01*
X002058Y015060D01*
X003400Y015060D01*
X007860Y010600D01*
X008600Y010600D01*
X008085Y012115D02*
X002600Y017600D01*
X003340Y017916D02*
X003340Y018600D01*
X002600Y018600D01*
X003340Y017916D02*
X008196Y013060D01*
X019400Y013060D01*
X019860Y012600D01*
X020600Y012600D01*
X020600Y011600D02*
X019860Y011600D01*
X019444Y011600D01*
X018896Y012148D01*
X018581Y012148D01*
X018548Y012115D01*
X008085Y012115D01*
X010880Y014060D02*
X019400Y014060D01*
X019860Y013600D01*
X020600Y013600D01*
X020600Y014600D02*
X019860Y014600D01*
X018397Y014600D01*
X017857Y015140D01*
X010140Y015140D01*
X009180Y016100D01*
X007840Y016100D01*
X003340Y020600D01*
X002600Y020600D01*
X002600Y019600D02*
X003517Y019600D01*
X008057Y015060D01*
X009880Y015060D01*
X010880Y014060D01*
X013009Y016600D02*
X008600Y016600D01*
X007840Y017100D02*
X018091Y017100D01*
X019591Y015600D01*
X019860Y015600D01*
X020600Y015600D01*
X020600Y016600D02*
X019860Y016600D01*
X019860Y016866D01*
X017626Y019100D01*
X013033Y019100D01*
X011533Y020600D01*
X008600Y020600D01*
X008600Y019600D02*
X009340Y019600D01*
X010809Y018131D01*
X018058Y018131D01*
X019179Y017009D01*
X020083Y017060D02*
X021517Y017060D01*
X025477Y013100D01*
X026540Y013100D01*
X026985Y012655D01*
X026985Y012209D01*
X027489Y011705D01*
X029996Y011705D01*
X030082Y011791D01*
X030285Y012126D02*
X032843Y012126D01*
X033857Y013140D01*
X042400Y013140D01*
X042860Y013600D01*
X043600Y013600D01*
X043600Y014600D02*
X042860Y014600D01*
X042359Y015101D01*
X027341Y015101D01*
X026840Y014600D01*
X026100Y014600D01*
X026680Y014100D02*
X025356Y014100D01*
X022214Y017242D01*
X022003Y018100D02*
X023972Y016131D01*
X026917Y016131D01*
X027386Y016600D01*
X032100Y016600D01*
X031574Y017114D02*
X042374Y017114D01*
X042860Y017600D01*
X043600Y017600D01*
X042782Y018067D02*
X046051Y018067D01*
X047203Y019220D01*
X049159Y019220D01*
X049840Y019901D01*
X049840Y022302D01*
X049542Y022600D01*
X048659Y022600D01*
X048360Y022899D01*
X048360Y023320D01*
X048640Y023600D01*
X049542Y023600D01*
X049840Y023898D01*
X049840Y027100D01*
X049100Y027100D01*
X048437Y027100D01*
X048437Y029980D01*
X050719Y032261D01*
X050719Y033158D01*
X054624Y037063D01*
X055503Y037063D01*
X055846Y037406D01*
X055846Y040078D01*
X056088Y040320D01*
X056088Y045352D01*
X055840Y045600D01*
X055100Y045600D01*
X055532Y045100D02*
X055846Y044785D01*
X055846Y042398D01*
X055549Y042100D01*
X054520Y042100D01*
X051020Y038600D01*
X049100Y038600D01*
X050820Y038060D02*
X054360Y041600D01*
X055100Y041600D01*
X055100Y042600D02*
X054360Y042600D01*
X050888Y039128D01*
X044964Y039128D01*
X044436Y038600D01*
X044340Y038600D01*
X043720Y038600D01*
X043600Y038600D01*
X042860Y038600D01*
X040770Y040690D01*
X040770Y041387D01*
X038023Y044135D01*
X035960Y044135D01*
X034034Y046060D01*
X027640Y046060D01*
X027179Y045600D01*
X026840Y045600D01*
X026100Y045600D01*
X025360Y045600D01*
X022360Y042600D01*
X020600Y042600D01*
X020167Y043100D02*
X021814Y043100D01*
X024774Y046060D01*
X027161Y046060D01*
X028701Y047600D01*
X032100Y047600D01*
X032592Y048060D02*
X035552Y045100D01*
X038043Y045100D01*
X040111Y043032D01*
X040111Y042802D01*
X043313Y039600D01*
X043600Y039600D01*
X043645Y039600D01*
X044340Y039600D01*
X046930Y039600D01*
X047390Y040060D01*
X050820Y040060D01*
X054360Y043600D01*
X055100Y043600D01*
X055100Y044600D02*
X054360Y044600D01*
X050822Y041062D01*
X044802Y041062D01*
X044340Y040600D01*
X043720Y040600D01*
X043600Y040600D01*
X038100Y046100D01*
X036089Y046100D01*
X033049Y049140D01*
X027300Y049140D01*
X026840Y049600D01*
X026100Y049600D01*
X025360Y049600D01*
X021340Y045580D01*
X021340Y044600D01*
X020600Y044600D01*
X020600Y045600D02*
X019860Y045600D01*
X019860Y046806D01*
X020153Y047100D01*
X021039Y047100D01*
X025039Y051100D01*
X029332Y051100D01*
X030552Y052320D01*
X048995Y052320D01*
X054215Y047100D01*
X055533Y047100D01*
X055840Y046793D01*
X055840Y045600D01*
X055532Y045100D02*
X053615Y045100D01*
X049615Y049100D01*
X048130Y049100D01*
X045564Y051666D01*
X046371Y053630D02*
X046371Y053630D01*
X046371Y054057D01*
X046140Y054289D01*
X046140Y055580D01*
X046640Y056081D01*
X048321Y056081D01*
X049600Y057360D01*
X049600Y058100D01*
X049100Y058556D02*
X049384Y058840D01*
X050600Y058840D01*
X050600Y058100D01*
X049615Y057345D02*
X049600Y057360D01*
X049615Y057345D02*
X052030Y057345D01*
X050600Y055100D02*
X050600Y054360D01*
X055104Y054360D01*
X055824Y053640D01*
X060278Y053640D01*
X064461Y057823D01*
X064461Y060977D01*
X065560Y062076D01*
X065560Y065380D01*
X065088Y065852D01*
X052352Y065852D01*
X050600Y064100D01*
X048600Y064100D02*
X048101Y063601D01*
X048101Y062683D01*
X047600Y063100D02*
X047155Y063100D01*
X046730Y063525D01*
X046730Y065032D01*
X044655Y067107D01*
X033548Y067107D01*
X027130Y060690D01*
X027130Y059530D01*
X027600Y059060D01*
X027600Y058600D01*
X026063Y056787D02*
X026063Y063690D01*
X024396Y065358D01*
X015858Y065358D01*
X014600Y064100D01*
X014100Y063600D02*
X014600Y063100D01*
X014100Y063600D02*
X012388Y063600D01*
X012084Y063296D01*
X012084Y062905D01*
X012400Y062589D01*
X012555Y062589D01*
X014130Y061014D01*
X014130Y059487D01*
X014498Y059120D01*
X019360Y059120D01*
X019600Y059360D01*
X019600Y060100D01*
X018600Y060100D02*
X018600Y060840D01*
X019600Y061840D01*
X019600Y063100D01*
X020100Y063600D02*
X019600Y064100D01*
X020100Y063600D02*
X021806Y063600D01*
X022097Y063309D01*
X022097Y062234D01*
X021600Y061737D01*
X021600Y060100D01*
X021097Y059653D02*
X021097Y062597D01*
X021600Y063100D01*
X022100Y063888D02*
X022100Y064331D01*
X021800Y064632D01*
X019132Y064632D01*
X018600Y064100D01*
X017600Y063100D02*
X018068Y062632D01*
X018068Y059608D01*
X017820Y059360D01*
X014600Y059360D01*
X014600Y060100D01*
X014860Y060840D02*
X015600Y060840D01*
X015600Y060100D01*
X015968Y060840D02*
X013708Y063100D01*
X013600Y063100D01*
X012600Y063100D02*
X014860Y060840D01*
X015968Y060840D02*
X016600Y060840D01*
X016600Y060100D01*
X017600Y060100D02*
X017600Y060840D01*
X015600Y062840D01*
X015600Y063100D01*
X015600Y064100D02*
X016617Y065117D01*
X024286Y065117D01*
X025600Y063803D01*
X025600Y060100D01*
X025600Y059360D01*
X024916Y059360D01*
X020100Y054544D01*
X020100Y053659D01*
X018602Y052160D01*
X016900Y052160D01*
X015340Y050600D01*
X014600Y050600D01*
X014600Y049600D02*
X015636Y049600D01*
X017892Y051857D01*
X019314Y051857D01*
X021100Y053642D01*
X021100Y054545D01*
X021639Y055084D01*
X024360Y055084D01*
X026063Y056787D01*
X024360Y055084D02*
X024600Y054844D01*
X024600Y054100D01*
X023600Y054100D02*
X023600Y054840D01*
X022406Y054840D01*
X022066Y054500D01*
X022066Y053505D01*
X017161Y048600D01*
X015340Y048600D01*
X014600Y048600D01*
X014600Y047600D02*
X016645Y047600D01*
X022405Y053360D01*
X022600Y053360D01*
X022600Y054100D01*
X021600Y054100D02*
X021600Y053605D01*
X017473Y049479D01*
X015038Y047100D02*
X014156Y047100D01*
X013851Y047405D01*
X013851Y051611D01*
X015600Y053360D01*
X015600Y054100D01*
X015600Y054145D01*
X015600Y054840D01*
X016284Y054840D01*
X021097Y059653D01*
X022135Y059635D02*
X022135Y060715D01*
X022600Y061180D01*
X022600Y063100D01*
X022388Y063600D02*
X022825Y063600D01*
X023097Y063328D01*
X023097Y062541D01*
X022840Y062284D01*
X022840Y061080D01*
X022600Y060840D01*
X022600Y060100D01*
X022135Y059635D02*
X016600Y054100D01*
X017600Y054100D02*
X023100Y059600D01*
X023100Y061781D01*
X023600Y062281D01*
X023600Y063100D01*
X024103Y063392D02*
X023600Y063895D01*
X023600Y064100D01*
X024103Y064300D02*
X023532Y064872D01*
X017372Y064872D01*
X016600Y064100D01*
X022100Y063888D02*
X022388Y063600D01*
X024103Y063392D02*
X024103Y059662D01*
X023608Y059167D01*
X023385Y059167D01*
X018600Y054382D01*
X018600Y054100D01*
X019600Y054100D02*
X019600Y054840D01*
X022684Y057924D01*
X024600Y060100D02*
X024600Y060840D01*
X025106Y061346D01*
X025106Y063303D01*
X024806Y063603D01*
X024394Y063603D01*
X024103Y063894D01*
X024103Y064300D01*
X029100Y061600D02*
X029560Y061600D01*
X029790Y061370D01*
X030100Y061370D01*
X030100Y061140D01*
X031140Y060100D01*
X031600Y060100D01*
X032100Y061600D02*
X032100Y062060D01*
X031906Y062060D01*
X031687Y062279D01*
X031687Y063326D01*
X030100Y061600D02*
X030100Y061370D01*
X037100Y061600D02*
X037100Y062193D01*
X037187Y062279D01*
X037187Y063326D01*
X040761Y063719D02*
X044141Y060340D01*
X047100Y060340D01*
X047100Y059600D01*
X047100Y058860D01*
X046620Y058860D01*
X046600Y058840D01*
X046600Y058100D01*
X047600Y057100D02*
X048600Y058100D01*
X049100Y058556D02*
X049100Y057643D01*
X048077Y056620D01*
X046829Y056620D01*
X045835Y055626D01*
X045835Y054053D01*
X046600Y054360D02*
X046600Y055100D01*
X046600Y054360D02*
X046840Y054120D01*
X054231Y054120D01*
X054951Y053400D01*
X060584Y053400D01*
X061005Y053821D01*
X060179Y053880D02*
X064081Y057782D01*
X064081Y058052D01*
X063497Y057538D02*
X063497Y058856D01*
X063941Y059301D01*
X063941Y061005D01*
X065320Y062384D01*
X065320Y065281D01*
X064989Y065612D01*
X054112Y065612D01*
X052600Y064100D01*
X053600Y064100D02*
X054100Y063600D01*
X054100Y062480D01*
X056123Y060457D01*
X057100Y059600D02*
X057600Y059600D01*
X057100Y059600D02*
X057100Y059340D01*
X056600Y058840D01*
X056600Y058100D01*
X055600Y057360D02*
X057801Y057360D01*
X058100Y057659D01*
X058100Y058600D01*
X058600Y059100D01*
X058600Y059600D01*
X059470Y058970D02*
X058600Y058100D01*
X059470Y058970D02*
X059682Y058970D01*
X060102Y059390D01*
X060102Y063319D01*
X059821Y063600D01*
X058100Y063600D01*
X057600Y064100D01*
X056321Y064821D02*
X062700Y064821D01*
X063041Y064479D01*
X063041Y062240D01*
X062589Y061788D01*
X062589Y058426D01*
X062623Y058393D01*
X062623Y057363D01*
X060360Y055100D01*
X059600Y055100D01*
X059980Y054360D02*
X058600Y054360D01*
X058600Y055100D01*
X059980Y054360D02*
X063172Y057552D01*
X063172Y058991D01*
X063611Y059430D01*
X063611Y060855D01*
X063364Y061102D01*
X063364Y064497D01*
X062785Y065076D01*
X055576Y065076D01*
X054600Y064100D01*
X055600Y064100D02*
X056321Y064821D01*
X055600Y058100D02*
X055600Y057360D01*
X055600Y055100D02*
X055600Y054360D01*
X056080Y053880D01*
X060179Y053880D01*
X060079Y054120D02*
X063497Y057538D01*
X060079Y054120D02*
X056840Y054120D01*
X056600Y054360D01*
X056600Y055100D01*
X059207Y052205D02*
X056142Y049140D01*
X052983Y049140D01*
X052902Y049059D01*
X054360Y050600D02*
X052755Y052205D01*
X051977Y052205D01*
X054360Y050600D02*
X055100Y050600D01*
X055100Y046600D02*
X054360Y046600D01*
X048893Y052067D01*
X031633Y052067D01*
X031359Y051793D01*
X031359Y050072D01*
X036388Y050072D01*
X036860Y049600D01*
X037600Y049600D01*
X035017Y046484D02*
X032901Y048600D01*
X032100Y048600D01*
X032592Y048060D02*
X027300Y048060D01*
X026840Y047600D01*
X026100Y047600D01*
X025340Y047600D01*
X021340Y043600D01*
X020600Y043600D01*
X020167Y043100D02*
X019617Y042549D01*
X019617Y038843D01*
X019860Y038600D01*
X020600Y038600D01*
X020600Y037600D02*
X021767Y037600D01*
X022567Y036800D01*
X022567Y035636D01*
X024604Y033600D01*
X027569Y033600D01*
X030580Y030590D01*
X032550Y030590D01*
X032840Y030299D01*
X032840Y029100D01*
X032100Y029100D01*
X031360Y029100D01*
X030865Y028605D01*
X030865Y026252D01*
X031557Y025560D01*
X034900Y025560D01*
X036860Y023600D01*
X037600Y023600D01*
X037600Y022600D02*
X036860Y022600D01*
X034360Y025100D01*
X032840Y025100D01*
X032470Y025100D01*
X032100Y025100D01*
X031360Y025100D01*
X028896Y027564D01*
X025372Y027564D01*
X024960Y027153D01*
X024627Y027153D01*
X024016Y027764D01*
X024016Y027858D01*
X024016Y027858D01*
X024803Y027735D02*
X025646Y028577D01*
X029837Y028577D01*
X031360Y030100D01*
X032100Y030100D01*
X032100Y031100D02*
X032840Y031100D01*
X034360Y031100D01*
X036860Y028600D01*
X037600Y028600D01*
X037446Y029201D02*
X034787Y031860D01*
X033080Y031860D01*
X032840Y032100D01*
X032100Y032100D01*
X032100Y033100D02*
X038360Y033100D01*
X042860Y028600D01*
X043600Y028600D01*
X044031Y028100D02*
X043020Y028100D01*
X038990Y032130D01*
X034629Y032130D01*
X034159Y032600D01*
X030676Y032600D01*
X029176Y034100D01*
X026100Y034100D01*
X026100Y035100D02*
X030410Y035100D01*
X030888Y035578D01*
X034499Y035578D01*
X035017Y035060D01*
X038453Y035060D01*
X043783Y029729D01*
X044031Y028100D02*
X044820Y027311D01*
X044820Y020080D01*
X044340Y019600D01*
X043600Y019600D01*
X043600Y018600D02*
X042860Y018600D01*
X042400Y018140D01*
X027380Y018140D01*
X026840Y017600D01*
X026100Y017600D01*
X026100Y016600D02*
X026840Y016600D01*
X027140Y016900D01*
X031360Y016900D01*
X031574Y017114D01*
X030738Y017299D02*
X030578Y017140D01*
X024228Y017140D01*
X022268Y019100D01*
X019325Y019100D01*
X015825Y022600D01*
X014600Y022600D01*
X014600Y021600D02*
X013860Y021600D01*
X013860Y020382D01*
X014142Y020100D01*
X017043Y020100D01*
X020083Y017060D01*
X019459Y016072D02*
X017931Y017600D01*
X014600Y017600D01*
X014600Y016600D02*
X015340Y016600D01*
X017839Y016600D01*
X019299Y015140D01*
X021820Y015140D01*
X025360Y011600D01*
X026100Y011600D01*
X026100Y012600D02*
X025360Y012600D01*
X021888Y016072D01*
X019459Y016072D01*
X017651Y016130D02*
X013479Y016130D01*
X013009Y016600D01*
X014600Y020600D02*
X016882Y020600D01*
X019382Y018100D01*
X022003Y018100D01*
X023479Y018559D02*
X024439Y017599D01*
X023479Y018559D02*
X023479Y021663D01*
X021042Y024100D01*
X019446Y024100D01*
X018851Y024695D01*
X018851Y024803D01*
X015594Y028060D01*
X009800Y028060D01*
X009340Y027600D01*
X008600Y027600D01*
X010058Y026060D02*
X010598Y026600D01*
X014600Y026600D01*
X015031Y026100D02*
X015340Y026409D01*
X015340Y027600D01*
X014600Y027600D01*
X015031Y026100D02*
X011565Y026100D01*
X010565Y025100D01*
X002169Y025100D01*
X001860Y024791D01*
X001860Y016600D01*
X002600Y016600D01*
X001609Y015851D02*
X001609Y025565D01*
X002104Y026060D01*
X010058Y026060D01*
X011286Y023026D02*
X004094Y023026D01*
X003340Y021600D02*
X002600Y021600D01*
X003340Y021600D02*
X007840Y017100D01*
X011777Y021428D02*
X013488Y023140D01*
X019400Y023140D01*
X019860Y023600D01*
X020600Y023600D01*
X019309Y024820D02*
X019309Y024848D01*
X013561Y030596D01*
X012426Y030596D01*
X009340Y033682D01*
X009340Y034600D01*
X008600Y034600D01*
X012839Y031210D02*
X013287Y031210D01*
X019237Y025260D01*
X019669Y025260D01*
X019829Y025100D01*
X021043Y025100D01*
X024986Y021157D01*
X024986Y020560D01*
X025364Y020183D01*
X026100Y020600D02*
X026840Y020600D01*
X027973Y021733D01*
X029506Y021733D01*
X029506Y020106D01*
X029798Y019814D01*
X030215Y019814D01*
X030500Y020100D01*
X032544Y020100D01*
X032886Y020442D01*
X032886Y020556D01*
X033459Y021128D01*
X038388Y021128D01*
X041336Y024076D01*
X044082Y024076D01*
X044580Y023578D01*
X044580Y021840D01*
X044340Y021600D01*
X043600Y021600D01*
X044060Y022100D02*
X042860Y022100D01*
X039820Y019060D01*
X033300Y019060D01*
X032840Y018600D01*
X032100Y018600D01*
X032886Y019100D02*
X024543Y019100D01*
X024358Y018915D01*
X026100Y018600D02*
X026840Y018600D01*
X026860Y018620D01*
X028826Y018620D01*
X029956Y020196D02*
X031360Y021600D01*
X032100Y021600D01*
X033329Y020089D02*
X033329Y020089D01*
X032840Y019600D01*
X032100Y019600D01*
X032886Y019100D02*
X033386Y019600D01*
X037600Y019600D01*
X036629Y021370D02*
X036081Y021370D01*
X034085Y023365D01*
X029575Y023365D01*
X026840Y026100D01*
X026100Y026100D01*
X026542Y025600D02*
X025642Y025600D01*
X023100Y028142D01*
X023100Y028257D01*
X021573Y029785D01*
X020977Y029785D01*
X015340Y035422D01*
X015340Y041803D01*
X015043Y042100D01*
X014151Y042100D01*
X013859Y042392D01*
X013859Y043790D01*
X014169Y044100D01*
X015043Y044100D01*
X015356Y044413D01*
X015356Y044774D01*
X015031Y045100D01*
X014167Y045100D01*
X009600Y049667D01*
X009600Y053600D01*
X013609Y052369D02*
X013609Y046643D01*
X014152Y046100D01*
X015032Y046100D01*
X017495Y043637D01*
X017495Y037965D01*
X019860Y035600D01*
X020600Y035600D01*
X021031Y036100D02*
X020009Y036100D01*
X018378Y037731D01*
X018378Y043761D01*
X015038Y047100D01*
X015340Y043600D02*
X014600Y043600D01*
X015340Y043600D02*
X016190Y042750D01*
X016190Y038072D01*
X020162Y034100D01*
X021360Y034100D01*
X025360Y030100D01*
X026100Y030100D01*
X026100Y029100D02*
X023268Y029100D01*
X021231Y031137D01*
X019984Y031137D01*
X015728Y035393D01*
X015728Y042212D01*
X015728Y042212D01*
X015340Y042600D01*
X014600Y042600D01*
X019413Y038064D02*
X018998Y037649D01*
X019413Y038064D02*
X021650Y038064D01*
X022999Y036715D01*
X022999Y035544D01*
X023943Y034600D01*
X037600Y034600D01*
X038603Y035458D02*
X038603Y038597D01*
X037600Y039600D01*
X037135Y040067D02*
X036860Y039793D01*
X036860Y038600D01*
X037600Y038600D01*
X037600Y037600D02*
X036860Y037600D01*
X035820Y036560D01*
X030711Y036560D01*
X029776Y035625D01*
X023455Y035625D01*
X023379Y035702D01*
X021340Y035791D02*
X021340Y034600D01*
X020600Y034600D01*
X019860Y033754D02*
X016536Y037078D01*
X016964Y036077D02*
X019860Y033181D01*
X019860Y032600D01*
X020600Y032600D01*
X020600Y031600D02*
X019860Y031600D01*
X017350Y034110D01*
X017350Y035153D01*
X019860Y033754D02*
X019860Y033600D01*
X020600Y033600D01*
X021340Y035791D02*
X021031Y036100D01*
X020600Y039600D02*
X019860Y039600D01*
X019860Y040804D01*
X020156Y041100D01*
X023314Y041100D01*
X025314Y043100D01*
X028860Y043100D01*
X031360Y045600D01*
X032100Y045600D01*
X032100Y043600D02*
X030432Y043600D01*
X028932Y042100D01*
X025360Y042100D01*
X023860Y040600D01*
X020600Y040600D01*
X020600Y041600D02*
X023360Y041600D01*
X025360Y043600D01*
X025730Y043600D01*
X026100Y043600D01*
X026100Y041600D02*
X030020Y041600D01*
X031560Y043140D01*
X036400Y043140D01*
X036860Y043600D01*
X037600Y043600D01*
X037600Y042600D02*
X036860Y042600D01*
X034840Y042600D01*
X032840Y040600D01*
X032100Y040600D01*
X032990Y038793D02*
X036368Y042171D01*
X037600Y040600D02*
X038340Y040600D01*
X042830Y036110D01*
X047141Y036110D01*
X047800Y035452D01*
X048360Y034600D02*
X049100Y034600D01*
X049510Y035060D02*
X043184Y035060D01*
X038177Y040067D01*
X037135Y040067D01*
X041095Y041147D02*
X041095Y041407D01*
X037902Y044600D01*
X037600Y044600D01*
X037600Y045600D02*
X037883Y045600D01*
X041110Y042372D01*
X041110Y042152D01*
X043163Y040100D01*
X046661Y040100D01*
X046726Y040035D01*
X046513Y042119D02*
X046513Y042600D01*
X043600Y042600D01*
X043600Y043600D02*
X044340Y043600D01*
X044800Y043140D01*
X047900Y043140D01*
X048360Y043600D01*
X049100Y043600D01*
X049100Y042600D02*
X046513Y042600D01*
X046530Y044895D02*
X047235Y045600D01*
X049100Y045600D01*
X049100Y046600D02*
X046243Y046600D01*
X044703Y045060D01*
X043100Y045060D01*
X041810Y043770D01*
X041095Y041147D02*
X043108Y039134D01*
X044433Y039134D01*
X044504Y039206D01*
X044800Y038060D02*
X050820Y038060D01*
X050564Y037060D02*
X054104Y040600D01*
X055100Y040600D01*
X054498Y040078D02*
X049988Y035567D01*
X049988Y035538D01*
X049510Y035060D01*
X049504Y034060D02*
X054360Y038916D01*
X054360Y039600D01*
X055100Y039600D01*
X054498Y040078D02*
X055846Y040078D01*
X055100Y038600D02*
X049560Y033060D01*
X044800Y033060D01*
X044340Y032600D01*
X043600Y032600D01*
X043600Y031600D02*
X044340Y031600D01*
X044800Y032060D01*
X049491Y032060D01*
X050359Y032928D01*
X050359Y033156D01*
X054803Y037600D01*
X055100Y037600D01*
X058600Y039100D02*
X061100Y036600D01*
X063100Y036600D01*
X064600Y036600D01*
X055600Y026100D02*
X055600Y023100D01*
X054078Y020863D02*
X052840Y022100D01*
X052100Y022100D01*
X052558Y021600D02*
X053080Y021077D01*
X053080Y019791D01*
X052349Y019060D01*
X051619Y019060D01*
X051319Y018761D01*
X051319Y018167D01*
X048025Y014873D01*
X047652Y014873D01*
X044685Y011906D01*
X044685Y011753D01*
X043993Y011060D01*
X038800Y011060D01*
X038340Y010600D01*
X037600Y010600D01*
X037600Y011600D02*
X036860Y011600D01*
X036400Y011140D01*
X035601Y011140D01*
X033284Y013090D02*
X033794Y013600D01*
X037600Y013600D01*
X038548Y014060D02*
X038970Y014481D01*
X039127Y014861D02*
X038601Y014861D01*
X038340Y014600D01*
X037600Y014600D01*
X038548Y014060D02*
X033300Y014060D01*
X032840Y013600D01*
X032100Y013600D01*
X032100Y012600D02*
X031360Y012600D01*
X028459Y012600D01*
X028044Y012185D01*
X027688Y012185D01*
X027465Y012408D01*
X027465Y013315D01*
X026680Y014100D01*
X026840Y013600D02*
X026100Y013600D01*
X026840Y013600D02*
X027225Y013215D01*
X027225Y012308D01*
X027588Y011945D01*
X028144Y011945D01*
X028370Y012171D01*
X030239Y012171D01*
X030285Y012126D01*
X030886Y011126D02*
X022972Y011126D01*
X022038Y012060D01*
X019324Y012060D01*
X018784Y012600D01*
X014600Y012600D01*
X014600Y011600D02*
X015340Y011600D01*
X015508Y011768D01*
X018739Y011768D01*
X016620Y011318D02*
X016058Y011318D01*
X015340Y010600D01*
X014600Y010600D01*
X016749Y009002D02*
X017411Y008340D01*
X039306Y008340D01*
X039610Y008036D01*
X039610Y007149D01*
X039909Y006850D01*
X041617Y006850D01*
X043107Y005360D01*
X048100Y005360D01*
X048100Y006100D01*
X051594Y004854D02*
X052100Y005360D01*
X052100Y006100D01*
X051680Y002060D02*
X052140Y001600D01*
X052600Y001600D01*
X056100Y002360D02*
X056100Y003100D01*
X056100Y002360D02*
X035100Y002360D01*
X035100Y003100D01*
X033100Y001600D02*
X030600Y001600D01*
X031100Y005360D02*
X041864Y005360D01*
X041980Y005476D01*
X043600Y010600D02*
X045457Y010600D01*
X047898Y013041D01*
X047898Y013576D01*
X052417Y018094D01*
X052528Y018094D01*
X054078Y019643D01*
X054078Y020863D01*
X052840Y020360D02*
X052840Y019909D01*
X052317Y019385D01*
X051188Y019385D01*
X045935Y014131D01*
X039857Y014131D01*
X039127Y014861D01*
X040482Y017565D02*
X040448Y017600D01*
X037600Y017600D01*
X040482Y017565D02*
X042280Y017565D01*
X042782Y018067D01*
X042400Y016060D02*
X042860Y015600D01*
X043600Y015600D01*
X042400Y016060D02*
X027300Y016060D01*
X026840Y015600D01*
X026100Y015600D01*
X028370Y013090D02*
X027845Y012565D01*
X028370Y013090D02*
X033284Y013090D01*
X032843Y012126D02*
X032843Y011386D01*
X032596Y011140D01*
X031360Y011140D01*
X030726Y010506D01*
X030347Y010506D01*
X029901Y010060D01*
X030886Y011126D02*
X031360Y011600D01*
X032100Y011600D01*
X032100Y014600D02*
X034080Y014600D01*
X033329Y020089D02*
X040349Y020089D01*
X042860Y022600D01*
X043600Y022600D01*
X044060Y022100D02*
X044340Y022380D01*
X044340Y022860D01*
X043600Y023600D01*
X043600Y025600D02*
X042199Y025600D01*
X038735Y022135D01*
X036201Y022135D01*
X033696Y024640D01*
X029962Y024640D01*
X027527Y027075D01*
X026840Y027100D02*
X026100Y027100D01*
X026840Y027100D02*
X030100Y023840D01*
X034156Y023840D01*
X036246Y021750D01*
X036629Y021370D02*
X036860Y021600D01*
X037600Y021600D01*
X037600Y024600D02*
X036591Y024600D01*
X034591Y026600D01*
X031645Y026600D01*
X031360Y026885D01*
X031360Y027360D01*
X032100Y028100D01*
X031620Y028561D02*
X031120Y028060D01*
X031120Y026340D01*
X031360Y026100D01*
X032100Y026100D01*
X032100Y027100D02*
X032840Y027100D01*
X032970Y026970D01*
X034452Y026970D01*
X034582Y027100D01*
X036082Y025600D01*
X037600Y025600D01*
X037600Y026600D02*
X036860Y026600D01*
X036557Y026600D01*
X034596Y028561D01*
X034596Y029754D01*
X034709Y029867D01*
X034976Y029126D02*
X036962Y027140D01*
X042400Y027140D01*
X042860Y027600D01*
X043600Y027600D01*
X043600Y026600D02*
X042860Y026600D01*
X042388Y026128D01*
X036108Y026128D01*
X034749Y027486D01*
X033326Y027486D01*
X033190Y027350D01*
X034596Y028561D02*
X031620Y028561D01*
X028437Y023705D02*
X028437Y023239D01*
X028437Y023239D01*
X028437Y023705D02*
X026542Y025600D01*
X024803Y027533D02*
X024803Y027735D01*
X026100Y022600D02*
X026840Y022600D01*
X027300Y022140D01*
X034464Y022140D01*
X029123Y020907D02*
X028147Y020907D01*
X026840Y019600D01*
X026100Y019600D01*
X018359Y024750D02*
X016490Y024750D01*
X015340Y023600D01*
X014600Y023600D01*
X014600Y025600D02*
X013860Y025600D01*
X011286Y023026D01*
X002600Y015600D02*
X001860Y015600D01*
X001609Y015851D01*
X002600Y012600D02*
X003340Y012600D01*
X004100Y011840D01*
X004100Y007600D01*
X003100Y007600D02*
X003100Y008340D01*
X003341Y008581D01*
X003341Y010792D01*
X003033Y011100D01*
X010100Y006100D02*
X010100Y005360D01*
X010634Y004826D01*
X017834Y004826D01*
X017048Y005118D02*
X012082Y005118D01*
X011100Y006100D01*
X020871Y001425D02*
X021156Y001140D01*
X056880Y001140D01*
X058100Y002360D01*
X058100Y003100D01*
X052840Y020360D02*
X052100Y021100D01*
X052558Y021600D02*
X051340Y021600D01*
X049840Y023100D01*
X049100Y023100D01*
X049100Y022100D02*
X048360Y022100D01*
X048106Y022354D01*
X048106Y024731D01*
X046576Y026262D01*
X046576Y027485D01*
X038603Y035458D01*
X043600Y036600D02*
X044340Y036600D01*
X044800Y037060D01*
X050564Y037060D01*
X049504Y034060D02*
X044800Y034060D01*
X044340Y033600D01*
X043600Y033600D01*
X044290Y034150D02*
X044740Y034600D01*
X048360Y034600D01*
X044800Y038060D02*
X044340Y037600D01*
X043600Y037600D01*
X049650Y029100D02*
X051360Y027390D01*
X051360Y025100D01*
X052100Y025100D01*
X049100Y026100D02*
X047600Y026100D01*
X032990Y038030D02*
X032990Y038793D01*
X032990Y038030D02*
X032600Y037640D01*
X031292Y037640D01*
X029752Y036100D01*
X026100Y036100D01*
X026100Y037100D02*
X026840Y037100D01*
X026840Y038080D01*
X031360Y042600D01*
X032100Y042600D01*
X031359Y050072D02*
X024812Y050072D01*
X021340Y046600D01*
X020600Y046600D01*
X014600Y053360D02*
X013609Y052369D01*
X014600Y053360D02*
X014600Y054100D01*
X008601Y060601D02*
X006059Y060601D01*
X005560Y061100D01*
X005100Y061100D01*
X005600Y059600D02*
X004100Y059600D01*
X008601Y060601D02*
X009100Y061100D01*
X041588Y064704D02*
X043507Y062784D01*
X045011Y062784D01*
X047455Y060340D01*
X048100Y060340D01*
X048100Y059600D01*
X047600Y057100D02*
X043100Y057100D01*
X031100Y006100D02*
X031100Y005360D01*
M02*
